<?xml version="1.0" standalone="no"?>
<!DOCTYPE svg PUBLIC "-//W3C//DTD SVG 1.1//EN" "http://www.w3.org/Graphics/SVG/1.1/DTD/svg11.dtd" >
<svg xmlns="http://www.w3.org/2000/svg" xmlns:xlink="http://www.w3.org/1999/xlink" version="1.1">
<metadata>
Created by FontForge 20170910 at Fri Aug  8 17:07:46 2014
 By Jimmy Wärting
Please contact us to learn more about license restrictions.
</metadata>
<defs>
<font id="SofiaPro-Bold" horiz-adv-x="568" >
  <font-face 
    font-family="Sofia Pro"
    font-weight="700"
    font-stretch="normal"
    units-per-em="1000"
    panose-1="2 11 0 0 0 0 0 0 0 0"
    ascent="754"
    descent="-246"
    x-height="467"
    cap-height="689"
    bbox="-180 -287 1157 1113"
    underline-thickness="50"
    underline-position="-100"
    unicode-range="U+0020-FB04"
  />
<missing-glyph horiz-adv-x="635" 
d="M555 0h-475v665h475v-665zM185 431h62c0 49 31 83 74 83s80 -30 80 -73c0 -20 -8 -37 -24 -50c-10 -11 -21 -18 -33 -21c-60 -17 -93 -47 -93 -110v-38h62v38c0 29 17 41 50 50c57 17 99 67 99 131c0 40 -14 72 -42 97c-27 25 -60 38 -99 38c-38 0 -70 -13 -97 -40
c-26 -27 -39 -62 -39 -105zM283 88c24 0 45 19 45 43s-21 43 -45 43c-25 0 -46 -19 -46 -43s21 -43 46 -43z" />
    <glyph glyph-name="f_f" unicode="ff" horiz-adv-x="761" 
d="M716 721h51v-133h-51c-47 0 -71 -30 -71 -89v-32h94v-110h-94v-357h-140v357h-254v-357h-140v357h-88v110h88v32c0 143 76 222 211 222h51v-133h-51c-47 0 -71 -30 -71 -89v-32h254v32c0 143 76 222 211 222z" />
    <glyph glyph-name="fi" unicode="fi" horiz-adv-x="695" 
d="M251 467h380v-467h-138v357h-242v-357h-140v357h-88v110h88v32c0 143 76 222 211 222h51v-133h-51c-47 0 -71 -30 -71 -89v-32zM562 721c47 0 85 -36 85 -81s-38 -82 -85 -82c-48 0 -87 37 -87 82s39 81 87 81z" />
    <glyph glyph-name="fl" unicode="fl" horiz-adv-x="678" 
d="M322 721h292v-721h-139v588h-153c-47 0 -71 -30 -71 -89v-32h94v-110h-94v-357h-140v357h-88v110h88v32c0 143 76 222 211 222z" />
    <glyph glyph-name="f_f_i" unicode="ffi" horiz-adv-x="1089" 
d="M645 467h380v-467h-138v357h-242v-357h-140v357h-254v-357h-140v357h-88v110h88v32c0 143 76 222 211 222h51v-133h-51c-47 0 -71 -30 -71 -89v-32h254v32c0 143 76 222 211 222h51v-133h-51c-47 0 -71 -30 -71 -89v-32zM956 721c47 0 85 -36 85 -81s-38 -82 -85 -82
c-48 0 -87 37 -87 82s39 81 87 81z" />
    <glyph glyph-name="f_f_l" unicode="ffl" horiz-adv-x="1072" 
d="M716 721h292v-721h-139v588h-153c-47 0 -71 -30 -71 -89v-32h94v-110h-94v-357h-140v357h-254v-357h-140v357h-88v110h88v32c0 143 76 222 211 222h51v-133h-51c-47 0 -71 -30 -71 -89v-32h254v32c0 143 76 222 211 222z" />
    <glyph glyph-name="f_f_j" unicode="ffj" horiz-adv-x="1065" 
d="M824 -235h-85v126h61c42 0 62 25 61 74v392h-216v-357h-140v357h-254v-357h-140v357h-88v110h88v32c0 143 76 222 211 222h51v-133h-51c-47 0 -71 -30 -71 -89v-32h254v32c0 143 76 222 211 222h51v-133h-51c-47 0 -71 -30 -71 -89v-32h356v-499
c0 -131 -50 -203 -177 -203zM869 582c-33 32 -33 84 0 115c35 32 90 32 123 0c33 -31 33 -83 0 -115s-88 -32 -123 0z" />
    <glyph glyph-name="f_j" unicode="fj" horiz-adv-x="671" 
d="M430 -235h-85v126h61c42 0 62 25 61 74v392h-216v-357h-140v357h-88v110h88v32c0 143 76 222 211 222h51v-133h-51c-47 0 -71 -30 -71 -89v-32h356v-499c0 -131 -50 -203 -177 -203zM475 582c-33 32 -33 84 0 115c35 32 90 32 123 0c33 -31 33 -83 0 -115s-88 -32 -123 0
z" />
    <glyph glyph-name=".notdef" horiz-adv-x="635" 
d="M555 0h-475v665h475v-665zM185 431h62c0 49 31 83 74 83s80 -30 80 -73c0 -20 -8 -37 -24 -50c-10 -11 -21 -18 -33 -21c-60 -17 -93 -47 -93 -110v-38h62v38c0 29 17 41 50 50c57 17 99 67 99 131c0 40 -14 72 -42 97c-27 25 -60 38 -99 38c-38 0 -70 -13 -97 -40
c-26 -27 -39 -62 -39 -105zM283 88c24 0 45 19 45 43s-21 43 -45 43c-25 0 -46 -19 -46 -43s21 -43 46 -43z" />
    <glyph glyph-name="NULL" horiz-adv-x="0" 
 />
    <glyph glyph-name="CR" horiz-adv-x="333" 
 />
    <glyph glyph-name="space" unicode=" " horiz-adv-x="244" 
 />
    <glyph glyph-name="exclam" unicode="!" horiz-adv-x="283" 
d="M85 208l-20 481h154l-20 -481h-114zM228 74c0 -48 -39 -84 -87 -84s-86 36 -86 84s38 83 86 83s87 -36 87 -83z" />
    <glyph glyph-name="quotedbl" unicode="&#x22;" horiz-adv-x="365" 
d="M150 392h-76l-11 297h98zM291 392h-76l-11 297h98z" />
    <glyph glyph-name="numbersign" unicode="#" horiz-adv-x="723" 
d="M627 689l-53 -174h115l-26 -92h-115l-52 -168h115l-27 -92h-114l-53 -163h-109l51 163h-102l-52 -163h-108l52 163h-114l26 92h113l51 168h-112l26 92h113l52 174h111l-52 -174h101l53 174h110zM437 423h-102l-51 -168h101z" />
    <glyph glyph-name="dollar" unicode="$" horiz-adv-x="575" 
d="M253 695v107h73v-108c113 -16 191 -93 191 -208h-146c0 47 -32 78 -89 78c-52 0 -89 -29 -89 -69c0 -33 25 -56 74 -70l82 -26c129 -37 192 -107 189 -208c-1 -59 -21 -105 -62 -140c-41 -34 -91 -54 -150 -60v-115h-73v115c-65 7 -116 29 -155 67c-39 39 -58 87 -58 144
h147c3 -47 40 -83 103 -83c60 0 100 29 101 73c1 35 -18 59 -83 78l-83 23c-119 37 -178 103 -178 198c0 55 19 102 58 139s88 59 148 65z" />
    <glyph glyph-name="percent" unicode="%" horiz-adv-x="692" 
d="M539 655l-322 -655h-69l322 655h69zM169 662c37 0 68 -13 94 -39c27 -26 40 -58 40 -95s-13 -69 -39 -95c-26 -25 -58 -38 -95 -38s-69 13 -95 38c-25 26 -38 58 -38 95s13 69 38 95c26 26 58 39 95 39zM169 476c29 0 53 23 53 52s-24 53 -53 53s-52 -24 -52 -53
s21 -52 52 -52zM523 257c37 0 68 -13 94 -40c27 -26 40 -57 40 -94s-13 -69 -39 -95c-26 -25 -58 -38 -95 -38s-69 13 -95 38c-25 26 -38 58 -38 95s13 69 38 95c26 26 58 39 95 39zM471 123c0 -31 21 -52 52 -52c46 0 72 57 37 89c-32 35 -89 9 -89 -37z" />
    <glyph glyph-name="ampersand" unicode="&#x26;" horiz-adv-x="694" 
d="M286 -10c-67 0 -123 19 -168 56c-45 38 -67 86 -67 145c0 90 38 149 114 176c-51 16 -87 69 -87 137c0 50 19 94 57 132s86 58 144 61c83 4 148 -26 197 -89l-118 -72c-17 17 -36 26 -56 26c-47 0 -71 -33 -71 -68c0 -3 1 -78 80 -78h114v78h129v-78h80v-112h-80v-102
c0 -39 6 -64 17 -75s37 -16 76 -16v-121c-60 1 -105 6 -134 17s-49 34 -60 69c-12 -26 -35 -47 -69 -63c-33 -15 -66 -23 -98 -23zM425 249v55h-118c-96 0 -111 -73 -104 -102c11 -51 45 -76 104 -76c27 0 53 10 79 29c26 20 39 51 39 94z" />
    <glyph glyph-name="quotesingle" unicode="'" horiz-adv-x="224" 
d="M150 392h-76l-11 297h98z" />
    <glyph glyph-name="parenleft" unicode="(" horiz-adv-x="388" 
d="M356 697v-109c-33 0 -65 -17 -96 -51s-56 -79 -75 -135s-29 -114 -29 -174c0 -91 21 -172 62 -244c42 -73 88 -109 138 -109v-108c-91 0 -166 43 -227 130c-60 86 -90 196 -90 331s30 246 90 335c61 89 136 134 227 134z" />
    <glyph glyph-name="parenright" unicode=")" horiz-adv-x="388" 
d="M32 -233v108c50 0 96 36 137 109c42 72 63 153 63 244c0 60 -10 118 -29 174c-39 112 -106 186 -171 186v109c91 0 166 -45 226 -134c61 -89 91 -200 91 -335s-30 -245 -91 -331c-60 -87 -135 -130 -226 -130z" />
    <glyph glyph-name="asterisk" unicode="*" horiz-adv-x="476" 
d="M240 446l-76 -110l-76 58l82 101l-126 36l31 93l121 -48l-8 131h100l-9 -130l123 47l29 -93l-125 -34l83 -104l-78 -55z" />
    <glyph glyph-name="plus" unicode="+" horiz-adv-x="509" 
d="M460 210h-155v-155h-102v155h-154v102h154v154h102v-154h155v-102z" />
    <glyph glyph-name="comma" unicode="," horiz-adv-x="283" 
d="M91 -135l-90 34c47 64 79 164 78 259h141c-1 -69 -14 -129 -41 -178c-26 -49 -55 -88 -88 -115z" />
    <glyph glyph-name="hyphen" unicode="-" horiz-adv-x="475" 
d="M414 191h-353v110h353v-110z" />
    <glyph glyph-name="period" unicode="." horiz-adv-x="279" 
d="M226 74c0 -48 -39 -84 -87 -84s-86 36 -86 84s38 83 86 83s87 -36 87 -83z" />
    <glyph glyph-name="slash" unicode="/" horiz-adv-x="500" 
d="M29 0l331 689h111l-331 -689h-111z" />
    <glyph glyph-name="zero" unicode="0" horiz-adv-x="604" 
d="M58 328c0 227 82 340 245 340c92 0 158 -36 193 -100c36 -64 50 -140 50 -240s-14 -174 -50 -238c-35 -64 -101 -100 -193 -100c-163 0 -245 113 -245 338zM198 328c0 -135 35 -202 105 -202c69 0 103 67 103 202c0 136 -34 204 -103 204c-70 0 -105 -68 -105 -204z" />
    <glyph glyph-name="one" unicode="1" horiz-adv-x="377" 
d="M39 544l252 120v-664h-140v469l-112 -48v123z" />
    <glyph glyph-name="two" unicode="2" horiz-adv-x="548" 
d="M477 132v-132h-426v76l269 319c23 27 35 51 35 74c0 36 -31 65 -82 65c-49 0 -85 -38 -93 -91l-128 22c20 125 106 203 229 203c59 0 110 -19 151 -56c42 -37 63 -85 63 -143c0 -59 -23 -114 -69 -166l-151 -171h202z" />
    <glyph glyph-name="three" unicode="3" horiz-adv-x="552" 
d="M258 284h-69v120h69c43 0 64 24 64 71c0 27 -22 63 -66 63c-31 0 -54 -12 -69 -36l-113 69c40 63 117 102 204 97c56 -3 103 -22 140 -59c37 -36 55 -78 54 -125c0 -52 -33 -100 -84 -128c35 -13 64 -37 85 -72s30 -70 27 -106c-5 -56 -33 -102 -84 -139
c-51 -36 -109 -52 -174 -47c-91 5 -173 61 -209 137l123 61c7 -15 21 -30 40 -43s38 -19 57 -20c48 -3 90 34 94 70c2 13 9 90 -89 87z" />
    <glyph glyph-name="four" unicode="4" horiz-adv-x="602" 
d="M332 469l-122 -204h122v204zM556 265v-118h-83v-147h-141v147h-313l306 508h148v-390h83z" />
    <glyph glyph-name="five" unicode="5" horiz-adv-x="592" 
d="M405 231c0 71 -49 107 -121 107c-51 0 -111 -20 -144 -72l-77 40l54 349h384v-128h-273l-17 -106c25 23 65 34 120 34c61 0 112 -20 153 -59s61 -94 61 -165s-25 -129 -74 -174s-115 -67 -196 -67c-91 0 -181 53 -232 132l118 76c25 -40 73 -68 114 -68
c75 0 130 46 130 101z" />
    <glyph glyph-name="six" unicode="6" horiz-adv-x="586" 
d="M335 422c52 0 98 -19 139 -58s62 -93 62 -163c0 -63 -22 -114 -66 -153c-43 -39 -101 -58 -172 -58c-63 0 -116 21 -160 62c-44 42 -69 97 -75 166c-16 202 19 459 265 450c89 -4 158 -35 202 -127l-131 -56c-17 35 -42 52 -76 52c-93 -2 -127 -99 -120 -189
c5 16 20 32 43 49s53 25 89 25zM365 148c35 35 35 88 0 121c-33 35 -86 35 -121 0c-33 -33 -33 -86 0 -121c35 -33 88 -33 121 0z" />
    <glyph glyph-name="seven" unicode="7" horiz-adv-x="550" 
d="M43 526v129h494l-289 -655h-159l231 526h-277z" />
    <glyph glyph-name="eight" unicode="8" horiz-adv-x="596" 
d="M96 485c0 51 20 94 59 129c40 36 88 54 143 54s103 -18 143 -54c40 -35 60 -78 60 -129c0 -45 -16 -81 -48 -110c57 -33 94 -94 94 -165c0 -62 -24 -114 -73 -157c-48 -42 -107 -63 -176 -63s-128 21 -177 63c-48 43 -72 95 -72 157c0 71 35 132 94 165
c-31 30 -47 67 -47 110zM189 217c0 -55 50 -97 109 -97s109 42 109 97c0 53 -41 98 -110 98c-68 0 -108 -45 -108 -98zM231 481c0 -36 24 -63 67 -63s67 27 67 63c0 33 -26 61 -67 61s-67 -28 -67 -61z" />
    <glyph glyph-name="nine" unicode="9" horiz-adv-x="585" 
d="M253 236c-52 0 -99 19 -140 58s-61 93 -61 163c0 63 22 114 65 153c44 39 102 58 173 58c63 0 116 -21 160 -63c44 -41 69 -96 75 -165c16 -202 -19 -459 -265 -450c-89 4 -158 35 -202 127l131 56c17 -35 42 -52 76 -52c30 0 55 10 74 30c39 40 49 95 46 159
c-17 -49 -61 -74 -132 -74zM222 509c-33 -33 -33 -86 0 -121c35 -33 88 -33 121 0c35 35 35 88 0 121c-33 35 -86 35 -121 0z" />
    <glyph glyph-name="colon" unicode=":" horiz-adv-x="308" 
d="M93 14c-17 16 -25 36 -25 60s8 44 25 59c33 32 89 32 122 0c17 -15 25 -35 25 -59s-8 -44 -25 -60c-33 -32 -89 -32 -122 0zM93 333c-33 32 -33 88 0 120s89 32 122 0s33 -88 0 -120c-33 -31 -89 -31 -122 0z" />
    <glyph glyph-name="semicolon" unicode=";" horiz-adv-x="306" 
d="M100 -135l-90 34c47 64 79 164 78 259h141c-1 -69 -14 -129 -41 -178c-26 -49 -55 -88 -88 -115zM101 333c-33 32 -33 88 0 120s89 32 122 0s33 -88 0 -120c-33 -31 -89 -31 -122 0z" />
    <glyph glyph-name="less" unicode="&#x3c;" horiz-adv-x="624" 
d="M548 52l-502 192v112l502 192l1 -110l-362 -138l362 -138z" />
    <glyph glyph-name="equal" unicode="=" horiz-adv-x="596" 
d="M528 448v-98h-460v98h460zM68 149v98h460v-98h-460z" />
    <glyph glyph-name="greater" unicode="&#x3e;" horiz-adv-x="624" 
d="M76 548l502 -192v-112l-502 -192l-1 110l362 138l-362 138z" />
    <glyph glyph-name="question" unicode="?" horiz-adv-x="496" 
d="M274 230l-2 -22h-136l-2 22c0 52 0 70 7 103c12 47 37 65 102 98l40 17c32 17 37 30 37 55c0 31 -30 54 -71 54c-43 0 -71 -28 -71 -69h-140c0 63 19 114 58 152s90 57 153 57s114 -18 153 -53s58 -83 58 -142c0 -95 -54 -164 -134 -189c-40 -12 -52 -34 -52 -83zM293 74
c0 -48 -39 -84 -87 -84s-86 36 -86 84s38 83 86 83s87 -36 87 -83z" />
    <glyph glyph-name="at" unicode="@" horiz-adv-x="964" 
d="M583 136v126c0 33 -11 60 -34 83s-50 34 -82 34s-59 -11 -82 -34s-34 -50 -34 -83c0 -31 11 -58 34 -81s51 -34 82 -34c29 0 56 8 79 25v-94c-29 -13 -56 -19 -79 -19c-57 0 -105 20 -145 59s-60 87 -60 144s20 106 60 145c40 40 88 60 145 60c55 0 103 -19 142 -56
c41 -37 62 -83 64 -139v-142c0 -43 27 -60 60 -60c41 0 72 30 85 74c15 45 20 87 20 131c0 95 -35 174 -106 237c-71 64 -156 96 -255 96c-96 0 -177 -34 -244 -103c-66 -68 -99 -151 -99 -248s33 -179 99 -246c67 -67 148 -100 244 -100h33v-89h-33
c-121 0 -224 42 -307 126s-125 187 -125 309s42 226 125 311c84 86 186 129 307 129c239 6 455 -186 451 -422c0 -119 -50 -293 -195 -293c-85 0 -150 47 -150 154z" />
    <glyph glyph-name="A" unicode="A" horiz-adv-x="659" 
d="M329 530l-70 -240h143zM510 0l-61 163h-238l-61 -163h-156l256 689h159l255 -689h-154z" />
    <glyph glyph-name="B" unicode="B" horiz-adv-x="637" 
d="M561 497c0 -52 -29 -104 -94 -129c42 -11 74 -32 96 -63c23 -31 34 -62 34 -94c0 -59 -20 -109 -60 -150s-93 -61 -160 -61h-296v689h276c124 0 204 -75 204 -192zM228 560v-143h115c37 0 64 30 64 71c0 44 -22 72 -65 72h-114zM366 296h-138v-167h141c47 0 74 40 74 85
c0 43 -29 82 -77 82z" />
    <glyph glyph-name="C" unicode="C" horiz-adv-x="699" 
d="M559 223l118 -82c-61 -93 -167 -151 -290 -151c-98 0 -180 34 -247 103c-66 69 -99 152 -99 250c0 99 33 182 99 251c67 69 149 103 247 103c120 0 226 -57 287 -146l-119 -82c-41 60 -97 90 -168 90c-57 0 -104 -21 -142 -63c-38 -41 -57 -92 -57 -153
c0 -60 19 -111 57 -153c38 -41 85 -62 142 -62c71 0 133 38 172 95z" />
    <glyph glyph-name="D" unicode="D" horiz-adv-x="707" 
d="M351 556h-124v-423h124c53 0 93 20 122 60s43 90 43 150c0 61 -14 111 -43 152s-69 61 -122 61zM351 0h-270v689h270c97 0 173 -33 228 -98s83 -147 83 -248s-28 -183 -83 -247s-131 -96 -228 -96z" />
    <glyph glyph-name="E" unicode="E" horiz-adv-x="576" 
d="M526 0h-445v689h436v-129h-290v-157h254v-127h-254v-147h299v-129z" />
    <glyph glyph-name="F" unicode="F" horiz-adv-x="538" 
d="M228 0h-147v689h431v-129h-284v-157h225v-128h-225v-275z" />
    <glyph glyph-name="G" unicode="G" horiz-adv-x="756" 
d="M653 584l-108 -93c-41 47 -92 70 -151 70c-58 0 -107 -21 -147 -64c-39 -43 -59 -94 -59 -154s20 -112 60 -155s89 -64 146 -64c40 0 78 11 113 33c35 23 53 51 54 86h-185v119h354c0 -125 -30 -218 -91 -280c-60 -61 -142 -92 -245 -92c-99 0 -182 34 -251 103
c-68 69 -102 153 -102 250c0 98 34 181 102 250c69 69 152 104 251 104c104 0 198 -42 259 -113z" />
    <glyph glyph-name="H" unicode="H" horiz-adv-x="701" 
d="M472 408v281h148v-689h-148v277h-245v-277h-146v689h146v-281h245z" />
    <glyph glyph-name="I" unicode="I" horiz-adv-x="308" 
d="M81 0v689h146v-689h-146z" />
    <glyph glyph-name="J" unicode="J" horiz-adv-x="309" 
d="M-99 -219l13 132c21 -7 51 -11 88 -11c53 0 79 39 79 95v692h147v-692c0 -69 -18 -125 -55 -168s-94 -65 -171 -65c-21 0 -54 6 -101 17z" />
    <glyph glyph-name="K" unicode="K" horiz-adv-x="609" 
d="M564 689l-261 -341l323 -348h-190l-207 234v-234h-148v689h148v-226l163 226h172z" />
    <glyph glyph-name="L" unicode="L" horiz-adv-x="511" 
d="M486 0h-405v689h147v-560h258v-129z" />
    <glyph glyph-name="M" unicode="M" horiz-adv-x="913" 
d="M249 689l208 -444l206 444h123l84 -689h-147l-48 413l-161 -334h-113l-162 334l-49 -413h-147l85 689h121z" />
    <glyph glyph-name="N" unicode="N" horiz-adv-x="679" 
d="M451 689h147v-689h-131l-240 417v-417h-146v689h134l236 -412v412z" />
    <glyph glyph-name="O" unicode="O" horiz-adv-x="781" 
d="M594 343c0 58 -20 107 -60 148c-39 41 -87 61 -144 61s-105 -20 -144 -61s-59 -90 -59 -148s20 -107 59 -148c39 -40 87 -60 144 -60s105 20 144 61c40 41 60 90 60 147zM41 343c0 98 34 181 101 250c68 69 151 104 248 104c98 0 181 -35 248 -104
c68 -69 102 -152 102 -250c0 -97 -34 -181 -102 -250s-151 -103 -248 -103s-180 34 -248 103c-67 69 -101 153 -101 250z" />
    <glyph glyph-name="P" unicode="P" horiz-adv-x="614" 
d="M361 560h-133v-194h129c53 0 87 48 87 97c0 48 -32 97 -83 97zM228 0h-147v689h283c74 0 130 -22 169 -67c39 -44 58 -97 58 -159s-19 -115 -58 -159s-95 -66 -169 -66h-136v-238z" />
    <glyph glyph-name="Q" unicode="Q" horiz-adv-x="788" 
d="M598 54l66 -110l-103 -62l-74 120c-30 -8 -61 -12 -93 -12c-99 0 -182 34 -251 103c-68 69 -102 153 -102 250c0 98 34 181 102 250c69 69 152 104 251 104s183 -34 251 -103c69 -69 103 -152 103 -251c0 -116 -58 -222 -150 -289zM354 223l103 61l66 -107
c52 41 78 97 78 166c0 60 -20 111 -61 153c-40 42 -89 63 -146 63c-58 0 -107 -21 -147 -63c-39 -42 -59 -93 -59 -153c0 -51 15 -95 45 -134c31 -38 70 -62 117 -72c15 -4 35 -6 59 -6z" />
    <glyph glyph-name="R" unicode="R" horiz-adv-x="637" 
d="M356 560h-128v-194h124c53 0 87 48 87 97c0 48 -32 97 -83 97zM420 244l171 -244h-176l-154 238h-33v-238h-147v689h282c73 0 130 -22 169 -67c40 -44 60 -97 60 -159c0 -105 -60 -195 -172 -219z" />
    <glyph glyph-name="S" unicode="S" horiz-adv-x="582" 
d="M44 202h147c3 -47 40 -83 103 -83c60 0 100 29 101 73c1 35 -18 59 -83 78l-83 23c-119 37 -178 103 -178 198c0 61 23 110 68 148c45 39 102 58 169 58c68 0 124 -19 167 -57c44 -38 66 -89 66 -154h-146c0 47 -32 78 -89 78c-52 0 -89 -29 -89 -69c0 -33 25 -56 74 -70
l82 -26c129 -37 192 -107 189 -208c-1 -43 -13 -81 -38 -113c-49 -63 -125 -89 -210 -89c-75 0 -135 20 -181 59c-46 40 -69 91 -69 154z" />
    <glyph glyph-name="T" unicode="T" horiz-adv-x="576" 
d="M214 557h-186v132h520v-132h-186v-557h-148v557z" />
    <glyph glyph-name="U" unicode="U" horiz-adv-x="682" 
d="M461 246v443h147v-443c0 -76 -26 -138 -78 -185s-115 -71 -188 -71s-136 24 -189 71s-79 109 -79 185v443h149v-443c0 -35 12 -63 35 -85c24 -22 52 -33 84 -33s60 11 83 33c24 23 36 51 36 85z" />
    <glyph glyph-name="V" unicode="V" horiz-adv-x="582" 
d="M226 0l-210 689h152l123 -452l122 452h153l-210 -689h-130z" />
    <glyph glyph-name="W" unicode="W" horiz-adv-x="886" 
d="M503 592l91 -337l135 434h159l-234 -689h-115l-97 362l-95 -362h-116l-232 689h158l134 -434l92 337h120z" />
    <glyph glyph-name="X" unicode="X" horiz-adv-x="658" 
d="M458 689h175l-217 -322l239 -367h-173l-153 250l-153 -250h-172l238 367l-217 322h176l128 -206z" />
    <glyph glyph-name="Y" unicode="Y" horiz-adv-x="651" 
d="M400 310v-310h-149v312l-266 377h174l166 -258l168 258h174z" />
    <glyph glyph-name="Z" unicode="Z" horiz-adv-x="595" 
d="M42 0v111l315 449h-302v129h492v-111l-318 -449h318v-129h-505z" />
    <glyph glyph-name="bracketleft" unicode="[" horiz-adv-x="338" 
d="M304 -229h-231v918h231v-101h-113v-714h113v-103z" />
    <glyph glyph-name="backslash" unicode="\" horiz-adv-x="500" 
d="M360 0l-331 689h111l331 -689h-111z" />
    <glyph glyph-name="bracketright" unicode="]" horiz-adv-x="338" 
d="M34 689h231v-918h-231v103h113v714h-113v101z" />
    <glyph glyph-name="underscore" unicode="_" horiz-adv-x="743" 
d="M683 -132h-623v100h623v-100z" />
    <glyph glyph-name="grave" unicode="`" horiz-adv-x="554" 
d="M277 539l-148 168h138l110 -168h-100z" />
    <glyph glyph-name="a" unicode="a" horiz-adv-x="612" 
d="M548 0h-138v53c-13 -20 -34 -35 -62 -46c-27 -11 -52 -16 -74 -16c-63 0 -118 22 -166 67s-72 104 -72 176s24 130 72 175s103 68 166 68c44 0 104 -17 136 -62v52h138v-467zM297 123c60 0 113 44 113 111s-53 111 -113 111c-31 0 -58 -11 -82 -32
c-23 -21 -35 -47 -35 -79s12 -59 35 -80c24 -21 51 -31 82 -31z" />
    <glyph glyph-name="b" unicode="b" horiz-adv-x="602" 
d="M205 235c0 -65 48 -113 108 -113s108 45 108 113c0 65 -48 111 -108 111s-108 -43 -108 -111zM202 58v-58h-138v721h138v-311c23 41 77 67 137 67c62 0 115 -23 159 -68c45 -45 67 -104 67 -177c0 -71 -22 -130 -67 -175c-44 -45 -97 -67 -159 -67c-60 0 -114 25 -137 68
z" />
    <glyph glyph-name="c" unicode="c" horiz-adv-x="525" 
d="M290 477c83 0 158 -36 203 -99l-113 -81c-20 31 -50 47 -90 47c-31 0 -58 -10 -81 -31c-23 -20 -35 -46 -35 -78c0 -33 12 -60 35 -81s50 -31 81 -31c40 0 70 16 90 47l113 -80c-44 -63 -119 -100 -203 -100c-69 0 -129 23 -179 69s-75 105 -75 176s25 129 75 174
s110 68 179 68z" />
    <glyph glyph-name="d" unicode="d" horiz-adv-x="602" 
d="M397 235c0 68 -48 111 -108 111s-108 -46 -108 -111c0 -68 48 -113 108 -113s108 48 108 113zM538 721v-721h-138v58c-23 -43 -77 -68 -137 -68c-62 0 -115 22 -160 67c-44 45 -66 104 -66 175c0 73 22 132 66 177c45 45 98 68 160 68c60 0 114 -26 137 -67v311h138z" />
    <glyph glyph-name="e" unicode="e" horiz-adv-x="550" 
d="M392 154l101 -69c-43 -63 -114 -95 -213 -95c-69 0 -127 23 -174 68c-47 46 -70 105 -70 177s23 130 70 175s105 67 174 67c68 0 125 -23 170 -69c46 -45 69 -104 69 -177c0 -13 -1 -27 -2 -43h-342c7 -51 60 -78 115 -78c45 0 79 15 102 44zM177 275h202
c-14 106 -180 107 -202 0z" />
    <glyph glyph-name="f" unicode="f" horiz-adv-x="367" 
d="M322 721h51v-133h-51c-47 0 -71 -30 -71 -89v-32h94v-110h-94v-357h-140v357h-88v110h88v32c0 143 76 222 211 222z" />
    <glyph glyph-name="g" unicode="g" horiz-adv-x="608" 
d="M406 235c0 67 -52 110 -113 110s-112 -46 -112 -110c0 -68 51 -114 112 -114c30 0 56 11 79 32c23 22 34 49 34 82zM50 -88l112 55c16 -43 70 -75 118 -75c93 0 136 55 129 166c-21 -41 -80 -68 -140 -68c-63 0 -117 23 -164 68c-46 45 -69 103 -69 174
c0 72 23 131 69 176c47 46 101 69 164 69c60 0 117 -27 140 -68v58h135v-402c0 -197 -95 -298 -264 -298c-103 0 -190 57 -230 145z" />
    <glyph glyph-name="h" unicode="h" horiz-adv-x="579" 
d="M203 247v-247h-139v721h139v-327c9 27 26 47 53 61c27 15 53 22 78 22c121 0 187 -80 187 -223v-254h-139v249c0 57 -41 93 -86 93c-51 0 -93 -30 -93 -95z" />
    <glyph glyph-name="i" unicode="i" horiz-adv-x="266" 
d="M64 467h138v-467h-138v467zM133 721c47 0 85 -36 85 -81s-38 -82 -85 -82c-48 0 -87 37 -87 82s39 81 87 81z" />
    <glyph glyph-name="j" unicode="j" horiz-adv-x="268" 
d="M27 -235h-85v126h61c42 0 62 25 61 74v502h140v-499c0 -131 -50 -203 -177 -203zM72 582c-33 32 -33 84 0 115c35 32 90 32 123 0c33 -31 33 -83 0 -115s-88 -32 -123 0z" />
    <glyph glyph-name="k" unicode="k" horiz-adv-x="526" 
d="M358 0l-156 185v-185h-138v721h138v-382l111 128h177l-194 -206l233 -261h-171z" />
    <glyph glyph-name="l" unicode="l" horiz-adv-x="267" 
d="M64 0v721h139v-721h-139z" />
    <glyph glyph-name="m" unicode="m" horiz-adv-x="854" 
d="M580 342c-48 0 -80 -31 -80 -95v-247h-139v252c-1 56 -34 90 -77 90c-47 0 -81 -28 -81 -95v-247h-139v467h139v-68c21 48 70 77 122 77c74 0 124 -27 150 -82c34 55 81 83 140 83c113 0 180 -73 180 -212v-265h-138v249c0 59 -33 93 -77 93z" />
    <glyph glyph-name="n" unicode="n" 
d="M203 247v-247h-139v467h139v-68c25 47 80 78 135 78c108 0 171 -67 171 -198v-279h-139v249c0 60 -32 93 -81 93c-57 0 -86 -32 -86 -95z" />
    <glyph glyph-name="o" unicode="o" horiz-adv-x="557" 
d="M278 128c60 0 106 43 106 107c0 61 -47 106 -106 106s-105 -45 -105 -106c0 -64 46 -107 105 -107zM450 59c-47 -45 -104 -67 -172 -67s-125 22 -172 67s-70 104 -70 176s23 130 70 175s104 67 172 67s125 -22 172 -67s71 -103 71 -175s-24 -131 -71 -176z" />
    <glyph glyph-name="p" unicode="p" horiz-adv-x="602" 
d="M205 232c0 -68 48 -111 108 -111s108 46 108 111c0 67 -48 113 -108 113s-108 -48 -108 -113zM64 -229v696h138v-58c23 43 77 68 137 68c62 0 115 -23 159 -68c45 -45 67 -103 67 -174c0 -73 -22 -132 -67 -177c-44 -45 -97 -68 -159 -68c-60 0 -114 26 -137 67v-286
h-138z" />
    <glyph glyph-name="q" unicode="q" horiz-adv-x="602" 
d="M399 409v58h139v-696h-139v286c-21 -41 -76 -67 -137 -67c-62 0 -115 23 -159 68s-66 104 -66 177c0 71 22 129 66 174c45 45 98 68 159 68c60 0 116 -25 137 -68zM396 232c0 65 -48 113 -108 113s-107 -46 -107 -113c0 -65 47 -111 107 -111s108 43 108 111z" />
    <glyph glyph-name="r" unicode="r" horiz-adv-x="423" 
d="M203 163v-163h-139v467h139v-113c23 81 79 123 132 123c31 0 57 -6 80 -17l-25 -125c-19 9 -43 14 -71 14c-77 0 -116 -62 -116 -186z" />
    <glyph glyph-name="s" unicode="s" horiz-adv-x="467" 
d="M246 176l-61 16c-65 17 -108 44 -124 75c-15 32 -17 48 -16 77c1 35 19 65 55 92s78 41 127 41c53 0 98 -13 135 -38s56 -64 57 -117h-131c-1 27 -18 41 -53 41c-31 0 -50 -14 -49 -35c1 -17 15 -28 41 -35l79 -21c35 -9 62 -24 82 -43c41 -39 45 -65 45 -93
c0 -47 -20 -83 -61 -108c-40 -25 -87 -38 -141 -38c-51 0 -97 14 -136 43s-58 69 -59 118h130c1 -28 32 -54 69 -54c32 1 57 16 57 39c0 20 -13 31 -46 40z" />
    <glyph glyph-name="t" unicode="t" horiz-adv-x="365" 
d="M246 646v-179h98v-110h-98v-357h-138v357h-85v110h85v179h138z" />
    <glyph glyph-name="u" unicode="u" 
d="M365 220v247h139v-467h-139v64c-24 -45 -74 -74 -121 -74c-109 0 -185 70 -185 198v279h139v-249c0 -67 42 -93 83 -93c48 0 84 30 84 95z" />
    <glyph glyph-name="v" unicode="v" horiz-adv-x="520" 
d="M319 0h-119l-197 467h148l109 -290l108 290h149z" />
    <glyph glyph-name="w" unicode="w" horiz-adv-x="763" 
d="M605 467h148l-164 -467h-116l-92 297l-88 -297h-116l-169 467h148l83 -278l82 278h119l82 -278z" />
    <glyph glyph-name="x" unicode="x" horiz-adv-x="530" 
d="M4 0l184 253l-154 214h162l70 -103l69 103h161l-154 -214l183 -253h-161l-99 143l-100 -143h-161z" />
    <glyph glyph-name="y" unicode="y" horiz-adv-x="510" 
d="M358 467h148l-288 -696h-147l112 277l-180 419h148l103 -265z" />
    <glyph glyph-name="z" unicode="z" horiz-adv-x="510" 
d="M55 339v128h407v-104l-224 -235h224v-128h-421v103l220 236h-206z" />
    <glyph glyph-name="braceleft" unicode="{" horiz-adv-x="412" 
d="M31 188v84c32 0 61 23 61 58v159c-1 59 18 107 57 144s88 56 145 56h85v-101h-88c-45 0 -82 -38 -82 -86v-164c0 -56 -40 -97 -79 -108c39 -11 79 -52 79 -108v-153c0 -49 38 -93 82 -93h88v-105h-85c-57 0 -106 19 -145 56s-58 85 -57 144v159c0 35 -29 58 -61 58z" />
    <glyph glyph-name="bar" unicode="|" horiz-adv-x="219" 
d="M73 -124v926h73v-926h-73z" />
    <glyph glyph-name="braceright" unicode="}" horiz-adv-x="412" 
d="M381 272v-84c-32 0 -61 -23 -61 -58v-159c1 -59 -19 -107 -58 -144s-87 -56 -144 -56h-85v105h88c44 0 82 44 82 93v153c0 56 40 97 79 108c-39 11 -79 52 -79 108v164c0 48 -37 86 -82 86h-88v101h85c57 0 105 -19 144 -56s59 -85 58 -144v-159c0 -35 29 -58 61 -58z
" />
    <glyph glyph-name="exclamdown" unicode="&#xa1;" horiz-adv-x="267" 
d="M191 259l20 -488h-154l20 488h114zM220 393c0 -47 -39 -83 -87 -83s-86 35 -86 83s38 84 86 84s87 -36 87 -84z" />
    <glyph glyph-name="cent" unicode="&#xa2;" horiz-adv-x="538" 
d="M246 581h73v-105c77 -7 136 -40 177 -98l-113 -81c-20 31 -50 47 -90 47c-31 0 -58 -10 -81 -31c-23 -20 -35 -46 -35 -78c0 -33 12 -60 35 -81s50 -31 81 -31c40 0 70 16 90 47l113 -80c-41 -59 -100 -92 -177 -99v-115h-73v118c-59 11 -109 38 -148 81s-59 97 -59 160
s20 115 59 158s89 69 148 80v108z" />
    <glyph glyph-name="sterling" unicode="&#xa3;" horiz-adv-x="680" 
d="M402 279h-115v-155h184c17 0 30 16 30 36v29h137v-56c0 -38 -12 -70 -37 -95c-24 -25 -54 -38 -89 -38h-471v124h106v155h-83v63h83v131c0 67 20 121 59 162c40 41 91 62 154 62c66 0 120 -20 163 -59s64 -96 64 -171h-145c0 55 -26 82 -79 82c-47 0 -76 -29 -76 -76
v-131h115v-63z" />
    <glyph glyph-name="currency" unicode="&#xa4;" horiz-adv-x="621" 
d="M310 256c47 0 84 36 84 83s-37 84 -84 84s-83 -37 -83 -84s38 -83 83 -83zM203 164l-71 -72l-69 69l71 72c-19 31 -29 66 -29 106c0 39 10 75 30 107l-72 72l69 69l72 -72c33 20 69 30 106 30c39 0 75 -10 107 -30l71 72l69 -69l-72 -73c21 -35 31 -70 31 -106
c0 -39 -10 -75 -30 -106l71 -72l-69 -69l-71 72c-64 -40 -150 -40 -214 0z" />
    <glyph glyph-name="yen" unicode="&#xa5;" horiz-adv-x="742" 
d="M538 689h174l-257 -365h146v-68h-156v-93h156v-68h-156v-95h-149v95h-155v68h155v93h-155v68h146l-257 365h174l166 -258z" />
    <glyph glyph-name="brokenbar" unicode="&#xa6;" horiz-adv-x="221" 
d="M147 802v-382h-73v382h73zM74 260h73v-384h-73v384z" />
    <glyph glyph-name="section" unicode="&#xa7;" horiz-adv-x="541" 
d="M322 228v-122c-17 -4 -33 -6 -50 -6c-59 0 -110 19 -151 58s-62 89 -62 152v176c0 63 21 113 62 152s92 58 151 58c49 0 94 -14 134 -43c40 -28 65 -69 76 -122l-117 -35c-15 53 -53 77 -93 77c-49 0 -89 -35 -89 -87v-176c0 -52 40 -86 89 -86h6c15 0 30 1 44 4z
M219 301v122c17 4 33 6 50 6c59 0 110 -19 151 -58s62 -89 62 -152v-176c0 -63 -21 -113 -62 -152s-92 -58 -151 -58c-49 0 -94 14 -134 43c-40 28 -65 69 -76 122l117 35c15 -53 53 -77 93 -77c49 0 89 35 89 87v176c0 52 -40 86 -89 86h-6c-15 0 -30 -1 -44 -4z" />
    <glyph glyph-name="dieresis" unicode="&#xa8;" horiz-adv-x="561" 
d="M120 638c0 37 33 68 73 68c39 0 71 -31 71 -68c0 -39 -32 -69 -71 -69c-40 0 -73 30 -73 69zM297 638c0 37 33 68 73 68c39 0 71 -31 71 -68c0 -39 -32 -69 -71 -69c-40 0 -73 30 -73 69z" />
    <glyph glyph-name="copyright" unicode="&#xa9;" horiz-adv-x="797" 
d="M545 245c-32 -49 -89 -82 -148 -82c-49 0 -90 17 -123 52s-50 76 -50 125s17 91 50 125c33 35 74 52 123 52c62 0 111 -26 146 -79l-66 -46c-23 31 -50 46 -80 46c-52 0 -89 -42 -89 -98c0 -53 37 -96 89 -96c31 0 58 15 81 46zM150 93c-67 69 -101 152 -101 250
s34 181 101 250c68 69 151 104 248 104s180 -35 248 -104s102 -152 102 -250s-34 -181 -102 -250s-151 -103 -248 -103s-180 34 -248 103zM206 537c-53 -53 -79 -118 -79 -194s26 -141 79 -194s117 -80 192 -80s139 27 192 80s79 118 79 194s-26 141 -79 194
c-53 54 -117 81 -192 81s-139 -27 -192 -81z" />
    <glyph glyph-name="ordfeminine" unicode="&#xaa;" horiz-adv-x="468" 
d="M393 323h-76v45c-23 -32 -64 -52 -103 -52c-47 0 -86 16 -119 48s-49 74 -49 125s16 93 49 125s72 48 119 48c44 0 78 -17 103 -50v43h76v-332zM317 490c0 59 -47 96 -98 96c-55 0 -95 -39 -95 -96s42 -98 95 -98c55 0 98 38 98 98zM392 212h-315v53h315v-53z" />
    <glyph glyph-name="guillemotleft" unicode="&#xab;" horiz-adv-x="505" 
d="M177 26l-138 207l138 207h108l-138 -207l138 -207h-108zM354 26l-138 207l138 207h108l-138 -207l138 -207h-108z" />
    <glyph glyph-name="logicalnot" unicode="&#xac;" horiz-adv-x="628" 
d="M68 253v120h486v-269h-121v149h-365z" />
    <glyph glyph-name="registered" unicode="&#xae;" horiz-adv-x="797" 
d="M360 438v-81h53c21 0 36 21 36 42c0 17 -14 39 -33 39h-56zM541 174h-101l-73 109h-7v-109h-84v339h142c75 0 117 -51 117 -114c0 -52 -29 -96 -78 -112zM150 93c-67 69 -101 152 -101 250s34 181 101 250c68 69 151 104 248 104s180 -35 248 -104s102 -152 102 -250
s-34 -181 -102 -250s-151 -103 -248 -103s-180 34 -248 103zM206 537c-53 -53 -79 -118 -79 -194s26 -141 79 -194s117 -80 192 -80s139 27 192 80s79 118 79 194s-26 141 -79 194c-53 54 -117 81 -192 81s-139 -27 -192 -81z" />
    <glyph glyph-name="overscore" unicode="&#xaf;" horiz-adv-x="518" 
d="M398 587h-278v85h278v-85z" />
    <glyph glyph-name="degree" unicode="&#xb0;" horiz-adv-x="376" 
d="M44 529c0 39 14 73 42 101c28 29 62 43 101 43c40 0 74 -14 102 -43c29 -28 43 -62 43 -101c0 -40 -14 -74 -43 -103c-28 -28 -62 -42 -102 -42c-39 0 -73 14 -101 42c-28 29 -42 63 -42 103zM116 529c0 -41 32 -73 71 -73c41 0 73 32 73 73c0 40 -32 72 -73 72
c-39 0 -71 -32 -71 -72z" />
    <glyph glyph-name="plusminus" unicode="&#xb1;" horiz-adv-x="547" 
d="M479 292h-155v-143h-102v143h-154v102h154v141h102v-141h155v-102zM479 101v-102h-411v102h411z" />
    <glyph glyph-name="twosuperior" unicode="&#xb2;" horiz-adv-x="317" 
d="M29 434v43l156 185c13 15 20 30 20 44c0 21 -19 38 -48 38c-28 0 -50 -21 -54 -53l-74 13c12 72 61 117 133 117c34 0 63 -11 87 -33c25 -21 37 -49 37 -82c0 -34 -13 -66 -40 -96l-88 -100h118v-76h-247z" />
    <glyph glyph-name="threesuperior" unicode="&#xb3;" horiz-adv-x="317" 
d="M104 725l-64 40c23 36 67 59 118 56c65 -4 115 -51 112 -106c0 -32 -16 -57 -49 -75c41 -15 69 -62 65 -103c-3 -33 -19 -60 -48 -81s-63 -30 -101 -27c-52 4 -100 36 -121 80l70 35c12 -21 31 -34 57 -37c28 -1 52 19 55 40c0 15 -1 24 -3 29c-7 16 -24 24 -49 23h-40
v69h40c25 0 38 14 38 42c0 17 -15 37 -39 37c-17 0 -31 -7 -41 -22z" />
    <glyph glyph-name="acute" unicode="&#xb4;" horiz-adv-x="554" 
d="M129 539l110 168h138l-148 -168h-100z" />
    <glyph glyph-name="mu" unicode="&#xb5;" horiz-adv-x="574" 
d="M199 -191h-127v658h139v-249c0 -67 42 -93 83 -93c48 0 84 30 84 95v247h139v-467h-139v64c-24 -45 -74 -74 -121 -74c-27 0 -51 9 -72 27l14 -132v-76z" />
    <glyph glyph-name="paragraph" unicode="&#xb6;" horiz-adv-x="713" 
d="M250 689h93v-703c0 -16 -8 -24 -24 -24h-79v293c-57 3 -106 26 -147 68c-40 42 -60 92 -60 149c0 60 21 111 63 153c42 43 93 64 154 64zM539 588h-34v-637c0 -35 -14 -66 -42 -94c-28 -29 -60 -43 -95 -43h-129v91h121c27 0 45 21 45 46v738h136c38 0 70 -14 97 -41
s40 -59 40 -96v-85h-93v76c0 27 -21 45 -46 45z" />
    <glyph glyph-name="middot" unicode="&#xb7;" horiz-adv-x="281" 
d="M227 347c0 -48 -39 -84 -87 -84s-86 36 -86 84s38 83 86 83s87 -36 87 -83z" />
    <glyph glyph-name="cedilla" unicode="&#xb8;" horiz-adv-x="531" 
d="M240 -124c7 -17 20 -24 39 -19c18 8 23 22 15 42l-47 128h65l50 -93c7 -11 10 -27 10 -49c0 -28 -11 -52 -32 -72c-21 -21 -46 -31 -75 -31c-40 0 -78 25 -95 65c-6 14 -9 34 -8 59l77 -4c-1 -9 -1 -17 1 -26z" />
    <glyph glyph-name="onesuperior" unicode="&#xb9;" horiz-adv-x="215" 
d="M86 434v273l-65 -27v70l145 69v-385h-80z" />
    <glyph glyph-name="ordmasculine" unicode="&#xba;" horiz-adv-x="454" 
d="M223 316c-48 0 -89 16 -123 48c-33 33 -50 75 -50 127c0 51 17 92 50 123c33 32 74 48 123 48s90 -16 123 -48c34 -31 51 -72 51 -123c0 -52 -17 -94 -51 -127c-33 -32 -74 -48 -123 -48zM320 491c0 56 -42 95 -97 95s-97 -39 -97 -95c0 -59 42 -99 97 -99s97 40 97 99z
M387 212h-315v53h315v-53z" />
    <glyph glyph-name="guillemotright" unicode="&#xbb;" horiz-adv-x="505" 
d="M328 440l138 -207l-138 -207h-108l138 207l-138 207h108zM151 440l138 -207l-138 -207h-108l138 207l-138 207h108z" />
    <glyph glyph-name="onequarter" unicode="&#xbc;" horiz-adv-x="783" 
d="M746 85h-48v-85h-81v85h-182l179 295h84v-227h48v-68zM617 272l-72 -119h72v119zM104 275v273l-65 -27v70l145 69v-385h-80zM545 668h82l-451 -678h-83z" />
    <glyph glyph-name="onehalf" unicode="&#xbd;" horiz-adv-x="791" 
d="M493 0v43l156 185c13 15 20 30 20 44c0 21 -19 38 -48 38c-28 0 -50 -21 -54 -53l-74 13c12 72 61 117 133 117c34 0 63 -11 87 -33c25 -21 37 -49 37 -82c0 -34 -13 -66 -40 -96l-88 -100h118v-76h-247zM104 275v273l-65 -27v70l145 69v-385h-80zM539 668h82l-451 -678
h-83z" />
    <glyph glyph-name="threequarters" unicode="&#xbe;" horiz-adv-x="830" 
d="M124 566l-64 40c23 36 67 59 118 56c65 -4 115 -51 112 -106c0 -32 -16 -57 -49 -75c41 -15 69 -62 65 -103c-3 -33 -19 -60 -48 -81s-63 -30 -101 -27c-52 4 -100 36 -121 80l70 35c12 -21 31 -34 57 -37c28 -1 52 19 55 40c0 15 -1 24 -3 29c-7 16 -24 24 -49 23h-40
v69h40c25 0 38 14 38 42c0 17 -15 37 -39 37c-17 0 -31 -7 -41 -22zM792 85h-48v-85h-81v85h-182l179 295h84v-227h48v-68zM663 272l-72 -119h72v119zM609 668h82l-451 -678h-83z" />
    <glyph glyph-name="questiondown" unicode="&#xbf;" horiz-adv-x="487" 
d="M218 237l2 22h136l2 -22c0 -26 0 -46 -1 -59s-3 -27 -7 -44c-10 -47 -37 -65 -101 -98l-40 -17c-32 -17 -37 -30 -37 -55c0 -31 30 -54 71 -54c43 0 71 28 71 69h140c0 -63 -19 -114 -58 -152s-90 -57 -153 -57s-114 18 -153 53s-58 83 -58 142c0 95 54 164 134 189
c40 12 52 34 52 83zM199 393c0 48 39 84 87 84s86 -36 86 -84s-38 -83 -86 -83s-87 36 -87 83z" />
    <glyph glyph-name="Agrave" unicode="&#xc0;" horiz-adv-x="659" 
d="M329 530l-70 -240h143zM510 0l-61 163h-238l-61 -163h-156l256 689h159l255 -689h-154zM303 761l-148 168h138l110 -168h-100z" />
    <glyph glyph-name="Aacute" unicode="&#xc1;" horiz-adv-x="659" 
d="M329 530l-70 -240h143zM510 0l-61 163h-238l-61 -163h-156l256 689h159l255 -689h-154zM261 761l110 168h138l-148 -168h-100z" />
    <glyph glyph-name="Acircumflex" unicode="&#xc2;" horiz-adv-x="659" 
d="M329 530l-70 -240h143zM510 0l-61 163h-238l-61 -163h-156l256 689h159l255 -689h-154zM150 765l109 168h138l110 -168h-100l-79 89l-78 -89h-100z" />
    <glyph glyph-name="Atilde" unicode="&#xc3;" horiz-adv-x="659" 
d="M329 530l-70 -240h143zM510 0l-61 163h-238l-61 -163h-156l256 689h159l255 -689h-154zM285 828c-11 0 -25 -15 -26 -43h-75c4 89 52 130 101 130c15 0 32 -7 50 -21c18 -13 30 -20 37 -20c11 0 25 13 26 41h75c-4 -88 -52 -128 -101 -128c-14 0 -31 7 -50 20
c-19 14 -31 21 -37 21z" />
    <glyph glyph-name="Adieresis" unicode="&#xc4;" horiz-adv-x="659" 
d="M329 530l-70 -240h143zM510 0l-61 163h-238l-61 -163h-156l256 689h159l255 -689h-154zM156 860c0 37 33 68 73 68c39 0 71 -31 71 -68c0 -39 -32 -69 -71 -69c-40 0 -73 30 -73 69zM333 860c0 37 33 68 73 68c39 0 71 -31 71 -68c0 -39 -32 -69 -71 -69
c-40 0 -73 30 -73 69z" />
    <glyph glyph-name="Aring" unicode="&#xc5;" horiz-adv-x="659" 
d="M208 881c0 35 12 64 35 87c23 24 52 36 85 36c34 0 63 -12 86 -36c24 -23 36 -52 36 -87c0 -33 -12 -62 -36 -85c-23 -23 -52 -35 -86 -35c-33 0 -62 12 -85 35s-35 52 -35 85zM273 881c0 -31 24 -55 55 -55c32 0 57 24 57 55c0 33 -25 58 -57 58c-31 0 -55 -25 -55 -58z
M329 530l-70 -240h143zM510 0l-61 163h-238l-61 -163h-156l256 689h159l255 -689h-154z" />
    <glyph glyph-name="AE" unicode="&#xc6;" horiz-adv-x="934" 
d="M-21 0l435 689h461v-129h-290v-157h254v-127h-254v-147h299v-129h-445v1l-1 -1v158h-184l-100 -158h-175zM438 299v194l-101 -194h101z" />
    <glyph glyph-name="Ccedilla" unicode="&#xc7;" horiz-adv-x="701" 
d="M331 -124c7 -17 20 -24 39 -19c18 8 23 22 15 42l-34 93c-89 9 -163 46 -222 113c-58 67 -87 147 -87 238c0 99 33 182 99 251c67 69 149 103 247 103c120 0 226 -57 287 -146l-119 -82c-41 60 -97 90 -168 90c-57 0 -104 -21 -142 -63c-38 -41 -57 -92 -57 -153
c0 -60 19 -111 57 -153c38 -41 85 -62 142 -62c71 0 133 38 172 95l118 -82c-56 -84 -148 -140 -256 -149l31 -58c7 -13 10 -29 10 -49c0 -28 -11 -52 -32 -72c-21 -21 -46 -31 -75 -31c-40 0 -78 25 -95 65c-6 14 -9 34 -8 59l77 -4c-1 -9 -1 -17 1 -26z" />
    <glyph glyph-name="Egrave" unicode="&#xc8;" horiz-adv-x="576" 
d="M526 0h-445v689h436v-129h-290v-157h254v-127h-254v-147h299v-129zM282 761l-148 168h138l110 -168h-100z" />
    <glyph glyph-name="Eacute" unicode="&#xc9;" horiz-adv-x="576" 
d="M81 689h436v-129h-290v-157h254v-127h-254v-147h299v-129h-445v689zM213 761l110 168h138l-148 -168h-100z" />
    <glyph glyph-name="Ecircumflex" unicode="&#xca;" horiz-adv-x="576" 
d="M526 0h-445v689h436v-129h-290v-157h254v-127h-254v-147h299v-129zM105 765l109 168h138l110 -168h-100l-79 89l-78 -89h-100z" />
    <glyph glyph-name="Edieresis" unicode="&#xcb;" horiz-adv-x="576" 
d="M81 689h436v-129h-290v-157h254v-127h-254v-147h299v-129h-445v689zM123 860c0 37 33 68 73 68c39 0 71 -31 71 -68c0 -39 -32 -69 -71 -69c-40 0 -73 30 -73 69zM300 860c0 37 33 68 73 68c39 0 71 -31 71 -68c0 -39 -32 -69 -71 -69c-40 0 -73 30 -73 69z" />
    <glyph glyph-name="Igrave" unicode="&#xcc;" horiz-adv-x="308" 
d="M126 761l-148 168h138l110 -168h-100zM81 0v689h146v-689h-146z" />
    <glyph glyph-name="Iacute" unicode="&#xcd;" horiz-adv-x="308" 
d="M81 0v689h146v-689h-146zM80 761l110 168h138l-148 -168h-100z" />
    <glyph glyph-name="Icircumflex" unicode="&#xce;" horiz-adv-x="308" 
d="M-24 765l109 168h138l110 -168h-100l-79 89l-78 -89h-100zM81 0v689h146v-689h-146z" />
    <glyph glyph-name="Idieresis" unicode="&#xcf;" horiz-adv-x="308" 
d="M-6 860c0 37 33 68 73 68c39 0 71 -31 71 -68c0 -39 -32 -69 -71 -69c-40 0 -73 30 -73 69zM171 860c0 37 33 68 73 68c39 0 71 -31 71 -68c0 -39 -32 -69 -71 -69c-40 0 -73 30 -73 69zM81 0v689h146v-689h-146z" />
    <glyph glyph-name="Eth" unicode="&#xd0;" horiz-adv-x="722" 
d="M96 284h-94v98h94v307h270c97 0 173 -33 228 -98s83 -147 83 -248s-28 -183 -83 -247s-131 -96 -228 -96h-270v284zM365 284h-123v-151h124c53 0 93 20 122 60s43 90 43 150c0 61 -14 111 -43 152s-69 61 -122 61h-124v-174h123v-98z" />
    <glyph glyph-name="Ntilde" unicode="&#xd1;" horiz-adv-x="679" 
d="M296 828c-11 0 -25 -15 -26 -43h-75c4 89 52 130 101 130c15 0 32 -7 50 -21c18 -13 30 -20 37 -20c11 0 25 13 26 41h75c-4 -88 -52 -128 -101 -128c-14 0 -30 7 -49 20c-19 14 -31 21 -38 21zM451 689h147v-689h-131l-240 417v-417h-146v689h134l236 -412v412z" />
    <glyph glyph-name="Ograve" unicode="&#xd2;" horiz-adv-x="781" 
d="M594 343c0 58 -20 107 -60 148c-39 41 -87 61 -144 61s-105 -20 -144 -61s-59 -90 -59 -148s20 -107 59 -148c39 -40 87 -60 144 -60s105 20 144 61c40 41 60 90 60 147zM41 343c0 98 34 181 101 250c68 69 151 104 248 104c98 0 181 -35 248 -104
c68 -69 102 -152 102 -250c0 -97 -34 -181 -102 -250s-151 -103 -248 -103s-180 34 -248 103c-67 69 -101 153 -101 250zM361 761l-148 168h138l110 -168h-100z" />
    <glyph glyph-name="Oacute" unicode="&#xd3;" horiz-adv-x="781" 
d="M594 343c0 58 -20 107 -60 148c-39 41 -87 61 -144 61s-105 -20 -144 -61s-59 -90 -59 -148s20 -107 59 -148c39 -40 87 -60 144 -60s105 20 144 61c40 41 60 90 60 147zM41 343c0 98 34 181 101 250c68 69 151 104 248 104c98 0 181 -35 248 -104
c68 -69 102 -152 102 -250c0 -97 -34 -181 -102 -250s-151 -103 -248 -103s-180 34 -248 103c-67 69 -101 153 -101 250zM325 761l110 168h138l-148 -168h-100z" />
    <glyph glyph-name="Ocircumflex" unicode="&#xd4;" horiz-adv-x="781" 
d="M594 343c0 58 -20 107 -60 148c-39 41 -87 61 -144 61s-105 -20 -144 -61s-59 -90 -59 -148s20 -107 59 -148c39 -40 87 -60 144 -60s105 20 144 61c40 41 60 90 60 147zM41 343c0 98 34 181 101 250c68 69 151 104 248 104c98 0 181 -35 248 -104
c68 -69 102 -152 102 -250c0 -97 -34 -181 -102 -250s-151 -103 -248 -103s-180 34 -248 103c-67 69 -101 153 -101 250zM212 765l109 168h138l110 -168h-100l-79 89l-78 -89h-100z" />
    <glyph glyph-name="Otilde" unicode="&#xd5;" horiz-adv-x="781" 
d="M594 343c0 58 -20 107 -60 148c-39 41 -87 61 -144 61s-105 -20 -144 -61s-59 -90 -59 -148s20 -107 59 -148c39 -40 87 -60 144 -60s105 20 144 61c40 41 60 90 60 147zM41 343c0 98 34 181 101 250c68 69 151 104 248 104c98 0 181 -35 248 -104
c68 -69 102 -152 102 -250c0 -97 -34 -181 -102 -250s-151 -103 -248 -103s-180 34 -248 103c-67 69 -101 153 -101 250zM347 828c-11 0 -25 -15 -26 -43h-75c4 89 52 130 101 130c15 0 32 -7 50 -21c18 -13 30 -20 37 -20c11 0 25 13 26 41h75c-4 -88 -52 -128 -101 -128
c-15 0 -31 7 -50 20c-19 14 -31 21 -37 21z" />
    <glyph glyph-name="Odieresis" unicode="&#xd6;" horiz-adv-x="781" 
d="M594 343c0 58 -20 107 -60 148c-39 41 -87 61 -144 61s-105 -20 -144 -61s-59 -90 -59 -148s20 -107 59 -148c39 -40 87 -60 144 -60s105 20 144 61c40 41 60 90 60 147zM41 343c0 98 34 181 101 250c68 69 151 104 248 104c98 0 181 -35 248 -104
c68 -69 102 -152 102 -250c0 -97 -34 -181 -102 -250s-151 -103 -248 -103s-180 34 -248 103c-67 69 -101 153 -101 250zM230 860c0 37 33 68 73 68c39 0 71 -31 71 -68c0 -39 -32 -69 -71 -69c-40 0 -73 30 -73 69zM407 860c0 37 33 68 73 68c39 0 71 -31 71 -68
c0 -39 -32 -69 -71 -69c-40 0 -73 30 -73 69z" />
    <glyph glyph-name="multiply" unicode="&#xd7;" horiz-adv-x="491" 
d="M433 376l-117 -117l117 -116l-72 -73l-117 117l-115 -114l-72 72l115 114l-116 116l72 72l116 -116l117 117z" />
    <glyph glyph-name="Oslash" unicode="&#xd8;" horiz-adv-x="779" 
d="M171 67l-1 -1l-80 -82l-47 47l80 82c-55 66 -83 143 -83 230c0 98 34 181 101 250c68 69 151 104 248 104c85 0 160 -27 223 -81l79 81l47 -46l-80 -82c54 -66 81 -141 81 -226c0 -97 -34 -181 -102 -250s-151 -103 -248 -103c-82 0 -155 26 -218 77zM186 343
c0 -47 13 -88 39 -125l285 293c-35 27 -75 41 -121 41c-57 0 -105 -20 -144 -61s-59 -90 -59 -148zM389 135c57 0 105 20 144 61c40 41 60 90 60 147c0 44 -13 84 -38 120l-283 -291c34 -25 73 -37 117 -37z" />
    <glyph glyph-name="Ugrave" unicode="&#xd9;" horiz-adv-x="682" 
d="M461 246v443h147v-443c0 -76 -26 -138 -78 -185s-115 -71 -188 -71s-136 24 -189 71s-79 109 -79 185v443h149v-443c0 -35 12 -63 35 -85c24 -22 52 -33 84 -33s60 11 83 33c24 23 36 51 36 85zM320 761l-148 168h138l110 -168h-100z" />
    <glyph glyph-name="Uacute" unicode="&#xda;" horiz-adv-x="682" 
d="M461 246v443h147v-443c0 -76 -26 -138 -78 -185s-115 -71 -188 -71s-136 24 -189 71s-79 109 -79 185v443h149v-443c0 -35 12 -63 35 -85c24 -22 52 -33 84 -33s60 11 83 33c24 23 36 51 36 85zM261 761l110 168h138l-148 -168h-100z" />
    <glyph glyph-name="Ucircumflex" unicode="&#xdb;" horiz-adv-x="682" 
d="M461 246v443h147v-443c0 -76 -26 -138 -78 -185s-115 -71 -188 -71s-136 24 -189 71s-79 109 -79 185v443h149v-443c0 -35 12 -63 35 -85c24 -22 52 -33 84 -33s60 11 83 33c24 23 36 51 36 85zM162 765l109 168h138l110 -168h-100l-79 89l-78 -89h-100z" />
    <glyph glyph-name="Udieresis" unicode="&#xdc;" horiz-adv-x="682" 
d="M180 860c0 37 33 68 73 68c39 0 71 -31 71 -68c0 -39 -32 -69 -71 -69c-40 0 -73 30 -73 69zM357 860c0 37 33 68 73 68c39 0 71 -31 71 -68c0 -39 -32 -69 -71 -69c-40 0 -73 30 -73 69zM461 246v443h147v-443c0 -76 -26 -138 -78 -185s-115 -71 -188 -71
s-136 24 -189 71s-79 109 -79 185v443h149v-443c0 -35 12 -63 35 -85c24 -22 52 -33 84 -33s60 11 83 33c24 23 36 51 36 85z" />
    <glyph glyph-name="Yacute" unicode="&#xdd;" horiz-adv-x="651" 
d="M400 310v-310h-149v312l-266 377h174l166 -258l168 258h174zM250 761l110 168h138l-148 -168h-100z" />
    <glyph glyph-name="Thorn" unicode="&#xde;" horiz-adv-x="572" 
d="M402 349c0 63 -40 104 -85 104h-90v-203h90c45 0 85 39 85 99zM324 126h-97v-126h-146v689h146v-112h97c63 0 116 -21 159 -62s64 -95 64 -162s-21 -122 -64 -164s-96 -63 -159 -63z" />
    <glyph glyph-name="germandbls" unicode="&#xdf;" horiz-adv-x="566" 
d="M231 1l27 131c16 -3 32 -4 47 -4c56 0 93 47 93 100c0 23 -8 46 -24 67c-15 21 -41 32 -76 32h-27v121h17c33 0 52 26 52 62s-27 59 -71 59c-36 0 -67 -27 -67 -68v-501h-138v490c0 65 19 115 56 152c38 37 87 55 146 55c62 0 112 -16 151 -48s58 -71 58 -118
c0 -56 -21 -97 -63 -124c71 -35 117 -100 117 -189c0 -67 -19 -121 -58 -164c-38 -43 -93 -64 -166 -64c-25 0 -49 4 -74 11z" />
    <glyph glyph-name="agrave" unicode="&#xe0;" horiz-adv-x="612" 
d="M548 0h-138v53c-13 -20 -34 -35 -62 -46c-27 -11 -52 -16 -74 -16c-63 0 -118 22 -166 67s-72 104 -72 176s24 130 72 175s103 68 166 68c44 0 104 -17 136 -62v52h138v-467zM297 123c60 0 113 44 113 111s-53 111 -113 111c-31 0 -58 -11 -82 -32
c-23 -21 -35 -47 -35 -79s12 -59 35 -80c24 -21 51 -31 82 -31zM283 539l-148 168h138l110 -168h-100z" />
    <glyph glyph-name="aacute" unicode="&#xe1;" horiz-adv-x="612" 
d="M548 0h-138v53c-13 -20 -34 -35 -62 -46c-27 -11 -52 -16 -74 -16c-63 0 -118 22 -166 67s-72 104 -72 176s24 130 72 175s103 68 166 68c44 0 104 -17 136 -62v52h138v-467zM297 123c60 0 113 44 113 111s-53 111 -113 111c-31 0 -58 -11 -82 -32
c-23 -21 -35 -47 -35 -79s12 -59 35 -80c24 -21 51 -31 82 -31zM211 539l110 168h138l-148 -168h-100z" />
    <glyph glyph-name="acircumflex" unicode="&#xe2;" horiz-adv-x="612" 
d="M548 0h-138v53c-13 -20 -34 -35 -62 -46c-27 -11 -52 -16 -74 -16c-63 0 -118 22 -166 67s-72 104 -72 176s24 130 72 175s103 68 166 68c44 0 104 -17 136 -62v52h138v-467zM297 123c60 0 113 44 113 111s-53 111 -113 111c-31 0 -58 -11 -82 -32
c-23 -21 -35 -47 -35 -79s12 -59 35 -80c24 -21 51 -31 82 -31zM128 543l109 168h138l110 -168h-100l-79 89l-78 -89h-100z" />
    <glyph glyph-name="atilde" unicode="&#xe3;" horiz-adv-x="612" 
d="M548 0h-138v53c-13 -20 -34 -35 -62 -46c-27 -11 -52 -16 -74 -16c-63 0 -118 22 -166 67s-72 104 -72 176s24 130 72 175s103 68 166 68c44 0 104 -17 136 -62v52h138v-467zM297 123c60 0 113 44 113 111s-53 111 -113 111c-31 0 -58 -11 -82 -32
c-23 -21 -35 -47 -35 -79s12 -59 35 -80c24 -21 51 -31 82 -31zM263 606c-11 0 -25 -15 -26 -43h-75c4 89 52 130 101 130c15 0 32 -7 50 -21c18 -13 30 -20 37 -20c11 0 25 13 26 41h75c-4 -88 -52 -128 -101 -128c-15 0 -31 7 -50 20c-19 14 -31 21 -37 21z" />
    <glyph glyph-name="adieresis" unicode="&#xe4;" horiz-adv-x="612" 
d="M548 0h-138v53c-13 -20 -34 -35 -62 -46c-27 -11 -52 -16 -74 -16c-63 0 -118 22 -166 67s-72 104 -72 176s24 130 72 175s103 68 166 68c44 0 104 -17 136 -62v52h138v-467zM297 123c60 0 113 44 113 111s-53 111 -113 111c-31 0 -58 -11 -82 -32
c-23 -21 -35 -47 -35 -79s12 -59 35 -80c24 -21 51 -31 82 -31zM146 638c0 37 33 68 73 68c39 0 71 -31 71 -68c0 -39 -32 -69 -71 -69c-40 0 -73 30 -73 69zM323 638c0 37 33 68 73 68c39 0 71 -31 71 -68c0 -39 -32 -69 -71 -69c-40 0 -73 30 -73 69z" />
    <glyph glyph-name="aring" unicode="&#xe5;" horiz-adv-x="612" 
d="M548 0h-138v53c-13 -20 -34 -35 -62 -46c-27 -11 -52 -16 -74 -16c-63 0 -118 22 -166 67s-72 104 -72 176s24 130 72 175s103 68 166 68c44 0 104 -17 136 -62v52h138v-467zM297 123c60 0 113 44 113 111s-53 111 -113 111c-31 0 -58 -11 -82 -32
c-23 -21 -35 -47 -35 -79s12 -59 35 -80c24 -21 51 -31 82 -31zM186 659c0 35 12 64 35 87c23 24 52 36 85 36c34 0 63 -12 86 -36c24 -23 36 -52 36 -87c0 -33 -12 -62 -36 -85c-23 -23 -52 -35 -86 -35c-33 0 -62 12 -85 35s-35 52 -35 85zM251 659c0 -31 24 -55 55 -55
c32 0 57 24 57 55c0 33 -25 58 -57 58c-31 0 -55 -25 -55 -58z" />
    <glyph glyph-name="ae" unicode="&#xe6;" horiz-adv-x="970" 
d="M812 154l101 -69c-43 -63 -114 -95 -213 -95c-57 0 -108 17 -152 50v-40h-138v53c-13 -20 -34 -35 -62 -46c-27 -11 -52 -16 -74 -16c-63 0 -118 22 -166 67s-72 104 -72 176s24 130 72 175s103 68 166 68c44 0 104 -17 136 -62v52h138v-39c44 33 95 49 152 49
c68 0 125 -23 170 -69c46 -45 69 -104 69 -177c0 -13 -1 -27 -2 -43h-342c7 -51 60 -78 115 -78c45 0 79 15 102 44zM297 123c60 0 113 44 113 111s-53 111 -113 111c-31 0 -58 -11 -82 -32c-23 -21 -35 -47 -35 -79s12 -59 35 -80c24 -21 51 -31 82 -31zM597 275h202
c-14 106 -180 107 -202 0z" />
    <glyph glyph-name="ccedilla" unicode="&#xe7;" horiz-adv-x="525" 
d="M322 -8l31 -58c7 -12 10 -28 10 -49c0 -28 -11 -52 -32 -72c-21 -21 -46 -31 -75 -31c-40 0 -78 25 -95 65c-6 14 -9 34 -8 59l77 -4c-1 -9 -1 -17 1 -26c7 -17 20 -24 39 -19c17 7 22 21 15 42l-35 94c-61 9 -112 35 -153 79s-61 98 -61 163c0 71 25 129 75 174
s110 68 179 68c83 0 158 -36 203 -99l-113 -81c-20 31 -50 47 -90 47c-31 0 -58 -10 -81 -31c-23 -20 -35 -46 -35 -78c0 -33 12 -60 35 -81s50 -31 81 -31c40 0 70 16 90 47l113 -80c-41 -57 -98 -90 -171 -98z" />
    <glyph glyph-name="egrave" unicode="&#xe8;" horiz-adv-x="550" 
d="M392 154l101 -69c-43 -63 -114 -95 -213 -95c-69 0 -127 23 -174 68c-47 46 -70 105 -70 177s23 130 70 175s105 67 174 67c68 0 125 -23 170 -69c46 -45 69 -104 69 -177c0 -13 -1 -27 -2 -43h-342c7 -51 60 -78 115 -78c45 0 79 15 102 44zM177 275h202
c-14 106 -180 107 -202 0zM248 539l-148 168h138l110 -168h-100z" />
    <glyph glyph-name="eacute" unicode="&#xe9;" horiz-adv-x="550" 
d="M392 154l101 -69c-43 -63 -114 -95 -213 -95c-69 0 -127 23 -174 68c-47 46 -70 105 -70 177s23 130 70 175s105 67 174 67c68 0 125 -23 170 -69c46 -45 69 -104 69 -177c0 -13 -1 -27 -2 -43h-342c7 -51 60 -78 115 -78c45 0 79 15 102 44zM177 275h202
c-14 106 -180 107 -202 0zM213 539l110 168h138l-148 -168h-100z" />
    <glyph glyph-name="ecircumflex" unicode="&#xea;" horiz-adv-x="550" 
d="M392 154l101 -69c-43 -63 -114 -95 -213 -95c-69 0 -127 23 -174 68c-47 46 -70 105 -70 177s23 130 70 175s105 67 174 67c68 0 125 -23 170 -69c46 -45 69 -104 69 -177c0 -13 -1 -27 -2 -43h-342c7 -51 60 -78 115 -78c45 0 79 15 102 44zM177 275h202
c-14 106 -180 107 -202 0zM99 543l109 168h138l110 -168h-100l-79 89l-78 -89h-100z" />
    <glyph glyph-name="edieresis" unicode="&#xeb;" horiz-adv-x="550" 
d="M392 154l101 -69c-43 -63 -114 -95 -213 -95c-69 0 -127 23 -174 68c-47 46 -70 105 -70 177s23 130 70 175s105 67 174 67c68 0 125 -23 170 -69c46 -45 69 -104 69 -177c0 -13 -1 -27 -2 -43h-342c7 -51 60 -78 115 -78c45 0 79 15 102 44zM177 275h202
c-14 106 -180 107 -202 0zM117 638c0 37 33 68 73 68c39 0 71 -31 71 -68c0 -39 -32 -69 -71 -69c-40 0 -73 30 -73 69zM294 638c0 37 33 68 73 68c39 0 71 -31 71 -68c0 -39 -32 -69 -71 -69c-40 0 -73 30 -73 69z" />
    <glyph glyph-name="igrave" unicode="&#xec;" horiz-adv-x="265" 
d="M64 0v467h137v-467h-137zM103 539l-148 168h138l110 -168h-100z" />
    <glyph glyph-name="iacute" unicode="&#xed;" horiz-adv-x="265" 
d="M201 467v-467h-137v467h137zM64 539l110 168h138l-148 -168h-100z" />
    <glyph glyph-name="icircumflex" unicode="&#xee;" horiz-adv-x="265" 
d="M64 0v467h137v-467h-137zM-46 543l109 168h138l110 -168h-100l-79 89l-78 -89h-100z" />
    <glyph glyph-name="idieresis" unicode="&#xef;" horiz-adv-x="265" 
d="M201 467v-467h-137v467h137zM-30 638c0 37 33 68 73 68c39 0 71 -31 71 -68c0 -39 -32 -69 -71 -69c-40 0 -73 30 -73 69zM147 638c0 37 33 68 73 68c39 0 71 -31 71 -68c0 -39 -32 -69 -71 -69c-40 0 -73 30 -73 69z" />
    <glyph glyph-name="eth" unicode="&#xf0;" horiz-adv-x="559" 
d="M415 625l-88 -40l149 -205c31 -41 46 -90 46 -145c0 -72 -24 -131 -71 -176s-104 -67 -172 -67s-125 22 -172 67s-70 104 -70 176c0 71 24 129 72 173s106 64 175 59l-58 73l-85 -39l-29 49l81 36l-74 103h133l42 -58l86 39zM279 128c60 0 106 43 106 107
c0 61 -46 104 -106 104c-59 0 -105 -43 -105 -104c0 -64 46 -107 105 -107z" />
    <glyph glyph-name="ntilde" unicode="&#xf1;" 
d="M203 247v-247h-139v467h139v-68c25 47 80 78 135 78c108 0 171 -67 171 -198v-279h-139v249c0 60 -32 93 -81 93c-57 0 -86 -32 -86 -95zM240 606c-11 0 -25 -15 -26 -43h-75c4 89 52 130 101 130c15 0 32 -7 50 -21c18 -13 30 -20 37 -20c11 0 25 13 26 41h75
c-4 -88 -52 -128 -101 -128c-14 0 -31 7 -50 20c-19 14 -31 21 -37 21z" />
    <glyph glyph-name="ograve" unicode="&#xf2;" horiz-adv-x="557" 
d="M278 128c60 0 106 43 106 107c0 61 -46 104 -106 104c-59 0 -105 -43 -105 -104c0 -64 46 -107 105 -107zM36 235c0 71 23 129 70 173c47 45 104 67 172 67s125 -22 172 -67c47 -44 71 -102 71 -173c0 -72 -24 -131 -71 -176s-104 -67 -172 -67s-125 22 -172 67
s-70 104 -70 176zM226 539l-148 168h138l110 -168h-100z" />
    <glyph glyph-name="oacute" unicode="&#xf3;" horiz-adv-x="557" 
d="M278 128c60 0 106 43 106 107c0 61 -46 104 -106 104c-59 0 -105 -43 -105 -104c0 -64 46 -107 105 -107zM521 235c0 -72 -24 -131 -71 -176s-104 -67 -172 -67s-125 22 -172 67s-70 104 -70 176c0 71 23 129 70 173c47 45 104 67 172 67s125 -22 172 -67
c47 -44 71 -102 71 -173zM219 539l110 168h138l-148 -168h-100z" />
    <glyph glyph-name="ocircumflex" unicode="&#xf4;" horiz-adv-x="557" 
d="M278 128c60 0 106 43 106 107c0 61 -46 104 -106 104c-59 0 -105 -43 -105 -104c0 -64 46 -107 105 -107zM36 235c0 71 23 129 70 173c47 45 104 67 172 67s125 -22 172 -67c47 -44 71 -102 71 -173c0 -72 -24 -131 -71 -176s-104 -67 -172 -67s-125 22 -172 67
s-70 104 -70 176zM100 543l109 168h138l110 -168h-100l-79 89l-78 -89h-100z" />
    <glyph glyph-name="otilde" unicode="&#xf5;" horiz-adv-x="557" 
d="M278 128c60 0 106 43 106 107c0 61 -46 104 -106 104c-59 0 -105 -43 -105 -104c0 -64 46 -107 105 -107zM36 235c0 71 23 129 70 173c47 45 104 67 172 67s125 -22 172 -67c47 -44 71 -102 71 -173c0 -72 -24 -131 -71 -176s-104 -67 -172 -67s-125 22 -172 67
s-70 104 -70 176zM235 606c-11 0 -25 -15 -26 -43h-75c4 89 52 130 101 130c15 0 32 -7 50 -21c18 -13 30 -20 37 -20c11 0 25 13 26 41h75c-4 -88 -52 -128 -101 -128c-15 0 -31 7 -50 20c-19 14 -31 21 -37 21z" />
    <glyph glyph-name="odieresis" unicode="&#xf6;" horiz-adv-x="557" 
d="M278 128c60 0 106 43 106 107c0 61 -46 104 -106 104c-59 0 -105 -43 -105 -104c0 -64 46 -107 105 -107zM521 235c0 -72 -24 -131 -71 -176s-104 -67 -172 -67s-125 22 -172 67s-70 104 -70 176c0 71 23 129 70 173c47 45 104 67 172 67s125 -22 172 -67
c47 -44 71 -102 71 -173zM118 638c0 37 33 68 73 68c39 0 71 -31 71 -68c0 -39 -32 -69 -71 -69c-40 0 -73 30 -73 69zM295 638c0 37 33 68 73 68c39 0 71 -31 71 -68c0 -39 -32 -69 -71 -69c-40 0 -73 30 -73 69z" />
    <glyph glyph-name="divide" unicode="&#xf7;" horiz-adv-x="583" 
d="M371 65c0 -44 -35 -76 -79 -76s-78 32 -78 76s34 75 78 75s79 -32 79 -75zM214 424c0 43 34 75 78 75s79 -32 79 -75c0 -44 -35 -76 -79 -76s-78 32 -78 76zM52 195v96h479v-96h-479z" />
    <glyph glyph-name="oslash" unicode="&#xf8;" horiz-adv-x="557" 
d="M278 -8c-53 0 -100 14 -141 42l-58 -59l-47 47l56 58c-35 42 -52 94 -52 155c0 72 23 130 70 175s104 67 172 67c55 0 105 -17 150 -50l52 54l47 -46l-53 -54c31 -42 47 -91 47 -146c0 -72 -24 -131 -71 -176s-104 -67 -172 -67zM278 341c-59 0 -105 -45 -105 -106
c0 -21 4 -39 13 -54l143 146c-17 9 -34 14 -51 14zM278 128c60 0 106 43 106 107c0 14 -3 29 -9 44l-139 -143c11 -5 25 -8 42 -8z" />
    <glyph glyph-name="ugrave" unicode="&#xf9;" 
d="M365 220v247h139v-467h-139v64c-24 -45 -74 -74 -121 -74c-109 0 -185 70 -185 198v279h139v-249c0 -67 42 -93 83 -93c48 0 84 30 84 95zM279 539l-148 168h138l110 -168h-100z" />
    <glyph glyph-name="uacute" unicode="&#xfa;" 
d="M365 220v247h139v-467h-139v64c-24 -45 -74 -74 -121 -74c-109 0 -185 70 -185 198v279h139v-249c0 -67 42 -93 83 -93c48 0 84 30 84 95zM194 539l110 168h138l-148 -168h-100z" />
    <glyph glyph-name="ucircumflex" unicode="&#xfb;" 
d="M365 220v247h139v-467h-139v64c-24 -45 -74 -74 -121 -74c-109 0 -185 70 -185 198v279h139v-249c0 -67 42 -93 83 -93c48 0 84 30 84 95zM102 543l109 168h138l110 -168h-100l-79 89l-78 -89h-100z" />
    <glyph glyph-name="udieresis" unicode="&#xfc;" 
d="M365 220v247h139v-467h-139v64c-24 -45 -74 -74 -121 -74c-109 0 -185 70 -185 198v279h139v-249c0 -67 42 -93 83 -93c48 0 84 30 84 95zM115 638c0 37 33 68 73 68c39 0 71 -31 71 -68c0 -39 -32 -69 -71 -69c-40 0 -73 30 -73 69zM292 638c0 37 33 68 73 68
c39 0 71 -31 71 -68c0 -39 -32 -69 -71 -69c-40 0 -73 30 -73 69z" />
    <glyph glyph-name="yacute" unicode="&#xfd;" horiz-adv-x="510" 
d="M218 -229h-147l112 277l-180 419h148l103 -265l104 265h148zM167 539l110 168h138l-148 -168h-100z" />
    <glyph glyph-name="thorn" unicode="&#xfe;" horiz-adv-x="602" 
d="M205 235c0 -65 48 -113 108 -113s108 45 108 113c0 65 -48 111 -108 111s-108 -43 -108 -111zM202 58v-287h-138v950h138v-311c23 41 77 67 137 67c62 0 115 -23 159 -68c45 -45 67 -104 67 -177c0 -71 -22 -130 -67 -175c-44 -45 -97 -67 -159 -67
c-60 0 -114 25 -137 68z" />
    <glyph glyph-name="ydieresis" unicode="&#xff;" horiz-adv-x="510" 
d="M218 -229h-147l112 277l-180 419h148l103 -265l104 265h148zM97 638c0 37 33 68 73 68c39 0 71 -31 71 -68c0 -39 -32 -69 -71 -69c-40 0 -73 30 -73 69zM274 638c0 37 33 68 73 68c39 0 71 -31 71 -68c0 -39 -32 -69 -71 -69c-40 0 -73 30 -73 69z" />
    <glyph glyph-name="Amacron" unicode="&#x100;" horiz-adv-x="659" 
d="M329 530l-70 -240h143zM510 0l-61 163h-238l-61 -163h-156l256 689h159l255 -689h-154zM468 809h-278v85h278v-85z" />
    <glyph glyph-name="amacron" unicode="&#x101;" horiz-adv-x="612" 
d="M548 0h-138v53c-13 -20 -34 -35 -62 -46c-27 -11 -52 -16 -74 -16c-63 0 -118 22 -166 67s-72 104 -72 176s24 130 72 175s103 68 166 68c44 0 104 -17 136 -62v52h138v-467zM297 123c60 0 113 44 113 111s-53 111 -113 111c-31 0 -58 -11 -82 -32
c-23 -21 -35 -47 -35 -79s12 -59 35 -80c24 -21 51 -31 82 -31zM446 587h-278v85h278v-85z" />
    <glyph glyph-name="Abreve" unicode="&#x102;" horiz-adv-x="659" 
d="M329 530l-70 -240h143zM510 0l-61 163h-238l-61 -163h-156l256 689h159l255 -689h-154zM194 911h85c0 -35 16 -53 49 -53c32 0 48 18 48 53h87c0 -79 -55 -131 -135 -131c-87 0 -134 59 -134 131z" />
    <glyph glyph-name="abreve" unicode="&#x103;" horiz-adv-x="612" 
d="M548 0h-138v53c-13 -20 -34 -35 -62 -46c-27 -11 -52 -16 -74 -16c-63 0 -118 22 -166 67s-72 104 -72 176s24 130 72 175s103 68 166 68c44 0 104 -17 136 -62v52h138v-467zM297 123c60 0 113 44 113 111s-53 111 -113 111c-31 0 -58 -11 -82 -32
c-23 -21 -35 -47 -35 -79s12 -59 35 -80c24 -21 51 -31 82 -31zM172 689h85c0 -35 16 -53 49 -53c32 0 48 18 48 53h87c0 -79 -55 -131 -135 -131c-87 0 -134 59 -134 131z" />
    <glyph glyph-name="Aogonek" unicode="&#x104;" horiz-adv-x="659" 
d="M409 689l255 -689h-84l-37 -101c-7 -21 -2 -35 15 -42c19 -5 32 2 39 19l1 26l77 4c1 -25 -2 -45 -8 -59c-17 -40 -55 -65 -95 -65c-29 0 -55 10 -76 31c-21 20 -31 44 -31 72c0 20 3 36 10 49l35 66l-61 163h-238l-61 -163h-156l256 689h159zM329 530l-70 -240h143z" />
    <glyph glyph-name="aogonek" unicode="&#x105;" horiz-adv-x="612" 
d="M297 123c60 0 113 44 113 111s-53 111 -113 111c-31 0 -58 -11 -82 -32c-23 -21 -35 -47 -35 -79s12 -59 35 -80c24 -21 51 -31 82 -31zM548 467v-467h-68l-37 -101c-7 -21 -2 -35 15 -42c19 -5 32 2 39 19l1 26l77 4c1 -25 -2 -45 -8 -59c-17 -40 -55 -65 -95 -65
c-29 0 -55 10 -76 31c-21 20 -31 44 -31 72c0 20 3 36 10 49l35 66v53c-13 -20 -34 -35 -62 -46c-27 -11 -52 -16 -74 -16c-63 0 -118 22 -166 67s-72 104 -72 176s24 130 72 175s103 68 166 68c44 0 104 -17 136 -62v52h138z" />
    <glyph glyph-name="Cacute" unicode="&#x106;" horiz-adv-x="699" 
d="M559 223l118 -82c-61 -93 -167 -151 -290 -151c-98 0 -180 34 -247 103c-66 69 -99 152 -99 250c0 99 33 182 99 251c67 69 149 103 247 103c120 0 226 -57 287 -146l-119 -82c-41 60 -97 90 -168 90c-57 0 -104 -21 -142 -63c-38 -41 -57 -92 -57 -153
c0 -60 19 -111 57 -153c38 -41 85 -62 142 -62c71 0 133 38 172 95zM331 761l110 168h138l-148 -168h-100z" />
    <glyph glyph-name="cacute" unicode="&#x107;" horiz-adv-x="525" 
d="M290 477c83 0 158 -36 203 -99l-113 -81c-20 31 -50 47 -90 47c-31 0 -58 -10 -81 -31c-23 -20 -35 -46 -35 -78c0 -33 12 -60 35 -81s50 -31 81 -31c40 0 70 16 90 47l113 -80c-44 -63 -119 -100 -203 -100c-69 0 -129 23 -179 69s-75 105 -75 176s25 129 75 174
s110 68 179 68zM212 539l110 168h138l-148 -168h-100z" />
    <glyph glyph-name="Ccircumflex" unicode="&#x108;" horiz-adv-x="699" 
d="M559 223l118 -82c-61 -93 -167 -151 -290 -151c-98 0 -180 34 -247 103c-66 69 -99 152 -99 250c0 99 33 182 99 251c67 69 149 103 247 103c120 0 226 -57 287 -146l-119 -82c-41 60 -97 90 -168 90c-57 0 -104 -21 -142 -63c-38 -41 -57 -92 -57 -153
c0 -60 19 -111 57 -153c38 -41 85 -62 142 -62c71 0 133 38 172 95zM205 765l109 168h138l110 -168h-100l-79 89l-78 -89h-100z" />
    <glyph glyph-name="ccircumflex" unicode="&#x109;" horiz-adv-x="525" 
d="M290 477c83 0 158 -36 203 -99l-113 -81c-20 31 -50 47 -90 47c-31 0 -58 -10 -81 -31c-23 -20 -35 -46 -35 -78c0 -33 12 -60 35 -81s50 -31 81 -31c40 0 70 16 90 47l113 -80c-44 -63 -119 -100 -203 -100c-69 0 -129 23 -179 69s-75 105 -75 176s25 129 75 174
s110 68 179 68zM104 543l109 168h138l110 -168h-100l-79 89l-78 -89h-100z" />
    <glyph glyph-name="Cdotaccent" unicode="&#x10a;" horiz-adv-x="699" 
d="M559 223l118 -82c-61 -93 -167 -151 -290 -151c-98 0 -180 34 -247 103c-66 69 -99 152 -99 250c0 99 33 182 99 251c67 69 149 103 247 103c120 0 226 -57 287 -146l-119 -82c-41 60 -97 90 -168 90c-57 0 -104 -21 -142 -63c-38 -41 -57 -92 -57 -153
c0 -60 19 -111 57 -153c38 -41 85 -62 142 -62c71 0 133 38 172 95zM306 867c0 41 34 74 77 74s77 -33 77 -74c0 -44 -33 -75 -77 -75s-77 31 -77 75z" />
    <glyph glyph-name="cdotaccent" unicode="&#x10b;" horiz-adv-x="525" 
d="M290 477c83 0 158 -36 203 -99l-113 -81c-20 31 -50 47 -90 47c-31 0 -58 -10 -81 -31c-23 -20 -35 -46 -35 -78c0 -33 12 -60 35 -81s50 -31 81 -31c40 0 70 16 90 47l113 -80c-44 -63 -119 -100 -203 -100c-69 0 -129 23 -179 69s-75 105 -75 176s25 129 75 174
s110 68 179 68zM202 645c0 41 34 74 77 74s77 -33 77 -74c0 -44 -33 -75 -77 -75s-77 31 -77 75z" />
    <glyph glyph-name="Ccaron" unicode="&#x10c;" horiz-adv-x="699" 
d="M559 223l118 -82c-61 -93 -167 -151 -290 -151c-98 0 -180 34 -247 103c-66 69 -99 152 -99 250c0 99 33 182 99 251c67 69 149 103 247 103c120 0 226 -57 287 -146l-119 -82c-41 60 -97 90 -168 90c-57 0 -104 -21 -142 -63c-38 -41 -57 -92 -57 -153
c0 -60 19 -111 57 -153c38 -41 85 -62 142 -62c71 0 133 38 172 95zM554 928l-110 -168h-138l-109 168h100l78 -89l79 89h100z" />
    <glyph glyph-name="ccaron" unicode="&#x10d;" horiz-adv-x="525" 
d="M290 477c83 0 158 -36 203 -99l-113 -81c-20 31 -50 47 -90 47c-31 0 -58 -10 -81 -31c-23 -20 -35 -46 -35 -78c0 -33 12 -60 35 -81s50 -31 81 -31c40 0 70 16 90 47l113 -80c-44 -63 -119 -100 -203 -100c-69 0 -129 23 -179 69s-75 105 -75 176s25 129 75 174
s110 68 179 68zM454 706l-110 -168h-138l-109 168h100l78 -89l79 89h100z" />
    <glyph glyph-name="Dcaron" unicode="&#x10e;" horiz-adv-x="707" 
d="M351 556h-124v-423h124c53 0 93 20 122 60s43 90 43 150c0 61 -14 111 -43 152s-69 61 -122 61zM351 0h-270v689h270c97 0 173 -33 228 -98s83 -147 83 -248s-28 -183 -83 -247s-131 -96 -228 -96zM520 928l-110 -168h-138l-109 168h100l78 -89l79 89h100z" />
    <glyph glyph-name="dcaron" unicode="&#x10f;" horiz-adv-x="635" 
d="M397 235c0 68 -48 111 -108 111s-108 -46 -108 -111c0 -68 48 -113 108 -113s108 48 108 113zM538 721v-721h-138v58c-23 -43 -77 -68 -137 -68c-62 0 -115 22 -160 67c-44 45 -66 104 -66 175c0 73 22 132 66 177c45 45 98 68 160 68c60 0 114 -26 137 -67v311h138z
M636 458l-68 35c22 31 37 60 46 88s13 64 12 108h117c-8 -101 -44 -178 -107 -231z" />
    <glyph glyph-name="Dcroat" unicode="&#x110;" horiz-adv-x="722" 
d="M96 284h-94v98h94v307h270c97 0 173 -33 228 -98s83 -147 83 -248s-28 -183 -83 -247s-131 -96 -228 -96h-270v284zM365 284h-123v-151h124c53 0 93 20 122 60s43 90 43 150c0 61 -14 111 -43 152s-69 61 -122 61h-124v-174h123v-98z" />
    <glyph glyph-name="dslash" unicode="&#x111;" horiz-adv-x="602" 
d="M400 557h-149v86h149v78h138v-78h76v-86h-76v-557h-138v58c-23 -43 -77 -68 -137 -68c-62 0 -115 22 -160 67c-44 45 -66 104 -66 175c0 73 22 132 66 177c45 45 98 68 160 68c60 0 114 -26 137 -67v147zM397 235c0 68 -48 111 -108 111s-108 -46 -108 -111
c0 -68 48 -113 108 -113s108 48 108 113z" />
    <glyph glyph-name="Emacron" unicode="&#x112;" horiz-adv-x="576" 
d="M526 0h-445v689h436v-129h-290v-157h254v-127h-254v-147h299v-129zM422 809h-278v85h278v-85z" />
    <glyph glyph-name="emacron" unicode="&#x113;" horiz-adv-x="550" 
d="M392 154l101 -69c-43 -63 -114 -95 -213 -95c-69 0 -127 23 -174 68c-47 46 -70 105 -70 177s23 130 70 175s105 67 174 67c68 0 125 -23 170 -69c46 -45 69 -104 69 -177c0 -13 -1 -27 -2 -43h-342c7 -51 60 -78 115 -78c45 0 79 15 102 44zM177 275h202
c-14 106 -180 107 -202 0zM416 587h-278v85h278v-85z" />
    <glyph glyph-name="Ebreve" unicode="&#x114;" horiz-adv-x="576" 
d="M81 689h436v-129h-290v-157h254v-127h-254v-147h299v-129h-445v689zM149 911h85c0 -35 16 -53 49 -53c32 0 48 18 48 53h87c0 -79 -55 -131 -135 -131c-87 0 -134 59 -134 131z" />
    <glyph glyph-name="ebreve" unicode="&#x115;" horiz-adv-x="550" 
d="M392 154l101 -69c-43 -63 -114 -95 -213 -95c-69 0 -127 23 -174 68c-47 46 -70 105 -70 177s23 130 70 175s105 67 174 67c68 0 125 -23 170 -69c46 -45 69 -104 69 -177c0 -13 -1 -27 -2 -43h-342c7 -51 60 -78 115 -78c45 0 79 15 102 44zM177 275h202
c-14 106 -180 107 -202 0zM143 689h85c0 -35 16 -53 49 -53c32 0 48 18 48 53h87c0 -79 -55 -131 -135 -131c-87 0 -134 59 -134 131z" />
    <glyph glyph-name="Edotaccent" unicode="&#x116;" horiz-adv-x="576" 
d="M81 689h436v-129h-290v-157h254v-127h-254v-147h299v-129h-445v689zM216 867c0 41 34 74 77 74s77 -33 77 -74c0 -44 -33 -75 -77 -75s-77 31 -77 75z" />
    <glyph glyph-name="edotaccent" unicode="&#x117;" horiz-adv-x="550" 
d="M392 154l101 -69c-43 -63 -114 -95 -213 -95c-69 0 -127 23 -174 68c-47 46 -70 105 -70 177s23 130 70 175s105 67 174 67c68 0 125 -23 170 -69c46 -45 69 -104 69 -177c0 -13 -1 -27 -2 -43h-342c7 -51 60 -78 115 -78c45 0 79 15 102 44zM177 275h202
c-14 106 -180 107 -202 0zM200 645c0 41 34 74 77 74s77 -33 77 -74c0 -44 -33 -75 -77 -75s-77 31 -77 75z" />
    <glyph glyph-name="Eogonek" unicode="&#x118;" horiz-adv-x="576" 
d="M542 -124l1 26l77 4c1 -25 -2 -45 -8 -59c-17 -40 -55 -65 -95 -65c-29 0 -55 10 -76 31c-21 20 -31 44 -31 72c0 19 3 35 10 49l35 66h-374v689h436v-129h-290v-157h254v-127h-254v-147h299v-129l-38 -101c-8 -20 -3 -34 15 -42c19 -5 32 2 39 19z" />
    <glyph glyph-name="eogonek" unicode="&#x119;" horiz-adv-x="551" 
d="M392 154l101 -69c-5 -7 -31 -35 -50 -58c-17 -23 -42 -72 -54 -128c-4 -25 -1 -35 15 -42c19 -5 32 2 39 19l1 26l77 4c1 -25 -2 -45 -8 -59c-17 -40 -55 -65 -95 -65c-29 0 -55 10 -76 31c-21 20 -31 44 -31 72c0 20 3 36 10 49l34 64c-25 -5 -50 -8 -75 -8
c-69 0 -127 23 -174 68c-47 46 -70 105 -70 177s23 130 70 175s105 67 174 67c68 0 125 -23 170 -69c46 -45 69 -104 69 -177c0 -13 -1 -27 -2 -43h-342c7 -51 60 -78 115 -78c45 0 79 15 102 44zM177 275h202c-14 106 -180 107 -202 0z" />
    <glyph glyph-name="Ecaron" unicode="&#x11a;" horiz-adv-x="576" 
d="M526 0h-445v689h436v-129h-290v-157h254v-127h-254v-147h299v-129zM462 928l-110 -168h-138l-109 168h100l78 -89l79 89h100z" />
    <glyph glyph-name="ecaron" unicode="&#x11b;" horiz-adv-x="550" 
d="M392 154l101 -69c-43 -63 -114 -95 -213 -95c-69 0 -127 23 -174 68c-47 46 -70 105 -70 177s23 130 70 175s105 67 174 67c68 0 125 -23 170 -69c46 -45 69 -104 69 -177c0 -13 -1 -27 -2 -43h-342c7 -51 60 -78 115 -78c45 0 79 15 102 44zM177 275h202
c-14 106 -180 107 -202 0zM456 706l-110 -168h-138l-109 168h100l78 -89l79 89h100z" />
    <glyph glyph-name="Gcircumflex" unicode="&#x11c;" horiz-adv-x="756" 
d="M653 584l-108 -93c-41 47 -92 70 -151 70c-58 0 -107 -21 -147 -64c-39 -43 -59 -94 -59 -154s20 -112 60 -155s89 -64 146 -64c40 0 78 11 113 33c35 23 53 51 54 86h-185v119h354c0 -125 -30 -218 -91 -280c-60 -61 -142 -92 -245 -92c-99 0 -182 34 -251 103
c-68 69 -102 153 -102 250c0 98 34 181 102 250c69 69 152 104 251 104c104 0 198 -42 259 -113zM203 765l109 168h138l110 -168h-100l-79 89l-78 -89h-100z" />
    <glyph glyph-name="gcircumflex" unicode="&#x11d;" horiz-adv-x="608" 
d="M406 235c0 67 -52 110 -113 110s-112 -46 -112 -110c0 -68 51 -114 112 -114c30 0 56 11 79 32c23 22 34 49 34 82zM50 -88l112 55c16 -43 70 -75 118 -75c93 0 136 55 129 166c-21 -41 -80 -68 -140 -68c-63 0 -117 23 -164 68c-46 45 -69 103 -69 174
c0 72 23 131 69 176c47 46 101 69 164 69c60 0 117 -27 140 -68v58h135v-402c0 -197 -95 -298 -264 -298c-103 0 -190 57 -230 145zM126 543l109 168h138l110 -168h-100l-79 89l-78 -89h-100z" />
    <glyph glyph-name="Gbreve" unicode="&#x11e;" horiz-adv-x="756" 
d="M653 584l-108 -93c-41 47 -92 70 -151 70c-58 0 -107 -21 -147 -64c-39 -43 -59 -94 -59 -154s20 -112 60 -155s89 -64 146 -64c40 0 78 11 113 33c35 23 53 51 54 86h-185v119h354c0 -125 -30 -218 -91 -280c-60 -61 -142 -92 -245 -92c-99 0 -182 34 -251 103
c-68 69 -102 153 -102 250c0 98 34 181 102 250c69 69 152 104 251 104c104 0 198 -42 259 -113zM247 911h85c0 -35 16 -53 49 -53c32 0 48 18 48 53h87c0 -79 -55 -131 -135 -131c-87 0 -134 59 -134 131z" />
    <glyph glyph-name="gbreve" unicode="&#x11f;" horiz-adv-x="608" 
d="M406 235c0 67 -52 110 -113 110s-112 -46 -112 -110c0 -68 51 -114 112 -114c30 0 56 11 79 32c23 22 34 49 34 82zM162 -33c16 -43 70 -75 118 -75c93 0 136 55 129 166c-21 -41 -80 -68 -140 -68c-63 0 -117 23 -164 68c-46 45 -69 103 -69 174c0 72 23 131 69 176
c47 46 101 69 164 69c60 0 117 -27 140 -68v58h135v-402c0 -197 -95 -298 -264 -298c-103 0 -190 57 -230 145zM170 689h85c0 -35 16 -53 49 -53c32 0 48 18 48 53h87c0 -79 -55 -131 -135 -131c-87 0 -134 59 -134 131z" />
    <glyph glyph-name="Gdotaccent" unicode="&#x120;" horiz-adv-x="756" 
d="M653 584l-108 -93c-41 47 -92 70 -151 70c-58 0 -107 -21 -147 -64c-39 -43 -59 -94 -59 -154s20 -112 60 -155s89 -64 146 -64c40 0 78 11 113 33c35 23 53 51 54 86h-185v119h354c0 -125 -30 -218 -91 -280c-60 -61 -142 -92 -245 -92c-99 0 -182 34 -251 103
c-68 69 -102 153 -102 250c0 98 34 181 102 250c69 69 152 104 251 104c104 0 198 -42 259 -113zM304 867c0 41 34 74 77 74s77 -33 77 -74c0 -44 -33 -75 -77 -75s-77 31 -77 75z" />
    <glyph glyph-name="gdotaccent" unicode="&#x121;" horiz-adv-x="608" 
d="M406 235c0 67 -52 110 -113 110s-112 -46 -112 -110c0 -68 51 -114 112 -114c30 0 56 11 79 32c23 22 34 49 34 82zM162 -33c16 -43 70 -75 118 -75c93 0 136 55 129 166c-21 -41 -80 -68 -140 -68c-63 0 -117 23 -164 68c-46 45 -69 103 -69 174c0 72 23 131 69 176
c47 46 101 69 164 69c60 0 117 -27 140 -68v58h135v-402c0 -197 -95 -298 -264 -298c-103 0 -190 57 -230 145zM228 645c0 41 34 74 77 74s77 -33 77 -74c0 -44 -33 -75 -77 -75s-77 31 -77 75z" />
    <glyph glyph-name="Gcommaaccent" unicode="&#x122;" horiz-adv-x="756" 
d="M653 584l-108 -93c-41 47 -92 70 -151 70c-58 0 -107 -21 -147 -64c-39 -43 -59 -94 -59 -154s20 -112 60 -155s89 -64 146 -64c40 0 78 11 113 33c35 23 53 51 54 86h-185v119h354c0 -125 -30 -218 -91 -280c-60 -61 -142 -92 -245 -92c-99 0 -182 34 -251 103
c-68 69 -102 153 -102 250c0 98 34 181 102 250c69 69 152 104 251 104c104 0 198 -42 259 -113zM362 -287l-68 35c22 31 37 60 46 88s13 64 12 108h117c-8 -101 -44 -178 -107 -231z" />
    <glyph glyph-name="gcommaaccent" unicode="&#x123;" horiz-adv-x="608" 
d="M406 235c0 67 -52 110 -113 110s-112 -46 -112 -110c0 -68 51 -114 112 -114c30 0 56 11 79 32c23 22 34 49 34 82zM162 -33c16 -43 70 -75 118 -75c93 0 136 55 129 166c-21 -41 -80 -68 -140 -68c-63 0 -117 23 -164 68c-46 45 -69 103 -69 174c0 72 23 131 69 176
c47 46 101 69 164 69c60 0 117 -27 140 -68v58h135v-402c0 -197 -95 -298 -264 -298c-103 0 -190 57 -230 145zM321 785l68 -35c-22 -31 -37 -60 -46 -88s-13 -64 -12 -108h-117c8 101 44 178 107 231z" />
    <glyph glyph-name="Hcircumflex" unicode="&#x124;" horiz-adv-x="701" 
d="M472 408v281h148v-689h-148v277h-245v-277h-146v689h146v-281h245zM172 765l109 168h138l110 -168h-100l-79 89l-78 -89h-100z" />
    <glyph glyph-name="hcircumflex" unicode="&#x125;" horiz-adv-x="579" 
d="M203 247v-247h-139v721h139v-327c9 27 26 47 53 61c27 15 53 22 78 22c121 0 187 -80 187 -223v-254h-139v249c0 57 -41 93 -86 93c-51 0 -93 -30 -93 -95zM-46 772l109 168h138l110 -168h-100l-79 89l-78 -89h-100z" />
    <glyph glyph-name="Hbar" unicode="&#x126;" horiz-adv-x="715" 
d="M88 0v512h-72v81h72v96h146v-96h245v96h148v-96h72v-81h-72v-512h-148v277h-245v-277h-146zM234 512v-104h245v104h-245z" />
    <glyph glyph-name="hbar" unicode="&#x127;" horiz-adv-x="579" 
d="M203 247v-247h-139v557h-76v86h76v78h139v-78h148v-86h-148v-163c9 27 26 47 53 61c27 15 53 22 78 22c121 0 187 -80 187 -223v-254h-139v249c0 57 -41 93 -86 93c-51 0 -93 -30 -93 -95z" />
    <glyph glyph-name="Itilde" unicode="&#x128;" horiz-adv-x="308" 
d="M111 828c-11 0 -25 -15 -26 -43h-75c4 89 52 130 101 130c15 0 32 -7 50 -21c18 -13 30 -20 37 -20c11 0 25 13 26 41h75c-4 -88 -52 -128 -101 -128c-15 0 -31 7 -50 20c-19 14 -31 21 -37 21zM81 0v689h146v-689h-146z" />
    <glyph glyph-name="itilde" unicode="&#x129;" horiz-adv-x="265" 
d="M64 0v467h137v-467h-137zM100 606c-11 0 -25 -15 -26 -43h-75c4 89 52 130 101 130c15 0 32 -7 50 -21c18 -13 30 -20 37 -20c11 0 25 13 26 41h75c-4 -88 -52 -128 -101 -128c-14 0 -30 7 -49 20c-19 14 -31 21 -38 21z" />
    <glyph glyph-name="Imacron" unicode="&#x12a;" horiz-adv-x="308" 
d="M293 809h-278v85h278v-85zM81 0v689h146v-689h-146z" />
    <glyph glyph-name="imacron" unicode="&#x12b;" horiz-adv-x="265" 
d="M64 0v467h137v-467h-137zM270 587h-278v85h278v-85z" />
    <glyph glyph-name="Ibreve" unicode="&#x12c;" horiz-adv-x="308" 
d="M20 911h85c0 -35 16 -53 49 -53c32 0 48 18 48 53h87c0 -79 -55 -131 -135 -131c-87 0 -134 59 -134 131zM81 0v689h146v-689h-146z" />
    <glyph glyph-name="ibreve" unicode="&#x12d;" horiz-adv-x="265" 
d="M201 467v-467h-137v467h137zM-2 689h85c0 -35 16 -53 49 -53c32 0 48 18 48 53h87c0 -79 -55 -131 -135 -131c-87 0 -134 59 -134 131z" />
    <glyph glyph-name="Iogonek" unicode="&#x12e;" horiz-adv-x="308" 
d="M226 689v-689h-76l-37 -101c-7 -21 -2 -35 15 -42c19 -5 32 2 39 19l1 26l77 4c1 -25 -2 -45 -8 -59c-17 -40 -55 -65 -95 -65c-29 0 -55 10 -76 31c-21 20 -31 44 -31 72c0 20 3 36 10 49l35 66v689h146z" />
    <glyph glyph-name="iogonek" unicode="&#x12f;" horiz-adv-x="266" 
d="M134 0l-37 -101c-7 -21 -2 -35 15 -42c19 -5 32 2 39 19c2 9 2 17 1 26l77 4c1 -25 -2 -45 -8 -59c-17 -40 -55 -65 -95 -65c-29 0 -55 10 -76 31c-21 20 -31 44 -31 72c0 21 3 37 10 49l35 66v467h138v-467h-68zM133 721c47 0 85 -36 85 -81s-38 -82 -85 -82
c-48 0 -87 37 -87 82s39 81 87 81z" />
    <glyph glyph-name="Idot" unicode="&#x130;" horiz-adv-x="308" 
d="M77 867c0 41 34 74 77 74s77 -33 77 -74c0 -44 -33 -75 -77 -75s-77 31 -77 75zM81 0v689h146v-689h-146z" />
    <glyph glyph-name="dotlessi" unicode="&#x131;" horiz-adv-x="266" 
d="M64 467h138v-467h-138v467z" />
    <glyph glyph-name="IJ" unicode="&#x132;" horiz-adv-x="617" 
d="M209 -219l13 132c21 -7 51 -11 88 -11c53 0 79 39 79 95v692h147v-692c0 -69 -18 -125 -55 -168s-94 -65 -171 -65c-21 0 -54 6 -101 17zM81 0v689h146v-689h-146z" />
    <glyph glyph-name="ij" unicode="&#x133;" horiz-adv-x="534" 
d="M293 -235h-85v126h61c42 0 62 25 61 74v502h140v-499c0 -131 -50 -203 -177 -203zM338 582c-33 32 -33 84 0 115c35 32 90 32 123 0c33 -31 33 -83 0 -115s-88 -32 -123 0zM64 467h138v-467h-138v467zM133 721c47 0 85 -36 85 -81s-38 -82 -85 -82c-48 0 -87 37 -87 82
s39 81 87 81z" />
    <glyph glyph-name="Jcircumflex" unicode="&#x134;" horiz-adv-x="309" 
d="M-99 -219l13 132c21 -7 51 -11 88 -11c53 0 79 39 79 95v692h147v-692c0 -69 -18 -125 -55 -168s-94 -65 -171 -65c-21 0 -54 6 -101 17zM-24 765l109 168h138l110 -168h-100l-79 89l-78 -89h-100z" />
    <glyph glyph-name="jcircumflex" unicode="&#x135;" horiz-adv-x="268" 
d="M27 -235h-85v126h61c42 0 62 25 61 74v502h140v-499c0 -131 -50 -203 -177 -203zM-32 543l109 168h138l110 -168h-100l-79 89l-78 -89h-100z" />
    <glyph glyph-name="Kcommaaccent" unicode="&#x136;" horiz-adv-x="609" 
d="M564 689l-261 -341l323 -348h-190l-207 234v-234h-148v689h148v-226l163 226h172zM288 -287l-68 35c22 31 37 60 46 88s13 64 12 108h117c-8 -101 -44 -178 -107 -231z" />
    <glyph glyph-name="kcommaaccent" unicode="&#x137;" horiz-adv-x="526" 
d="M358 0l-156 185v-185h-138v721h138v-382l111 128h177l-194 -206l233 -261h-171zM231 -287l-68 35c22 31 37 60 46 88s13 64 12 108h117c-8 -101 -44 -178 -107 -231z" />
    <glyph glyph-name="kgreenlandic" unicode="&#x138;" horiz-adv-x="511" 
d="M509 0h-181l-127 144v-144h-137v467h137v-136l114 136h173l-205 -230z" />
    <glyph glyph-name="Lacute" unicode="&#x139;" horiz-adv-x="511" 
d="M81 689h147v-560h258v-129h-405v689zM83 761l110 168h138l-148 -168h-100z" />
    <glyph glyph-name="lacute" unicode="&#x13a;" horiz-adv-x="267" 
d="M64 0v721h139v-721h-139zM65 771l110 168h138l-148 -168h-100z" />
    <glyph glyph-name="Lcommaaccent" unicode="&#x13b;" horiz-adv-x="511" 
d="M486 0h-405v689h147v-560h258v-129zM234 -287l-68 35c22 31 37 60 46 88s13 64 12 108h117c-8 -101 -44 -178 -107 -231z" />
    <glyph glyph-name="lcommaaccent" unicode="&#x13c;" horiz-adv-x="267" 
d="M89 -287l-68 35c22 31 37 60 46 88s13 64 12 108h117c-8 -101 -44 -178 -107 -231zM64 0v721h139v-721h-139z" />
    <glyph glyph-name="Lcaron" unicode="&#x13d;" horiz-adv-x="516" 
d="M486 0h-405v689h147v-560h258v-129zM380 428l-84 29c50 71 75 148 74 232h117c-9 -121 -56 -220 -107 -261z" />
    <glyph glyph-name="lcaron" unicode="&#x13e;" horiz-adv-x="311" 
d="M64 0v721h139v-721h-139zM317 460l-84 29c50 71 75 148 74 232h117c-9 -121 -56 -220 -107 -261z" />
    <glyph glyph-name="Ldot" unicode="&#x13f;" horiz-adv-x="511" 
d="M299 307c0 41 34 74 77 74s77 -33 77 -74c0 -44 -33 -75 -77 -75s-77 31 -77 75zM486 0h-405v689h147v-560h258v-129z" />
    <glyph glyph-name="ldot" unicode="&#x140;" horiz-adv-x="380" 
d="M246 307c0 41 34 74 77 74s77 -33 77 -74c0 -44 -33 -75 -77 -75s-77 31 -77 75zM64 0v721h139v-721h-139z" />
    <glyph glyph-name="Lslash" unicode="&#x141;" horiz-adv-x="519" 
d="M89 0v291l-72 -45v95l72 45v303h147v-211l93 58v-95l-93 -58v-254h258v-129h-405z" />
    <glyph glyph-name="lslash" unicode="&#x142;" horiz-adv-x="316" 
d="M101 721h139v-255l86 54v-95l-86 -54v-371h-139v284l-87 -54v95l87 54v342z" />
    <glyph glyph-name="Nacute" unicode="&#x143;" horiz-adv-x="679" 
d="M278 761l110 168h138l-148 -168h-100zM598 0h-131l-240 417v-417h-146v689h134l236 -412v412h147v-689z" />
    <glyph glyph-name="nacute" unicode="&#x144;" 
d="M203 247v-247h-139v467h139v-68c25 47 80 78 135 78c108 0 171 -67 171 -198v-279h-139v249c0 60 -32 93 -81 93c-57 0 -86 -32 -86 -95zM206 539l110 168h138l-148 -168h-100z" />
    <glyph glyph-name="Ncommaaccent" unicode="&#x145;" horiz-adv-x="679" 
d="M451 689h147v-689h-131l-240 411v-411h-146v689h134l236 -406v406zM304 -287l-68 35c22 31 37 60 46 88s13 64 12 108h117c-8 -101 -44 -178 -107 -231z" />
    <glyph glyph-name="ncommaaccent" unicode="&#x146;" 
d="M203 247v-247h-139v467h139v-68c25 47 80 78 135 78c108 0 171 -67 171 -198v-279h-139v249c0 60 -32 93 -81 93c-57 0 -86 -32 -86 -95zM254 -287l-68 35c22 31 37 60 46 88s13 64 12 108h117c-8 -101 -44 -178 -107 -231z" />
    <glyph glyph-name="Ncaron" unicode="&#x147;" horiz-adv-x="679" 
d="M451 689h147v-689h-131l-240 417v-417h-146v689h134l236 -412v412zM518 928l-110 -168h-138l-109 168h100l78 -89l79 89h100z" />
    <glyph glyph-name="ncaron" unicode="&#x148;" 
d="M203 247v-247h-139v467h139v-68c25 47 80 78 135 78c108 0 171 -67 171 -198v-279h-139v249c0 60 -32 93 -81 93c-57 0 -86 -32 -86 -95zM462 706l-110 -168h-138l-109 168h100l78 -89l79 89h100z" />
    <glyph glyph-name="napostrophe" unicode="&#x149;" 
d="M203 247v-247h-139v467h139v-68c25 47 80 78 135 78c108 0 171 -67 171 -198v-279h-139v249c0 60 -32 93 -81 93c-57 0 -86 -32 -86 -95zM-16 469l-75 22c39 52 47 105 35 170h118c1 -85 -25 -149 -78 -192z" />
    <glyph glyph-name="Eng" unicode="&#x14a;" horiz-adv-x="679" 
d="M459 16l-232 401v-417h-146v689h134l236 -412v412h147v-676c0 -70 -18 -127 -54 -171c-36 -45 -93 -67 -170 -67c-24 0 -58 6 -102 17l15 144c27 -9 58 -14 95 -14c48 3 77 46 77 94z" />
    <glyph glyph-name="eng" unicode="&#x14b;" 
d="M509 279v-247c0 -133 -65 -224 -210 -224c-15 0 -36 3 -63 10l13 128c17 -5 34 -8 50 -8c49 0 71 40 71 92v219c0 60 -32 93 -81 93c-57 0 -86 -32 -86 -95v-247h-139v467h139v-68c25 47 80 78 135 78c108 0 171 -67 171 -198z" />
    <glyph glyph-name="Omacron" unicode="&#x14c;" horiz-adv-x="781" 
d="M594 343c0 58 -20 107 -60 148c-39 41 -87 61 -144 61s-105 -20 -144 -61s-59 -90 -59 -148s20 -107 59 -148c39 -40 87 -60 144 -60s105 20 144 61c40 41 60 90 60 147zM41 343c0 98 34 181 101 250c68 69 151 104 248 104c98 0 181 -35 248 -104
c68 -69 102 -152 102 -250c0 -97 -34 -181 -102 -250s-151 -103 -248 -103s-180 34 -248 103c-67 69 -101 153 -101 250zM529 809h-278v85h278v-85z" />
    <glyph glyph-name="omacron" unicode="&#x14d;" horiz-adv-x="557" 
d="M278 128c60 0 106 43 106 107c0 61 -47 106 -106 106s-105 -45 -105 -106c0 -64 46 -107 105 -107zM450 59c-47 -45 -104 -67 -172 -67s-125 22 -172 67s-70 104 -70 176s23 130 70 175s104 67 172 67s125 -22 172 -67s71 -103 71 -175s-24 -131 -71 -176zM417 587h-278
v85h278v-85z" />
    <glyph glyph-name="Obreve" unicode="&#x14e;" horiz-adv-x="781" 
d="M594 343c0 58 -20 107 -60 148c-39 41 -87 61 -144 61s-105 -20 -144 -61s-59 -90 -59 -148s20 -107 59 -148c39 -40 87 -60 144 -60s105 20 144 61c40 41 60 90 60 147zM41 343c0 98 34 181 101 250c68 69 151 104 248 104c98 0 181 -35 248 -104
c68 -69 102 -152 102 -250c0 -97 -34 -181 -102 -250s-151 -103 -248 -103s-180 34 -248 103c-67 69 -101 153 -101 250zM256 911h85c0 -35 16 -53 49 -53c32 0 48 18 48 53h87c0 -79 -55 -131 -135 -131c-87 0 -134 59 -134 131z" />
    <glyph glyph-name="obreve" unicode="&#x14f;" horiz-adv-x="557" 
d="M278 128c60 0 106 43 106 107c0 61 -47 106 -106 106s-105 -45 -105 -106c0 -64 46 -107 105 -107zM106 59c-47 45 -70 104 -70 176s23 130 70 175s104 67 172 67s125 -22 172 -67s71 -103 71 -175s-24 -131 -71 -176s-104 -67 -172 -67s-125 22 -172 67zM144 689h85
c0 -35 16 -53 49 -53c32 0 48 18 48 53h87c0 -79 -55 -131 -135 -131c-87 0 -134 59 -134 131z" />
    <glyph glyph-name="Ohungarumlaut" unicode="&#x150;" horiz-adv-x="781" 
d="M268 760l110 168h111l-121 -168h-100zM415 760l123 168h114l-132 -168h-105zM594 343c0 58 -20 107 -60 148c-39 41 -87 61 -144 61s-105 -20 -144 -61s-59 -90 -59 -148s20 -107 59 -148c39 -40 87 -60 144 -60s105 20 144 61c40 41 60 90 60 147zM41 343
c0 98 34 181 101 250c68 69 151 104 248 104c98 0 181 -35 248 -104c68 -69 102 -152 102 -250c0 -97 -34 -181 -102 -250s-151 -103 -248 -103s-180 34 -248 103c-67 69 -101 153 -101 250z" />
    <glyph glyph-name="ohungarumlaut" unicode="&#x151;" horiz-adv-x="557" 
d="M154 538l110 168h111l-121 -168h-100zM301 538l123 168h114l-132 -168h-105zM278 128c60 0 106 43 106 107c0 61 -47 106 -106 106s-105 -45 -105 -106c0 -64 46 -107 105 -107zM450 59c-47 -45 -104 -67 -172 -67s-125 22 -172 67s-70 104 -70 176s23 130 70 175
s104 67 172 67s125 -22 172 -67s71 -103 71 -175s-24 -131 -71 -176z" />
    <glyph glyph-name="OE" unicode="&#x152;" horiz-adv-x="1091" 
d="M596 620v69h436v-129h-290v-157h254v-127h-254v-147h299v-129h-445v67c-57 -51 -126 -77 -206 -77c-97 0 -180 34 -248 103c-67 69 -101 153 -101 250c0 98 34 181 101 250c68 69 151 104 248 104c83 0 152 -26 206 -77zM594 343c0 58 -20 107 -60 148
c-39 41 -87 61 -144 61s-105 -20 -144 -61s-59 -90 -59 -148s20 -107 59 -148c39 -40 87 -60 144 -60s105 20 144 61c40 41 60 90 60 147z" />
    <glyph glyph-name="oe" unicode="&#x153;" horiz-adv-x="901" 
d="M453 63c-46 -47 -104 -71 -175 -71c-68 0 -125 22 -172 67s-70 104 -70 176s23 130 70 175s104 67 172 67c70 0 129 -24 176 -71c46 47 105 71 177 71c67 0 124 -23 170 -69c46 -45 69 -104 69 -177c0 -13 -1 -27 -2 -43h-342c7 -51 60 -78 115 -78c45 0 79 15 102 44
l101 -69c-43 -63 -114 -95 -213 -95c-71 0 -131 24 -178 73zM278 128c60 0 106 43 106 107c0 61 -47 106 -106 106s-105 -45 -105 -106c0 -64 46 -107 105 -107zM528 275h202c-14 106 -180 107 -202 0z" />
    <glyph glyph-name="Racute" unicode="&#x154;" horiz-adv-x="637" 
d="M356 560h-128v-194h124c53 0 87 48 87 97c0 48 -32 97 -83 97zM420 244l171 -244h-176l-154 238h-33v-238h-147v689h282c73 0 130 -22 169 -67c40 -44 60 -97 60 -159c0 -105 -60 -195 -172 -219zM231 761l110 168h138l-148 -168h-100z" />
    <glyph glyph-name="racute" unicode="&#x155;" horiz-adv-x="423" 
d="M203 163v-163h-139v467h139v-113c23 81 79 123 132 123c31 0 57 -6 80 -17l-25 -125c-19 9 -43 14 -71 14c-77 0 -116 -62 -116 -186zM72 539l110 168h138l-148 -168h-100z" />
    <glyph glyph-name="Rcommaaccent" unicode="&#x156;" horiz-adv-x="637" 
d="M356 560h-128v-194h124c53 0 87 48 87 97c0 48 -32 97 -83 97zM420 244l171 -244h-176l-154 238h-33v-238h-147v689h282c73 0 130 -22 169 -67c40 -44 60 -97 60 -159c0 -105 -60 -195 -172 -219zM286 -287l-68 35c22 31 37 60 46 88s13 64 12 108h117
c-8 -101 -44 -178 -107 -231z" />
    <glyph glyph-name="rcommaaccent" unicode="&#x157;" horiz-adv-x="423" 
d="M203 163v-163h-139v467h139v-113c23 81 79 123 132 123c31 0 57 -6 80 -17l-25 -125c-19 9 -43 14 -71 14c-77 0 -116 -62 -116 -186zM87 -287l-68 35c22 31 37 60 46 88s13 64 12 108h117c-8 -101 -44 -178 -107 -231z" />
    <glyph glyph-name="Rcaron" unicode="&#x158;" horiz-adv-x="637" 
d="M356 560h-128v-194h124c53 0 87 48 87 97c0 48 -32 97 -83 97zM420 244l171 -244h-176l-154 238h-33v-238h-147v689h282c73 0 130 -22 169 -67c40 -44 60 -97 60 -159c0 -105 -60 -195 -172 -219zM493 928l-110 -168h-138l-109 168h100l78 -89l79 89h100z" />
    <glyph glyph-name="rcaron" unicode="&#x159;" horiz-adv-x="423" 
d="M203 163v-163h-139v467h139v-113c23 81 79 123 132 123c31 0 57 -6 80 -17l-25 -125c-19 9 -43 14 -71 14c-77 0 -116 -62 -116 -186zM398 706l-110 -168h-138l-109 168h100l78 -89l79 89h100z" />
    <glyph glyph-name="Sacute" unicode="&#x15a;" horiz-adv-x="582" 
d="M191 202c3 -47 40 -83 103 -83c60 0 100 29 101 73c1 35 -18 59 -83 78l-83 23c-119 37 -178 103 -178 198c0 61 23 110 68 148c45 39 102 58 169 58c68 0 124 -19 167 -57c44 -38 66 -89 66 -154h-146c0 47 -32 78 -89 78c-52 0 -89 -29 -89 -69c0 -33 25 -56 74 -70
l82 -26c129 -37 192 -107 189 -208c-1 -87 -57 -153 -130 -181c-36 -14 -75 -21 -118 -21c-75 0 -135 20 -181 59c-46 40 -69 91 -69 154h147zM227 761l110 168h138l-148 -168h-100z" />
    <glyph glyph-name="sacute" unicode="&#x15b;" horiz-adv-x="467" 
d="M185 192c-65 17 -108 44 -124 75c-15 32 -17 48 -16 77c1 35 19 65 55 92s78 41 127 41c53 0 98 -13 135 -38s56 -64 57 -117h-131c-1 27 -18 41 -53 41c-31 0 -50 -14 -49 -35c1 -17 15 -28 41 -35l79 -21c69 -19 111 -65 120 -94c5 -14 7 -28 7 -42
c0 -47 -20 -83 -61 -108c-40 -25 -87 -38 -141 -38c-51 0 -97 14 -136 43s-58 69 -59 118h130c1 -28 32 -54 69 -54c32 1 57 16 57 39c0 20 -13 31 -46 40zM169 539l110 168h138l-148 -168h-100z" />
    <glyph glyph-name="Scircumflex" unicode="&#x15c;" horiz-adv-x="582" 
d="M44 202h147c3 -47 40 -83 103 -83c60 0 100 29 101 73c1 35 -18 59 -83 78l-83 23c-119 37 -178 103 -178 198c0 61 23 110 68 148c45 39 102 58 169 58c68 0 124 -19 167 -57c44 -38 66 -89 66 -154h-146c0 47 -32 78 -89 78c-52 0 -89 -29 -89 -69c0 -33 25 -56 74 -70
l82 -26c129 -37 192 -107 189 -208c-1 -43 -13 -81 -38 -113c-49 -63 -125 -89 -210 -89c-75 0 -135 20 -181 59c-46 40 -69 91 -69 154zM115 765l109 168h138l110 -168h-100l-79 89l-78 -89h-100z" />
    <glyph glyph-name="scircumflex" unicode="&#x15d;" horiz-adv-x="467" 
d="M246 176l-61 16c-65 17 -108 44 -124 75c-15 32 -17 48 -16 77c1 35 19 65 55 92s78 41 127 41c53 0 98 -13 135 -38s56 -64 57 -117h-131c-1 27 -18 41 -53 41c-31 0 -50 -14 -49 -35c1 -17 15 -28 41 -35l79 -21c35 -9 62 -24 82 -43c41 -39 45 -65 45 -93
c0 -47 -20 -83 -61 -108c-40 -25 -87 -38 -141 -38c-51 0 -97 14 -136 43s-58 69 -59 118h130c1 -28 32 -54 69 -54c32 1 57 16 57 39c0 20 -13 31 -46 40zM56 543l109 168h138l110 -168h-100l-79 89l-78 -89h-100z" />
    <glyph glyph-name="Scedilla" unicode="&#x15e;" horiz-adv-x="581" 
d="M266 -124c7 -17 20 -24 39 -19c18 8 23 22 15 42l-33 90c-73 1 -132 22 -177 61s-67 90 -67 152h147c3 -47 40 -83 103 -83c60 0 100 29 101 73c1 35 -18 59 -83 78l-83 23c-119 37 -178 103 -178 198c0 61 23 110 68 148c45 39 102 58 169 58c68 0 124 -19 167 -57
c44 -38 66 -89 66 -154h-146c0 47 -32 78 -89 78c-52 0 -89 -29 -89 -69c0 -33 25 -56 74 -70l82 -26c129 -37 192 -107 189 -208c-1 -54 -19 -98 -54 -131s-79 -55 -132 -65l33 -61c7 -11 10 -27 10 -49c0 -28 -11 -52 -32 -72c-21 -21 -46 -31 -75 -31
c-40 0 -78 25 -95 65c-6 14 -9 34 -8 59l77 -4c-1 -9 -1 -17 1 -26z" />
    <glyph glyph-name="scedilla" unicode="&#x15f;" horiz-adv-x="468" 
d="M208 -124c7 -17 20 -24 39 -19c18 8 23 22 15 42l-34 91c-51 1 -95 15 -134 44c-38 29 -57 68 -58 117h130c1 -28 32 -54 69 -54c32 1 57 16 57 39c0 20 -13 31 -46 40l-61 16c-65 17 -108 44 -124 75c-15 32 -17 48 -16 77c1 35 19 65 55 92s78 41 127 41
c53 0 98 -13 135 -38s56 -64 57 -117h-131c-1 27 -18 41 -53 41c-31 0 -50 -14 -49 -35c1 -17 15 -28 41 -35l79 -21c35 -9 62 -24 82 -43c41 -39 45 -65 45 -93c0 -73 -57 -122 -137 -139l34 -63c7 -11 10 -27 10 -49c0 -28 -11 -52 -32 -72c-21 -21 -46 -31 -75 -31
c-40 0 -78 25 -95 65c-6 14 -9 34 -8 59l77 -4c-1 -9 -1 -17 1 -26z" />
    <glyph glyph-name="Scaron" unicode="&#x160;" horiz-adv-x="582" 
d="M44 202h147c3 -47 40 -83 103 -83c60 0 100 29 101 73c1 35 -18 59 -83 78l-83 23c-119 37 -178 103 -178 198c0 61 23 110 68 148c45 39 102 58 169 58c68 0 124 -19 167 -57c44 -38 66 -89 66 -154h-146c0 47 -32 78 -89 78c-52 0 -89 -29 -89 -69c0 -33 25 -56 74 -70
l82 -26c129 -37 192 -107 189 -208c-1 -43 -13 -81 -38 -113c-49 -63 -125 -89 -210 -89c-75 0 -135 20 -181 59c-46 40 -69 91 -69 154zM472 928l-110 -168h-138l-109 168h100l78 -89l79 89h100z" />
    <glyph glyph-name="scaron" unicode="&#x161;" horiz-adv-x="467" 
d="M246 176l-61 16c-65 17 -108 44 -124 75c-15 32 -17 48 -16 77c1 35 19 65 55 92s78 41 127 41c53 0 98 -13 135 -38s56 -64 57 -117h-131c-1 27 -18 41 -53 41c-31 0 -50 -14 -49 -35c1 -17 15 -28 41 -35l79 -21c35 -9 62 -24 82 -43c41 -39 45 -65 45 -93
c0 -47 -20 -83 -61 -108c-40 -25 -87 -38 -141 -38c-51 0 -97 14 -136 43s-58 69 -59 118h130c1 -28 32 -54 69 -54c32 1 57 16 57 39c0 20 -13 31 -46 40zM413 706l-110 -168h-138l-109 168h100l78 -89l79 89h100z" />
    <glyph glyph-name="Tcommaaccent" unicode="&#x162;" horiz-adv-x="576" 
d="M214 557h-186v132h520v-132h-186v-557h-148v557zM242 -287l-68 35c22 31 37 60 46 88s13 64 12 108h117c-8 -101 -44 -178 -107 -231z" />
    <glyph glyph-name="tcommaaccent" unicode="&#x163;" horiz-adv-x="365" 
d="M246 646v-179h98v-110h-98v-357h-138v357h-85v110h85v179h138zM130 -287l-68 35c22 31 37 60 46 88s13 64 12 108h117c-8 -101 -44 -178 -107 -231z" />
    <glyph glyph-name="Tcaron" unicode="&#x164;" horiz-adv-x="576" 
d="M214 557h-186v132h520v-132h-186v-557h-148v557zM467 928l-110 -168h-138l-109 168h100l78 -89l79 89h100z" />
    <glyph glyph-name="tcaron" unicode="&#x165;" horiz-adv-x="365" 
d="M246 646v-179h98v-110h-98v-357h-138v357h-85v110h85v179h138zM357 522l-68 35c22 31 37 60 46 88s13 64 12 108h117c-8 -101 -44 -178 -107 -231z" />
    <glyph glyph-name="Tbar" unicode="&#x166;" horiz-adv-x="576" 
d="M214 557h-186v132h520v-132h-186v-557h-148v557zM427 809h-278v85h278v-85z" />
    <glyph glyph-name="tbar" unicode="&#x167;" horiz-adv-x="366" 
d="M246 0h-138v183h-53v77h53v97h-85v110h85v179h138v-179h98v-110h-98v-97h70v-77h-70v-183z" />
    <glyph glyph-name="Utilde" unicode="&#x168;" horiz-adv-x="682" 
d="M297 828c-11 0 -25 -15 -26 -43h-75c4 89 52 130 101 130c15 0 32 -7 50 -21c18 -13 30 -20 37 -20c11 0 25 13 26 41h75c-4 -88 -52 -128 -101 -128c-15 0 -31 7 -50 20c-19 14 -31 21 -37 21zM461 246v443h147v-443c0 -76 -26 -138 -78 -185s-115 -71 -188 -71
s-136 24 -189 71s-79 109 -79 185v443h149v-443c0 -35 12 -63 35 -85c24 -22 52 -33 84 -33s60 11 83 33c24 23 36 51 36 85z" />
    <glyph glyph-name="utilde" unicode="&#x169;" 
d="M365 220v247h139v-467h-139v64c-24 -45 -74 -74 -121 -74c-109 0 -185 70 -185 198v279h139v-249c0 -67 42 -93 83 -93c48 0 84 30 84 95zM248 606c-11 0 -25 -15 -26 -43h-75c4 89 52 130 101 130c15 0 32 -7 50 -21c18 -13 30 -20 37 -20c11 0 25 13 26 41h75
c-4 -88 -52 -128 -101 -128c-14 0 -30 7 -49 20c-19 14 -31 21 -38 21z" />
    <glyph glyph-name="Umacron" unicode="&#x16a;" horiz-adv-x="682" 
d="M461 246v443h147v-443c0 -76 -26 -138 -78 -185s-115 -71 -188 -71s-136 24 -189 71s-79 109 -79 185v443h149v-443c0 -35 12 -63 35 -85c24 -22 52 -33 84 -33s60 11 83 33c24 23 36 51 36 85zM480 809h-278v85h278v-85z" />
    <glyph glyph-name="umacron" unicode="&#x16b;" 
d="M365 220v247h139v-467h-139v64c-24 -45 -74 -74 -121 -74c-109 0 -185 70 -185 198v279h139v-249c0 -67 42 -93 83 -93c48 0 84 30 84 95zM430 587h-278v85h278v-85z" />
    <glyph glyph-name="Ubreve" unicode="&#x16c;" horiz-adv-x="682" 
d="M461 246v443h147v-443c0 -76 -26 -138 -78 -185s-115 -71 -188 -71s-136 24 -189 71s-79 109 -79 185v443h149v-443c0 -35 12 -63 35 -85c24 -22 52 -33 84 -33s60 11 83 33c24 23 36 51 36 85zM206 911h85c0 -35 16 -53 49 -53c32 0 48 18 48 53h87
c0 -79 -55 -131 -135 -131c-87 0 -134 59 -134 131z" />
    <glyph glyph-name="ubreve" unicode="&#x16d;" 
d="M365 220v247h139v-467h-139v64c-24 -45 -74 -74 -121 -74c-109 0 -185 70 -185 198v279h139v-249c0 -67 42 -93 83 -93c48 0 84 30 84 95zM157 689h85c0 -35 16 -53 49 -53c32 0 48 18 48 53h87c0 -79 -55 -131 -135 -131c-87 0 -134 59 -134 131z" />
    <glyph glyph-name="Uring" unicode="&#x16e;" horiz-adv-x="682" 
d="M220 881c0 35 12 64 35 87c23 24 52 36 85 36c34 0 63 -12 86 -36c24 -23 36 -52 36 -87c0 -33 -12 -62 -36 -85c-23 -23 -52 -35 -86 -35c-33 0 -62 12 -85 35s-35 52 -35 85zM285 881c0 -31 24 -55 55 -55c32 0 57 24 57 55c0 33 -25 58 -57 58c-31 0 -55 -25 -55 -58z
M461 246v443h147v-443c0 -76 -26 -138 -78 -185s-115 -71 -188 -71s-136 24 -189 71s-79 109 -79 185v443h149v-443c0 -35 12 -63 35 -85c24 -22 52 -33 84 -33s60 11 83 33c24 23 36 51 36 85z" />
    <glyph glyph-name="uring" unicode="&#x16f;" 
d="M170 659c0 35 12 64 35 87c23 24 52 36 85 36c34 0 63 -12 86 -36c24 -23 36 -52 36 -87c0 -33 -12 -62 -36 -85c-23 -23 -52 -35 -86 -35c-33 0 -62 12 -85 35s-35 52 -35 85zM235 659c0 -31 24 -55 55 -55c32 0 57 24 57 55c0 33 -25 58 -57 58c-31 0 -55 -25 -55 -58z
M365 220v247h139v-467h-139v64c-24 -45 -74 -74 -121 -74c-109 0 -185 70 -185 198v279h139v-249c0 -67 42 -93 83 -93c48 0 84 30 84 95z" />
    <glyph glyph-name="Uhungarumlaut" unicode="&#x170;" horiz-adv-x="682" 
d="M185 760l110 168h111l-121 -168h-100zM332 760l123 168h114l-132 -168h-105zM461 246v443h147v-443c0 -76 -26 -138 -78 -185s-115 -71 -188 -71s-136 24 -189 71s-79 109 -79 185v443h149v-443c0 -35 12 -63 35 -85c24 -22 52 -33 84 -33s60 11 83 33c24 23 36 51 36 85
z" />
    <glyph glyph-name="uhungarumlaut" unicode="&#x171;" 
d="M137 538l110 168h111l-121 -168h-100zM284 538l123 168h114l-132 -168h-105zM365 220v247h139v-467h-139v64c-24 -45 -74 -74 -121 -74c-109 0 -185 70 -185 198v279h139v-249c0 -67 42 -93 83 -93c48 0 84 30 84 95z" />
    <glyph glyph-name="Uogonek" unicode="&#x172;" horiz-adv-x="684" 
d="M369 -9l-34 -92c-7 -21 -2 -35 15 -42c19 -5 32 2 39 19l1 26l77 4c1 -25 -2 -45 -8 -59c-17 -40 -55 -65 -95 -65c-29 0 -55 10 -76 31c-21 20 -31 44 -31 72c0 19 3 35 10 49l32 60c-64 9 -117 37 -160 82s-64 102 -64 170v443h149v-443c0 -35 12 -63 35 -85
c24 -22 52 -33 84 -33s60 11 83 33c24 23 36 51 36 85v443h147v-443c0 -71 -23 -130 -70 -177c-46 -46 -103 -72 -170 -78z" />
    <glyph glyph-name="uogonek" unicode="&#x173;" 
d="M329 -66l36 66v64c-24 -45 -74 -74 -121 -74c-109 0 -185 70 -185 198v279h139v-249c0 -67 42 -93 83 -93c48 0 84 30 84 95v247h139v-467h-70l-37 -101c-7 -21 -2 -35 15 -42c19 -5 32 2 39 19l1 26l77 4c1 -25 -2 -45 -8 -59c-17 -40 -55 -65 -95 -65
c-29 0 -55 10 -76 31c-21 20 -31 44 -31 72c0 19 3 35 10 49z" />
    <glyph glyph-name="Wcircumflex" unicode="&#x174;" horiz-adv-x="886" 
d="M503 592l91 -337l135 434h159l-234 -689h-115l-97 362l-95 -362h-116l-232 689h158l134 -434l92 337h120zM265 765l109 168h138l110 -168h-100l-79 89l-78 -89h-100z" />
    <glyph glyph-name="wcircumflex" unicode="&#x175;" horiz-adv-x="763" 
d="M605 467h148l-164 -467h-116l-92 297l-88 -297h-116l-169 467h148l83 -278l82 278h119l82 -278zM202 543l109 168h138l110 -168h-100l-79 89l-78 -89h-100z" />
    <glyph glyph-name="Ycircumflex" unicode="&#x176;" horiz-adv-x="651" 
d="M400 310v-310h-149v312l-266 377h174l166 -258l168 258h174zM147 765l109 168h138l110 -168h-100l-79 89l-78 -89h-100z" />
    <glyph glyph-name="ycircumflex" unicode="&#x177;" horiz-adv-x="510" 
d="M358 467h148l-288 -696h-147l112 277l-180 419h148l103 -265zM79 543l109 168h138l110 -168h-100l-79 89l-78 -89h-100z" />
    <glyph glyph-name="Ydieresis" unicode="&#x178;" horiz-adv-x="651" 
d="M400 310v-310h-149v312l-266 377h174l166 -258l168 258h174zM165 860c0 37 33 68 73 68c39 0 71 -31 71 -68c0 -39 -32 -69 -71 -69c-40 0 -73 30 -73 69zM342 860c0 37 33 68 73 68c39 0 71 -31 71 -68c0 -39 -32 -69 -71 -69c-40 0 -73 30 -73 69z" />
    <glyph glyph-name="Zacute" unicode="&#x179;" horiz-adv-x="595" 
d="M42 0v111l315 449h-302v129h492v-111l-318 -449h318v-129h-505zM225 761l110 168h138l-148 -168h-100z" />
    <glyph glyph-name="zacute" unicode="&#x17a;" horiz-adv-x="510" 
d="M462 467v-104l-224 -235h224v-128h-421v103l220 236h-206v128h407zM187 539l110 168h138l-148 -168h-100z" />
    <glyph glyph-name="Zdotaccent" unicode="&#x17b;" horiz-adv-x="595" 
d="M42 0v111l315 449h-302v129h492v-111l-318 -449h318v-129h-505zM217 867c0 41 34 74 77 74s77 -33 77 -74c0 -44 -33 -75 -77 -75s-77 31 -77 75z" />
    <glyph glyph-name="zdotaccent" unicode="&#x17c;" horiz-adv-x="510" 
d="M462 467v-104l-224 -235h224v-128h-421v103l220 236h-206v128h407zM174 645c0 41 34 74 77 74s77 -33 77 -74c0 -44 -33 -75 -77 -75s-77 31 -77 75z" />
    <glyph glyph-name="Zcaron" unicode="&#x17d;" horiz-adv-x="595" 
d="M42 0v111l315 449h-302v129h492v-111l-318 -449h318v-129h-505zM473 928l-110 -168h-138l-109 168h100l78 -89l79 89h100z" />
    <glyph glyph-name="zcaron" unicode="&#x17e;" horiz-adv-x="510" 
d="M55 339v128h407v-104l-224 -235h224v-128h-421v103l220 236h-206zM430 706l-110 -168h-138l-109 168h100l78 -89l79 89h100z" />
    <glyph glyph-name="longs" unicode="&#x17f;" horiz-adv-x="335" 
d="M322 721h51v-133h-51c-47 0 -71 -30 -71 -89v-499h-140v357h-88v110h88v32c0 143 76 222 211 222z" />
    <glyph glyph-name="florin" unicode="&#x192;" horiz-adv-x="627" 
d="M81 -192h-51l27 133h51c47 0 76 30 88 89l66 327h-88l22 110h88l7 32c28 143 120 222 255 222h51l-26 -133h-51c-47 0 -77 -30 -89 -89l-7 -32h94l-22 -110h-94l-73 -365c-12 -57 -41 -102 -87 -135c-45 -33 -99 -49 -161 -49z" />
    <glyph glyph-name="Aringacute" unicode="&#x1fa;" horiz-adv-x="659" 
d="M329 530l-70 -240h143zM510 0l-61 163h-238l-61 -163h-156l256 689h159l255 -689h-154zM295 990l81 123h138l-120 -136c39 -24 58 -59 58 -105c0 -33 -12 -62 -36 -85c-23 -23 -52 -35 -86 -35c-33 0 -62 12 -85 35s-35 52 -35 85c0 55 36 103 85 118zM275 872
c0 -31 24 -55 55 -55c32 0 57 24 57 55c0 33 -25 58 -57 58c-31 0 -55 -25 -55 -58z" />
    <glyph glyph-name="aringacute" unicode="&#x1fb;" horiz-adv-x="612" 
d="M548 0h-138v53c-13 -20 -34 -35 -62 -46c-27 -11 -52 -16 -74 -16c-63 0 -118 22 -166 67s-72 104 -72 176s24 130 72 175s103 68 166 68c44 0 104 -17 136 -62v52h138v-467zM271 777l81 123h138l-120 -136c39 -24 58 -59 58 -105c0 -33 -12 -62 -36 -85
c-23 -23 -52 -35 -86 -35c-33 0 -62 12 -85 35s-35 52 -35 85c0 55 36 103 85 118zM297 123c60 0 113 44 113 111s-53 111 -113 111c-31 0 -58 -11 -82 -32c-23 -21 -35 -47 -35 -79s12 -59 35 -80c24 -21 51 -31 82 -31zM251 659c0 -31 24 -55 55 -55c32 0 57 24 57 55
c0 33 -25 58 -57 58c-31 0 -55 -25 -55 -58z" />
    <glyph glyph-name="AEacute" unicode="&#x1fc;" horiz-adv-x="934" 
d="M875 689v-129h-290v-157h254v-127h-254v-147h299v-129h-445v1l-1 -1v158h-184l-100 -158h-175l435 689h461zM337 299h101v194zM446 761l110 168h138l-148 -168h-100z" />
    <glyph glyph-name="aeacute" unicode="&#x1fd;" horiz-adv-x="970" 
d="M812 154l101 -69c-43 -63 -114 -95 -213 -95c-57 0 -108 17 -152 50v-40h-138v53c-13 -20 -34 -35 -62 -46c-27 -11 -52 -16 -74 -16c-63 0 -118 22 -166 67s-72 104 -72 176s24 130 72 175s103 68 166 68c44 0 104 -17 136 -62v52h138v-39c44 33 95 49 152 49
c68 0 125 -23 170 -69c46 -45 69 -104 69 -177c0 -13 -1 -27 -2 -43h-342c7 -51 60 -78 115 -78c45 0 79 15 102 44zM297 123c60 0 113 44 113 111s-53 111 -113 111c-31 0 -58 -11 -82 -32c-23 -21 -35 -47 -35 -79s12 -59 35 -80c24 -21 51 -31 82 -31zM597 275h202
c-14 106 -180 107 -202 0zM431 539l110 168h138l-148 -168h-100z" />
    <glyph glyph-name="Oslashacute" unicode="&#x1fe;" horiz-adv-x="779" 
d="M342 761l110 168h138l-148 -168h-100zM170 66l-80 -82l-47 47l80 82c-55 66 -83 143 -83 230c0 98 34 181 101 250c68 69 151 104 248 104c85 0 160 -27 223 -81l79 81l47 -46l-80 -82c54 -66 81 -141 81 -226c0 -97 -34 -181 -102 -250s-151 -103 -248 -103
c-82 0 -155 26 -218 77zM186 343c0 -47 13 -88 39 -125l285 293c-35 27 -75 41 -121 41c-57 0 -105 -20 -144 -61s-59 -90 -59 -148zM389 135c57 0 105 20 144 61c40 41 60 90 60 147c0 44 -13 84 -38 120l-283 -291c34 -25 73 -37 117 -37z" />
    <glyph glyph-name="oslashacute" unicode="&#x1ff;" horiz-adv-x="557" 
d="M204 539l110 168h138l-148 -168h-100zM278 -8c-53 0 -100 14 -141 42l-58 -59l-47 47l56 58c-35 42 -52 94 -52 155c0 72 23 130 70 175s104 67 172 67c55 0 105 -17 150 -50l52 54l47 -46l-53 -54c31 -42 47 -91 47 -146c0 -72 -24 -131 -71 -176s-104 -67 -172 -67z
M278 341c-59 0 -105 -45 -105 -106c0 -21 4 -39 13 -54l143 146c-17 9 -34 14 -51 14zM278 128c60 0 106 43 106 107c0 14 -3 29 -9 44l-139 -143c11 -5 25 -8 42 -8z" />
    <glyph glyph-name="Scommaaccent" unicode="&#x218;" horiz-adv-x="582" 
d="M44 202h147c3 -47 40 -83 103 -83c60 0 100 29 101 73c1 35 -18 59 -83 78l-83 23c-119 37 -178 103 -178 198c0 61 23 110 68 148c45 39 102 58 169 58c68 0 124 -19 167 -57c44 -38 66 -89 66 -154h-146c0 47 -32 78 -89 78c-52 0 -89 -29 -89 -69c0 -33 25 -56 74 -70
l82 -26c129 -37 192 -107 189 -208c-1 -43 -13 -81 -38 -113c-49 -63 -125 -89 -210 -89c-75 0 -135 20 -181 59c-46 40 -69 91 -69 154zM243 -287l-68 35c22 31 37 60 46 88s13 64 12 108h117c-8 -101 -44 -178 -107 -231z" />
    <glyph glyph-name="scommaaccent" unicode="&#x219;" horiz-adv-x="467" 
d="M246 176l-61 16c-65 17 -108 44 -124 75c-15 32 -17 48 -16 77c1 35 19 65 55 92s78 41 127 41c53 0 98 -13 135 -38s56 -64 57 -117h-131c-1 27 -18 41 -53 41c-31 0 -50 -14 -49 -35c1 -17 15 -28 41 -35l79 -21c35 -9 62 -24 82 -43c41 -39 45 -65 45 -93
c0 -47 -20 -83 -61 -108c-40 -25 -87 -38 -141 -38c-51 0 -97 14 -136 43s-58 69 -59 118h130c1 -28 32 -54 69 -54c32 1 57 16 57 39c0 20 -13 31 -46 40zM195 -287l-68 35c22 31 37 60 46 88s13 64 12 108h117c-8 -101 -44 -178 -107 -231z" />
    <glyph glyph-name="circumflex" unicode="&#x2c6;" horiz-adv-x="567" 
d="M105 543l109 168h138l110 -168h-100l-79 89l-78 -89h-100z" />
    <glyph glyph-name="caron" unicode="&#x2c7;" horiz-adv-x="567" 
d="M462 706l-110 -168h-138l-109 168h100l78 -89l79 89h100z" />
    <glyph glyph-name="breve" unicode="&#x2d8;" horiz-adv-x="509" 
d="M120 689h85c0 -35 16 -53 49 -53c32 0 48 18 48 53h87c0 -79 -55 -131 -135 -131c-87 0 -134 59 -134 131z" />
    <glyph glyph-name="dotaccent" unicode="&#x2d9;" horiz-adv-x="386" 
d="M116 645c0 41 34 74 77 74s77 -33 77 -74c0 -44 -33 -75 -77 -75s-77 31 -77 75z" />
    <glyph glyph-name="ring" unicode="&#x2da;" horiz-adv-x="562" 
d="M160 659c0 35 12 64 35 87c23 24 52 36 85 36c34 0 63 -12 86 -36c24 -23 36 -52 36 -87c0 -33 -12 -62 -36 -85c-23 -23 -52 -35 -86 -35c-33 0 -62 12 -85 35s-35 52 -35 85zM225 659c0 -31 24 -55 55 -55c32 0 57 24 57 55c0 33 -25 58 -57 58c-31 0 -55 -25 -55 -58z
" />
    <glyph glyph-name="ogonek" unicode="&#x2db;" horiz-adv-x="531" 
d="M292 -124l1 26l77 4c1 -25 -2 -45 -8 -59c-17 -40 -55 -65 -95 -65c-29 0 -55 10 -76 31c-21 20 -31 44 -31 72c0 19 3 35 10 49l50 93h65l-47 -128c-8 -20 -3 -34 15 -42c19 -5 32 2 39 19z" />
    <glyph glyph-name="tilde" unicode="&#x2dc;" horiz-adv-x="449" 
d="M179 606c-11 0 -25 -15 -26 -43h-75c4 89 52 130 101 130c15 0 32 -7 50 -21c18 -13 30 -20 37 -20c11 0 25 13 26 41h75c-4 -88 -52 -128 -101 -128c-15 0 -31 7 -50 20c-19 14 -31 21 -37 21z" />
    <glyph glyph-name="hungarumlaut" unicode="&#x2dd;" horiz-adv-x="544" 
d="M80 538l110 168h111l-121 -168h-100zM227 538l123 168h114l-132 -168h-105z" />
    <glyph glyph-name="Wgrave" unicode="&#x1e80;" horiz-adv-x="886" 
d="M503 592l91 -337l135 434h159l-234 -689h-115l-97 362l-95 -362h-116l-232 689h158l134 -434l92 337h120zM407 761l-148 168h138l110 -168h-100z" />
    <glyph glyph-name="wgrave" unicode="&#x1e81;" horiz-adv-x="763" 
d="M605 467h148l-164 -467h-116l-92 297l-88 -297h-116l-169 467h148l83 -278l82 278h119l82 -278zM336 539l-148 168h138l110 -168h-100z" />
    <glyph glyph-name="Wacute" unicode="&#x1e82;" horiz-adv-x="886" 
d="M729 689h159l-234 -689h-115l-97 362l-95 -362h-116l-232 689h158l134 -434l92 337h120l91 -337zM378 761l110 168h138l-148 -168h-100z" />
    <glyph glyph-name="wacute" unicode="&#x1e83;" horiz-adv-x="763" 
d="M589 0h-116l-92 297l-88 -297h-116l-169 467h148l83 -278l82 278h119l82 -278l83 278h148zM319 539l110 168h138l-148 -168h-100z" />
    <glyph glyph-name="Wdieresis" unicode="&#x1e84;" horiz-adv-x="886" 
d="M729 689h159l-234 -689h-115l-97 362l-95 -362h-116l-232 689h158l134 -434l92 337h120l91 -337zM283 860c0 37 33 68 73 68c39 0 71 -31 71 -68c0 -39 -32 -69 -71 -69c-40 0 -73 30 -73 69zM460 860c0 37 33 68 73 68c39 0 71 -31 71 -68c0 -39 -32 -69 -71 -69
c-40 0 -73 30 -73 69z" />
    <glyph glyph-name="wdieresis" unicode="&#x1e85;" horiz-adv-x="763" 
d="M589 0h-116l-92 297l-88 -297h-116l-169 467h148l83 -278l82 278h119l82 -278l83 278h148zM220 638c0 37 33 68 73 68c39 0 71 -31 71 -68c0 -39 -32 -69 -71 -69c-40 0 -73 30 -73 69zM397 638c0 37 33 68 73 68c39 0 71 -31 71 -68c0 -39 -32 -69 -71 -69
c-40 0 -73 30 -73 69z" />
    <glyph glyph-name="Ygrave" unicode="&#x1ef2;" horiz-adv-x="651" 
d="M400 310v-310h-149v312l-266 377h174l166 -258l168 258h174zM300 761l-148 168h138l110 -168h-100z" />
    <glyph glyph-name="ygrave" unicode="&#x1ef3;" horiz-adv-x="510" 
d="M358 467h148l-288 -696h-147l112 277l-180 419h148l103 -265zM250 539l-148 168h138l110 -168h-100z" />
    <glyph glyph-name="thinspace" unicode="&#x2009;" horiz-adv-x="14" 
 />
    <glyph glyph-name="endash" unicode="&#x2013;" horiz-adv-x="634" 
d="M574 173h-514v124h514v-124z" />
    <glyph glyph-name="emdash" unicode="&#x2014;" horiz-adv-x="847" 
d="M787 173h-727v124h727v-124z" />
    <glyph glyph-name="quoteleft" unicode="&#x2018;" horiz-adv-x="281" 
d="M202 697l54 -31c-17 -23 -28 -40 -34 -49s-15 -26 -27 -50c-24 -48 -33 -97 -33 -161h-114c0 56 17 112 52 168s69 97 102 123z" />
    <glyph glyph-name="quoteright" unicode="&#x2019;" horiz-adv-x="272" 
d="M88 406l-54 31c17 23 28 40 34 49s15 26 27 50c24 48 33 97 33 161h114c0 -56 -18 -112 -53 -168s-68 -97 -101 -123z" />
    <glyph glyph-name="quotesinglbase" unicode="&#x201a;" horiz-adv-x="256" 
d="M42 -124l-54 31c17 23 28 40 34 49s15 26 27 50c24 48 33 97 33 161h114c0 -56 -18 -112 -53 -168s-68 -97 -101 -123z" />
    <glyph glyph-name="quotedblleft" unicode="&#x201c;" horiz-adv-x="452" 
d="M373 697l54 -31c-17 -23 -28 -40 -34 -49s-15 -26 -27 -50c-24 -48 -33 -97 -33 -161h-114c0 56 17 112 52 168s69 97 102 123zM202 697l54 -31c-17 -23 -28 -40 -34 -49s-15 -26 -27 -50c-24 -48 -33 -97 -33 -161h-114c0 56 17 112 52 168s69 97 102 123z" />
    <glyph glyph-name="quotedblright" unicode="&#x201d;" horiz-adv-x="443" 
d="M88 406l-54 31c17 23 28 40 34 49s15 26 27 50c24 48 33 97 33 161h114c0 -56 -18 -112 -53 -168s-68 -97 -101 -123zM259 406l-54 31c17 23 28 40 34 49s15 26 27 50c24 48 33 97 33 161h114c0 -56 -18 -112 -53 -168s-68 -97 -101 -123z" />
    <glyph glyph-name="quotedblbase" unicode="&#x201e;" horiz-adv-x="427" 
d="M42 -124l-54 31c17 23 28 40 34 49s15 26 27 50c24 48 33 97 33 161h114c0 -56 -18 -112 -53 -168s-68 -97 -101 -123zM213 -124l-54 31c17 23 28 40 34 49s15 26 27 50c24 48 33 97 33 161h114c0 -56 -18 -112 -53 -168s-68 -97 -101 -123z" />
    <glyph glyph-name="dagger" unicode="&#x2020;" horiz-adv-x="410" 
d="M143 689h124v-163h105v-98h-105v-521h-124v521h-105v98h105v163z" />
    <glyph glyph-name="daggerdbl" unicode="&#x2021;" horiz-adv-x="442" 
d="M159 689h124v-163h105v-98h-105v-200h105v-97h-105v-224h-124v224h-105v97h105v200h-105v98h105v163z" />
    <glyph glyph-name="bullet" unicode="&#x2022;" horiz-adv-x="488" 
d="M131 128c-31 29 -47 66 -47 110s16 81 47 110s69 44 113 44s82 -15 113 -44s47 -66 47 -110s-16 -81 -47 -110s-69 -44 -113 -44s-82 15 -113 44z" />
    <glyph glyph-name="ellipsis" unicode="&#x2026;" horiz-adv-x="865" 
d="M226 74c0 -48 -39 -84 -87 -84s-86 36 -86 84s38 83 86 83s87 -36 87 -83zM519 74c0 -48 -39 -84 -87 -84s-86 36 -86 84s38 83 86 83s87 -36 87 -83zM812 74c0 -48 -39 -84 -87 -84s-86 36 -86 84s38 83 86 83s87 -36 87 -83z" />
    <glyph glyph-name="perthousand" unicode="&#x2030;" horiz-adv-x="1013" 
d="M540 655l-322 -655h-69l322 655h69zM75 433c-25 26 -38 58 -38 95s13 69 38 95c26 26 58 39 95 39s69 -13 95 -39s39 -58 39 -95s-13 -69 -39 -95c-26 -25 -58 -38 -95 -38s-69 13 -95 38zM133 565c-20 -20 -20 -54 0 -74s54 -20 74 0c21 20 21 54 0 74
c-20 21 -54 21 -74 0zM658 123c0 -37 -13 -69 -39 -95c-26 -25 -58 -38 -95 -38s-69 13 -95 38c-25 26 -38 58 -38 95s13 69 38 95c26 26 58 39 95 39s69 -13 95 -40c26 -26 39 -57 39 -94zM472 123c0 -31 23 -52 52 -52s53 23 53 52s-24 53 -53 53s-52 -24 -52 -53z
M845 257c37 0 68 -13 94 -40c27 -26 40 -57 40 -94s-13 -69 -39 -95c-26 -25 -58 -38 -95 -38s-69 13 -95 38c-25 26 -38 58 -38 95s13 69 38 95c26 26 58 39 95 39zM793 123c0 -31 21 -52 52 -52c46 0 72 57 37 89c-32 35 -89 9 -89 -37z" />
    <glyph glyph-name="guilsinglleft" unicode="&#x2039;" horiz-adv-x="328" 
d="M177 26l-138 207l138 207h108l-138 -207l138 -207h-108z" />
    <glyph glyph-name="guilsinglright" unicode="&#x203a;" horiz-adv-x="328" 
d="M151 440l138 -207l-138 -207h-108l138 207l-138 207h108z" />
    <glyph glyph-name="fraction" unicode="&#x2044;" horiz-adv-x="180" 
d="M272 668h82l-451 -678h-83z" />
    <glyph glyph-name="zerosuperior" unicode="&#x2070;" horiz-adv-x="351" 
d="M34 624c0 131 47 197 142 197c94 0 141 -66 141 -197s-47 -196 -141 -196c-95 0 -142 65 -142 196zM114 624c0 -79 21 -118 62 -118s61 39 61 118s-20 119 -61 119s-62 -40 -62 -119z" />
    <glyph glyph-name="foursuperior" unicode="&#x2074;" horiz-adv-x="342" 
d="M317 519h-48v-85h-81v85h-182l179 295h84v-227h48v-68zM188 706l-72 -119h72v119z" />
    <glyph glyph-name="fivesuperior" unicode="&#x2075;" horiz-adv-x="342" 
d="M58 526l34 22c17 -27 39 -40 66 -40c44 0 76 27 76 60c0 40 -29 62 -70 62c-38 0 -66 -14 -84 -41l-44 23l31 202h222v-74h-158l-11 -63c15 13 39 20 70 20c72 0 124 -48 124 -129c0 -83 -61 -140 -156 -140c-52 0 -105 32 -134 77c1 0 12 7 34 21z" />
    <glyph glyph-name="sixsuperior" unicode="&#x2076;" horiz-adv-x="339" 
d="M146 591c-19 -20 -19 -52 0 -72c20 -19 52 -19 72 0c20 20 20 52 0 72s-52 20 -72 0zM312 748l-75 -32c-9 20 -24 30 -44 30c-52 0 -73 -50 -70 -110c7 19 39 43 76 43c61 0 117 -47 117 -128c0 -73 -57 -123 -138 -123c-73 0 -128 52 -135 132c-5 53 -3 98 6 136
c19 86 68 128 147 125c56 -3 95 -27 116 -73z" />
    <glyph glyph-name="sevensuperior" unicode="&#x2077;" horiz-adv-x="324" 
d="M27 814h286l-169 -380h-91l135 306h-161v74z" />
    <glyph glyph-name="eightsuperior" unicode="&#x2078;" horiz-adv-x="346" 
d="M144 738c-13 -13 -13 -36 0 -51c15 -15 44 -15 57 0c15 15 15 38 0 51c-13 15 -42 15 -57 0zM109 561c0 -32 29 -58 64 -58s64 26 64 58c0 29 -27 56 -58 56h-13c-32 0 -57 -27 -57 -56zM56 715c0 29 11 54 34 75s51 31 83 31s59 -10 82 -31s35 -46 35 -75
c0 -27 -9 -48 -28 -63c37 -22 55 -53 55 -93c0 -36 -14 -67 -43 -93c-28 -25 -62 -38 -101 -38s-73 13 -102 38c-28 26 -42 57 -42 93c0 40 18 71 55 93c-19 17 -28 38 -28 63z" />
    <glyph glyph-name="ninesuperior" unicode="&#x2079;" horiz-adv-x="339" 
d="M199 658c20 20 20 52 0 72c-19 20 -51 20 -71 0s-20 -52 0 -72c20 -19 52 -19 71 0zM34 502l75 32c9 -21 24 -31 44 -31c52 0 73 51 70 111c-7 -19 -37 -43 -76 -43c-61 0 -117 47 -117 128c0 73 55 122 138 122c73 0 129 -52 136 -132c5 -65 0 -121 -20 -176
c-20 -53 -66 -88 -134 -85c-55 3 -94 27 -116 74z" />
    <glyph glyph-name="zeroinferior" unicode="&#x2080;" horiz-adv-x="350" 
d="M34 40c0 131 47 197 142 197c94 0 141 -66 141 -197s-47 -196 -141 -196c-95 0 -142 65 -142 196zM114 40c0 -79 21 -118 62 -118s61 39 61 118s-20 119 -61 119s-62 -40 -62 -119z" />
    <glyph glyph-name="oneinferior" unicode="&#x2081;" horiz-adv-x="215" 
d="M86 -150v273l-65 -27v70l145 69v-385h-80z" />
    <glyph glyph-name="twoinferior" unicode="&#x2082;" horiz-adv-x="320" 
d="M31 -150v43l156 185c13 15 20 30 20 44c0 21 -19 38 -48 38c-28 0 -50 -21 -54 -53l-74 13c12 72 61 117 133 117c34 0 63 -11 87 -33c25 -21 37 -49 37 -82c0 -34 -13 -66 -40 -96l-88 -100h118v-76h-247z" />
    <glyph glyph-name="threeinferior" unicode="&#x2083;" horiz-adv-x="317" 
d="M104 141l-64 40c23 36 67 59 118 56c65 -4 115 -51 112 -106c0 -32 -16 -57 -49 -75c41 -15 69 -62 65 -103c-3 -33 -19 -59 -48 -80s-63 -31 -101 -28c-52 4 -100 36 -121 80l70 35c12 -21 31 -34 57 -37c28 -1 52 19 55 40c0 15 -1 24 -3 29c-7 16 -24 24 -49 23h-40
v69h40c25 0 38 14 38 42c0 17 -15 37 -39 37c-17 0 -31 -7 -41 -22z" />
    <glyph glyph-name="fourinferior" unicode="&#x2084;" horiz-adv-x="344" 
d="M319 -65h-48v-85h-81v85h-182l179 295h84v-227h48v-68zM190 122l-72 -119h72v119z" />
    <glyph glyph-name="fiveinferior" unicode="&#x2085;" horiz-adv-x="339" 
d="M91 -36c17 -27 39 -40 66 -40c44 0 76 27 76 60c0 40 -29 62 -70 62c-38 0 -66 -14 -84 -41l-44 23l31 202h222v-74h-158l-11 -63c15 13 39 20 70 20c72 0 124 -48 124 -129c0 -83 -61 -140 -156 -140c-52 0 -105 32 -134 77c1 0 12 7 34 22c22 14 33 21 34 21z" />
    <glyph glyph-name="sixinferior" unicode="&#x2086;" horiz-adv-x="339" 
d="M146 7c-19 -20 -19 -52 0 -71c20 -20 52 -20 72 0c20 19 20 51 0 71s-52 20 -72 0zM312 164l-75 -32c-9 20 -24 30 -44 30c-52 0 -73 -50 -70 -110c7 19 39 43 76 43c61 0 117 -47 117 -128c0 -73 -57 -123 -138 -123c-73 0 -128 52 -135 132c-5 53 -3 98 6 136
c19 86 68 128 147 125c56 -3 95 -27 116 -73z" />
    <glyph glyph-name="seveninferior" unicode="&#x2087;" horiz-adv-x="311" 
d="M23 230h286l-169 -380h-91l135 306h-161v74z" />
    <glyph glyph-name="eightinferior" unicode="&#x2088;" horiz-adv-x="346" 
d="M144 154c-13 -13 -13 -36 0 -51c15 -15 44 -15 57 0c15 15 15 38 0 51c-13 15 -42 15 -57 0zM109 -23c0 -32 29 -58 64 -58s64 26 64 58c0 29 -27 56 -58 56h-13c-32 0 -57 -27 -57 -56zM56 131c0 29 11 54 34 75s51 31 83 31s59 -10 82 -31s35 -46 35 -75
c0 -27 -9 -48 -28 -63c37 -22 55 -53 55 -93c0 -36 -14 -67 -43 -92c-28 -26 -62 -39 -101 -39s-73 13 -102 39c-28 25 -42 56 -42 92c0 40 18 71 55 93c-19 17 -28 38 -28 63z" />
    <glyph glyph-name="nineinferior" unicode="&#x2089;" horiz-adv-x="339" 
d="M199 74c20 20 20 52 0 72c-19 20 -51 20 -71 0s-20 -52 0 -72c20 -19 52 -19 71 0zM34 -82l75 32c9 -21 24 -31 44 -31c52 0 73 51 70 111c-7 -19 -37 -43 -76 -43c-61 0 -117 47 -117 128c0 73 55 122 138 122c73 0 129 -52 136 -132c5 -65 0 -122 -20 -175
c-20 -55 -66 -89 -134 -86c-55 3 -94 27 -116 74z" />
    <glyph glyph-name="colonmonetary" unicode="&#x20a1;" horiz-adv-x="710" 
d="M333 -6l-37 -106l-58 21l35 99c-23 7 -43 16 -62 27l-40 -112l-58 21l46 129c-76 65 -121 163 -121 270c-4 191 151 356 343 354l39 108l58 -22l-33 -91c23 -4 45 -10 66 -18l34 96l58 -22l-36 -100c42 -25 77 -57 104 -97l-119 -82c-11 16 -23 29 -35 39l-136 -380h3
c71 0 133 38 172 95l118 -82c-61 -93 -167 -151 -290 -151c-19 0 -36 1 -51 4zM398 558l-138 -385c18 -16 38 -27 59 -34l145 403c-23 10 -45 15 -66 16zM185 343c0 -43 10 -82 29 -115l115 323c-87 -25 -144 -108 -144 -208z" />
    <glyph glyph-name="lira" unicode="&#x20a4;" horiz-adv-x="683" 
d="M405 228h-115v-104h184c17 0 30 16 30 36v29h137v-56c0 -38 -12 -70 -37 -95c-24 -25 -54 -38 -89 -38h-471v124h106v104h-83v63h83v47h-83v63h83v72c0 67 20 121 59 162c40 41 91 62 154 62c66 0 120 -20 163 -59s64 -96 64 -171h-145c0 55 -26 82 -79 82
c-45 0 -76 -29 -76 -76v-72h115v-63h-115v-47h115v-63z" />
    <glyph glyph-name="uni20A6" unicode="&#x20a6;" horiz-adv-x="782" 
d="M131 0v212h-76v68h76v157h-76v68h76v184h134l105 -184h131v184h147v-184h81v-68h-81v-157h81v-68h-81v-212h-131l-122 212h-118v-212h-146zM501 437h-92l90 -157h2v157zM356 280l-79 137v-137h79z" />
    <glyph glyph-name="peseta" unicode="&#x20a7;" horiz-adv-x="755" 
d="M483 438h-213v-72h129c44 0 75 31 84 72zM270 560v-63h211c-12 36 -39 63 -78 63h-133zM720 497v-59h-88c-5 -57 -27 -105 -66 -143c-38 -38 -91 -57 -160 -57h-136v-238h-147v438h-78v59h78v192h283c67 0 119 -18 157 -55s61 -82 68 -137h89z" />
    <glyph glyph-name="rupee" unicode="&#x20a8;" horiz-adv-x="717" 
d="M376 445h-315v59h309c-15 37 -40 56 -75 56h-234l-1 129h613v-59h-210c35 -33 57 -75 64 -126h146v-59h-143c-7 -99 -66 -180 -171 -201l171 -244h-176l-154 238h-139v128h230c47 0 77 35 85 79z" />
    <glyph glyph-name="uni20A9" unicode="&#x20a9;" horiz-adv-x="1007" 
d="M292 0l-52 155h-178v68h155l-51 151h-104v68h81l-83 247h158l76 -247h109l41 150h120l40 -150h109l77 247h159l-84 -247h79v-68h-102l-52 -151h154v-68h-177l-52 -155h-115l-42 155h-110l-40 -155h-116zM540 223l-37 139l-37 -139h74zM384 374h-69l37 -119zM692 374h-69
l32 -119z" />
    <glyph glyph-name="afii57636" unicode="&#x20aa;" horiz-adv-x="953" 
d="M658 332v-119h-140v93c0 52 -41 92 -102 92h-190v-398h-140v538h361c63 0 113 -20 152 -59s59 -88 59 -147zM295 206v119h140v-93c0 -52 41 -92 102 -92h190v398h140v-538h-361c-63 0 -114 20 -153 59s-58 88 -58 147z" />
    <glyph glyph-name="Euro" unicode="&#x20ac;" horiz-adv-x="829" 
d="M309 435h230v-63h-493v63h109c19 77 60 139 121 188s133 74 214 74c120 0 226 -57 287 -146l-119 -82c-41 60 -97 90 -168 90c-83 0 -150 -49 -181 -124zM539 319v-63h-232c29 -77 99 -128 183 -128c71 0 133 38 172 95l118 -82c-61 -93 -167 -151 -290 -151
c-82 0 -154 25 -216 74c-61 50 -101 114 -120 192h-108v63h493z" />
    <glyph glyph-name="uni2113" unicode="&#x2113;" horiz-adv-x="401" 
d="M183 521v-240l27 3c15 0 23 13 23 38v200c0 39 -8 58 -23 58c-27 -5 -27 -26 -27 -59zM234 113l98 -7v-106h-123c-99 0 -149 57 -149 170v357c0 113 50 170 149 170c98 0 147 -59 147 -177v-186c0 -55 -12 -97 -36 -126s-70 -43 -137 -43c0 -24 4 -50 51 -52z" />
    <glyph glyph-name="afii61352" unicode="&#x2116;" horiz-adv-x="984" 
d="M603 0h-131l-240 417v-417h-146v689h134l236 -412v412h147v-689zM805 697c37 0 68 -13 94 -40c27 -26 40 -57 40 -94s-13 -69 -39 -95c-26 -25 -58 -38 -95 -38s-69 13 -95 38c-25 26 -38 58 -38 95s13 69 38 95c26 26 58 39 95 39zM747 563c0 -33 25 -58 58 -58
c51 0 79 63 41 99c-36 38 -99 10 -99 -41zM932 318h-254v67h254v-67z" />
    <glyph glyph-name="trademark" unicode="&#x2122;" horiz-adv-x="851" 
d="M419 325h-83l36 289h-108v-289h-84v289h-118v75h388l111 -226l108 226h72l44 -364h-84l-25 222l-85 -181h-60l-85 181z" />
    <glyph glyph-name="estimated" unicode="&#x212e;" horiz-adv-x="646" 
d="M604 279h-429v-193c44 -42 95 -63 152 -63c101 0 157 46 210 127l31 -19c-59 -91 -125 -141 -241 -141c-79 0 -144 28 -195 84c-51 57 -76 125 -76 206c0 82 25 151 75 206c50 56 117 84 200 84s149 -28 198 -85c50 -56 75 -125 75 -206zM175 312h309v163
c-45 41 -96 62 -153 62c-64 0 -116 -21 -156 -62v-163z" />
    <glyph glyph-name="minus" unicode="&#x2212;" horiz-adv-x="505" 
d="M437 312v-102h-369v102h369z" />
    <glyph glyph-name="notequal" unicode="&#x2260;" horiz-adv-x="602" 
d="M530 149h-265l-51 -105h-70l51 105h-125v98h173l50 103h-223v98h271l47 96h71l-47 -96h118v-98h-166l-51 -103h217v-98z" />
    <glyph glyph-name="lessequal" unicode="&#x2264;" horiz-adv-x="639" 
d="M564 139l-502 192v112l502 192l1 -110l-362 -138l362 -138zM67 86h497v-86h-497v86z" />
    <glyph glyph-name="greaterequal" unicode="&#x2265;" horiz-adv-x="639" 
d="M75 635l502 -192v-112l-502 -192l-1 110l362 138l-362 138zM572 0h-497v86h497v-86z" />
    <glyph glyph-name="commaaccent" unicode="&#xf6c3;" horiz-adv-x="315" 
d="M138 -287l-68 35c22 31 37 60 46 88s13 64 12 108h117c-8 -101 -44 -178 -107 -231z" />
    <glyph glyph-name="rupiah" unicode="&#xf6dd;" horiz-adv-x="1191" 
d="M344 560h-128v-194h124c53 0 87 48 87 97c0 48 -32 97 -83 97zM408 244l171 -244h-176l-154 238h-33v-238h-147v689h282c73 0 130 -22 169 -67c40 -44 60 -97 60 -159c0 -105 -60 -195 -172 -219zM797 232c0 -68 48 -111 108 -111s108 46 108 111c0 67 -48 113 -108 113
s-108 -48 -108 -113zM656 -229v696h138v-58c23 43 77 68 137 68c62 0 115 -23 159 -68c45 -45 67 -103 67 -174c0 -73 -22 -132 -67 -177c-44 -45 -97 -68 -159 -68c-60 0 -114 26 -137 67v-286h-138z" />
    <glyph glyph-name="apple" unicode="&#xf8ff;" horiz-adv-x="847" 
d="M80 687h687v-687h-687v687zM426 332l-262 263v-377h81l-74 75v178l255 -253l256 253v-178l-74 -75h84v377zM193 96l-14 36h-15v-53h9v37l13 -37h10l11 37v-37h9v53h-14zM248 132c-17 0 -25 -9 -25 -27c0 -15 9 -26 25 -26c15 0 23 13 23 26c0 15 -8 27 -23 27zM248 89
c-9 0 -17 9 -17 16c0 8 8 17 17 17c8 0 12 -6 12 -17s-4 -16 -12 -16zM284 99h-13c0 -13 7 -20 22 -20s22 6 22 17c0 7 -5 12 -15 14c-11 2 -16 4 -16 6c0 4 3 6 9 6c7 0 10 -2 10 -6h9c0 11 -6 16 -19 16s-19 -5 -19 -16c0 -5 5 -10 16 -15c9 0 13 -2 13 -5
c0 -5 -3 -7 -10 -7c-6 0 -9 3 -9 10zM315 132v-10h17v-43h8v43h15v10h-40zM398 79l-21 53h-9l-22 -53h12l4 13h22l3 -13h11zM371 119h3l7 -18h-16zM426 132h-28v-53h9v22h13c6 0 9 -3 9 -9v-13h13c-2 2 -3 6 -3 13c0 6 -2 10 -7 13c5 2 7 6 7 11c0 11 -4 16 -13 16zM420 108
h-13v14h13c6 0 9 -2 9 -6c0 -5 -3 -8 -9 -8zM466 132h-20v-53h20c17 0 25 10 25 29c0 16 -8 24 -25 24zM466 89h-8v33h4c11 0 17 -6 17 -17c0 -8 -6 -16 -13 -16zM531 122v10h-37v-53h40v10h-28v12h25v9h-25v12h25zM543 99h-9c0 -13 7 -20 22 -20s22 6 22 17
c0 7 -5 12 -15 14c-11 2 -17 4 -17 6c0 4 2 6 7 6c8 0 12 -2 12 -6h10c0 11 -6 16 -19 16s-41 -15 -3 -31c8 0 12 -2 12 -5c0 -5 -3 -7 -9 -7c-9 0 -13 3 -13 10zM589 79v53h-7v-53h7zM633 86l4 -7h6v29h-22v-9h12c-3 -7 -7 -10 -12 -10c-9 0 -16 9 -16 16c0 8 7 17 16 17
c6 0 9 -3 9 -10h13c-3 13 -10 20 -22 20c-15 0 -25 -12 -25 -27c0 -13 10 -26 25 -26c6 0 10 2 12 7zM679 99l-22 33h-8v-53h8v33l22 -33h13v53h-13v-33z" />
    <glyph glyph-name="published" horiz-adv-x="797" 
d="M368 428v-81h55c49 0 48 81 2 81h-57zM284 503h142c76 0 117 -51 117 -115c0 -63 -41 -115 -117 -115h-58v-106h-84v336zM150 93c-67 69 -101 152 -101 250s34 181 101 250c68 69 151 104 248 104s180 -35 248 -104s102 -152 102 -250s-34 -181 -102 -250
s-151 -103 -248 -103s-180 34 -248 103zM206 537c-53 -53 -79 -118 -79 -194s26 -141 79 -194s117 -80 192 -80s139 27 192 80s79 118 79 194s-26 141 -79 194c-53 54 -117 81 -192 81s-139 -27 -192 -81z" />
    <glyph glyph-name="frenchfranc" horiz-adv-x="746" 
d="M499 0h-132v299h-130v-299h-147v689h431v-129h-284v-137h262v-108c23 83 70 123 122 123c37 0 67 -6 90 -17l-25 -127c-21 11 -44 16 -71 16c-77 0 -116 -62 -116 -186v-124z" />
    <glyph glyph-name="parenleft.case" horiz-adv-x="388" 
d="M356 809v-109c-33 0 -65 -17 -96 -51s-56 -79 -75 -135s-29 -114 -29 -174c0 -91 21 -172 62 -245c42 -72 88 -108 138 -108v-108c-91 0 -166 43 -227 129c-60 87 -90 197 -90 332s30 246 90 335c61 89 136 134 227 134z" />
    <glyph glyph-name="parenright.case" horiz-adv-x="388" 
d="M32 -121v108c50 0 96 36 137 108c42 73 63 154 63 245c0 60 -10 118 -29 174c-39 112 -106 186 -171 186v109c91 0 166 -45 226 -134c61 -89 91 -200 91 -335s-30 -245 -91 -332c-60 -86 -135 -129 -226 -129z" />
    <glyph glyph-name="hyphen.case" horiz-adv-x="475" 
d="M414 281h-353v132h353v-132z" />
    <glyph glyph-name="at.case" horiz-adv-x="964" 
d="M583 217v126c0 33 -11 60 -34 83s-50 34 -82 34s-59 -11 -82 -34s-34 -50 -34 -83c0 -31 11 -58 34 -81s51 -34 82 -34c29 0 56 8 79 25v-94c-29 -13 -56 -19 -79 -19c-57 0 -105 20 -145 59s-60 87 -60 144s20 106 60 145c40 40 88 60 145 60c55 0 103 -19 142 -56
c41 -37 62 -83 64 -139v-142c0 -43 27 -60 60 -60c41 0 72 30 85 74c15 45 20 87 20 131c0 95 -35 174 -106 237c-71 64 -156 96 -255 96c-96 0 -177 -34 -244 -103c-66 -68 -99 -151 -99 -248s33 -179 99 -246c67 -67 148 -100 244 -100h33v-89h-33
c-121 0 -224 42 -307 126s-125 187 -125 309s42 226 125 311c84 86 186 129 307 129c239 6 455 -186 451 -422c0 -119 -50 -293 -195 -293c-85 0 -150 47 -150 154z" />
    <glyph glyph-name="bracketleft.case" horiz-adv-x="338" 
d="M304 -116h-231v918h231v-101h-113v-714h113v-103z" />
    <glyph glyph-name="bracketright.case" horiz-adv-x="338" 
d="M34 802h231v-918h-231v103h113v714h-113v101z" />
    <glyph glyph-name="braceleft.case" horiz-adv-x="412" 
d="M31 300v84c32 0 61 23 61 58v159c-1 59 18 107 57 144s88 56 145 56h85v-101h-88c-45 0 -82 -38 -82 -86v-164c0 -56 -40 -97 -79 -108c39 -11 79 -52 79 -108v-153c0 -49 38 -93 82 -93h88v-105h-85c-57 0 -106 19 -145 56s-58 85 -57 144v159c0 35 -29 58 -61 58z" />
    <glyph glyph-name="braceright.case" horiz-adv-x="412" 
d="M381 384v-84c-32 0 -61 -23 -61 -58v-159c1 -59 -19 -107 -58 -144s-87 -56 -144 -56h-85v105h88c44 0 82 44 82 93v153c0 56 40 97 79 108c-39 11 -79 52 -79 108v164c0 48 -37 86 -82 86h-88v101h85c57 0 105 -19 144 -56s59 -85 58 -144v-159c0 -35 29 -58 61 -58z
" />
    <glyph glyph-name="exclamdown.case" horiz-adv-x="284" 
d="M199 477l20 -487h-154l20 487h114zM228 613c0 -47 -39 -83 -87 -83s-86 35 -86 83s38 84 86 84s87 -36 87 -84z" />
    <glyph glyph-name="guillemotleft.case" horiz-adv-x="527" 
d="M186 138l-138 207l138 207h108l-138 -207l138 -207h-108zM363 138l-138 207l138 207h108l-138 -207l138 -207h-108z" />
    <glyph glyph-name="periodcentered.case" horiz-adv-x="279" 
d="M226 368c0 -47 -39 -83 -87 -83s-86 35 -86 83s38 84 86 84s87 -36 87 -84z" />
    <glyph glyph-name="guillemotright.case" horiz-adv-x="527" 
d="M341 552l138 -207l-138 -207h-108l138 207l-138 207h108zM164 552l138 -207l-138 -207h-108l138 207l-138 207h108z" />
    <glyph glyph-name="questiondown.case" horiz-adv-x="496" 
d="M222 457l2 22h136l2 -22c0 -26 0 -46 -1 -59s-3 -27 -7 -44c-10 -47 -37 -65 -101 -98l-40 -17c-32 -17 -37 -30 -37 -55c0 -31 30 -54 71 -54c43 0 71 28 71 69h140c0 -63 -19 -114 -58 -152s-90 -57 -153 -57s-114 18 -153 53s-58 83 -58 142c0 95 54 164 134 189
c40 12 52 34 52 83zM203 613c0 48 39 84 87 84s86 -36 86 -84s-38 -83 -86 -83s-87 36 -87 83z" />
    <glyph glyph-name="endash.case" horiz-adv-x="642" 
d="M578 285h-514v124h514v-124z" />
    <glyph glyph-name="emdash.case" horiz-adv-x="855" 
d="M791 285h-727v124h727v-124z" />
    <glyph glyph-name="bullet.case" horiz-adv-x="470" 
d="M122 240c-31 29 -47 66 -47 110s16 81 47 110s69 44 113 44s82 -15 113 -44s47 -66 47 -110s-16 -81 -47 -110s-69 -44 -113 -44s-82 15 -113 44z" />
    <glyph glyph-name="guilsinglleft.case" horiz-adv-x="350" 
d="M186 138l-138 207l138 207h108l-138 -207l138 -207h-108z" />
    <glyph glyph-name="guilsinglright.case" horiz-adv-x="350" 
d="M164 552l138 -207l-138 -207h-108l138 207l-138 207h108z" />
    <glyph glyph-name="cent.case" horiz-adv-x="539" 
d="M246 697h73v-106c77 -7 136 -40 177 -98l-113 -81c-20 31 -50 47 -90 47c-31 0 -58 -10 -81 -31c-23 -20 -35 -46 -35 -78c0 -33 12 -60 35 -81s50 -31 81 -31c40 0 70 16 90 47l113 -80c-41 -59 -100 -92 -177 -99v-115h-73v118c-59 11 -109 38 -148 81s-59 97 -59 160
s20 115 59 158s89 69 148 80v109z" />
    <glyph glyph-name="zero.tnum" horiz-adv-x="580" 
d="M46 328c0 227 82 340 245 340c92 0 158 -36 193 -100c36 -64 50 -140 50 -240s-14 -174 -50 -238c-35 -64 -101 -100 -193 -100c-163 0 -245 113 -245 338zM186 328c0 -135 35 -202 105 -202c69 0 103 67 103 202c0 136 -34 204 -103 204c-70 0 -105 -68 -105 -204z" />
    <glyph glyph-name="one.tnum" horiz-adv-x="580" 
d="M140 544l252 120v-664h-140v469l-112 -48v123z" />
    <glyph glyph-name="two.tnum" horiz-adv-x="580" 
d="M493 132v-132h-426v76l269 319c23 27 35 51 35 74c0 36 -31 65 -82 65c-49 0 -85 -38 -93 -91l-128 22c20 125 106 203 229 203c59 0 110 -19 151 -56c42 -37 63 -85 63 -143c0 -59 -23 -114 -69 -166l-151 -171h202z" />
    <glyph glyph-name="three.tnum" horiz-adv-x="580" 
d="M272 284h-69v120h69c43 0 64 24 64 71c0 27 -22 63 -66 63c-31 0 -54 -12 -69 -36l-113 69c40 63 117 102 204 97c56 -3 103 -22 140 -59c37 -36 55 -78 54 -125c0 -52 -33 -100 -84 -128c35 -13 64 -37 85 -72s30 -70 27 -106c-5 -56 -33 -102 -84 -139
c-51 -36 -109 -52 -174 -47c-91 5 -173 61 -209 137l123 61c7 -15 21 -30 40 -43s38 -19 57 -20c48 -3 90 34 94 70c2 13 9 90 -89 87z" />
    <glyph glyph-name="four.tnum" horiz-adv-x="580" 
d="M321 469l-122 -204h122v204zM545 265v-118h-83v-147h-141v147h-313l306 508h148v-390h83z" />
    <glyph glyph-name="five.tnum" horiz-adv-x="580" 
d="M399 231c0 71 -49 107 -121 107c-51 0 -111 -20 -144 -72l-77 40l54 349h384v-128h-273l-17 -106c25 23 65 34 120 34c61 0 112 -20 153 -59s61 -94 61 -165s-25 -129 -74 -174s-115 -67 -196 -67c-91 0 -181 53 -232 132l118 76c25 -40 73 -68 114 -68
c75 0 130 46 130 101z" />
    <glyph glyph-name="six.tnum" horiz-adv-x="580" 
d="M332 422c52 0 98 -19 139 -58s62 -93 62 -163c0 -63 -22 -114 -66 -153c-43 -39 -101 -58 -172 -58c-63 0 -116 21 -160 62c-44 42 -69 97 -75 166c-16 202 19 459 265 450c89 -4 158 -35 202 -127l-131 -56c-17 35 -42 52 -76 52c-93 -2 -127 -99 -120 -189
c5 16 20 32 43 49s53 25 89 25zM362 148c35 35 35 88 0 121c-33 35 -86 35 -121 0c-33 -33 -33 -86 0 -121c35 -33 88 -33 121 0z" />
    <glyph glyph-name="seven.tnum" horiz-adv-x="580" 
d="M58 526v129h494l-289 -655h-159l231 526h-277z" />
    <glyph glyph-name="eight.tnum" horiz-adv-x="580" 
d="M88 485c0 51 20 94 59 129c40 36 88 54 143 54s103 -18 143 -54c40 -35 60 -78 60 -129c0 -45 -16 -81 -48 -110c57 -33 94 -94 94 -165c0 -62 -24 -114 -73 -157c-48 -42 -107 -63 -176 -63s-128 21 -177 63c-48 43 -72 95 -72 157c0 71 35 132 94 165
c-31 30 -47 67 -47 110zM181 217c0 -55 50 -97 109 -97s109 42 109 97c0 53 -41 98 -110 98c-68 0 -108 -45 -108 -98zM223 481c0 -36 24 -63 67 -63s67 27 67 63c0 33 -26 61 -67 61s-67 -28 -67 -61z" />
    <glyph glyph-name="nine.tnum" horiz-adv-x="580" 
d="M250 236c-52 0 -99 19 -140 58s-61 93 -61 163c0 63 22 114 65 153c44 39 102 58 173 58c63 0 116 -21 160 -63c44 -41 69 -96 75 -165c16 -202 -19 -459 -265 -450c-89 4 -158 35 -202 127l131 56c17 -35 42 -52 76 -52c30 0 55 10 74 30c39 40 49 95 46 159
c-17 -49 -61 -74 -132 -74zM219 509c-33 -33 -33 -86 0 -121c35 -33 88 -33 121 0c35 35 35 88 0 121c-33 35 -86 35 -121 0z" />
    <glyph glyph-name="zero.taboldstyle" horiz-adv-x="580" 
d="M289 -8c-69 0 -129 25 -180 74s-76 113 -76 190c0 78 25 141 75 190c51 49 111 74 181 74c71 0 131 -24 181 -73c51 -49 76 -112 76 -191c0 -77 -25 -141 -76 -190c-50 -49 -110 -74 -181 -74zM289 122c33 0 63 12 88 37s38 58 38 97s-13 71 -38 96s-55 37 -88 37
s-62 -12 -87 -37s-37 -57 -37 -96s12 -72 37 -97s54 -37 87 -37z" />
    <glyph glyph-name="one.taboldstyle" horiz-adv-x="580" 
d="M137 395l270 122v-517h-140v314l-130 -51v132z" />
    <glyph glyph-name="two.taboldstyle" horiz-adv-x="580" 
d="M496 122v-122h-419v80l235 232c21 20 32 36 32 47c0 24 -21 43 -56 43c-43 0 -67 -20 -72 -59l-136 16c13 104 86 171 209 171c61 0 110 -16 149 -49c39 -32 59 -70 59 -114c0 -46 -21 -86 -62 -121l-136 -124h197z" />
    <glyph glyph-name="six.taboldstyle" horiz-adv-x="580" 
d="M332 422c52 0 98 -19 139 -58s62 -93 62 -163c0 -63 -22 -114 -66 -153c-43 -39 -101 -58 -172 -58c-63 0 -116 21 -160 62c-44 42 -69 97 -75 166c-16 202 19 459 265 450c89 -4 158 -35 202 -127l-131 -56c-17 35 -42 52 -76 52c-93 -2 -127 -99 -120 -189
c5 16 20 32 43 49s53 25 89 25zM362 148c35 35 35 88 0 121c-33 35 -86 35 -121 0c-33 -33 -33 -86 0 -121c35 -33 88 -33 121 0z" />
    <glyph glyph-name="eight.taboldstyle" horiz-adv-x="580" 
d="M88 485c0 51 20 94 59 129c40 36 88 54 143 54s103 -18 143 -54c40 -35 60 -78 60 -129c0 -45 -16 -81 -48 -110c57 -33 94 -94 94 -165c0 -62 -24 -114 -73 -157c-48 -42 -107 -63 -176 -63s-128 21 -177 63c-48 43 -72 95 -72 157c0 71 35 132 94 165
c-31 30 -47 67 -47 110zM181 217c0 -55 50 -97 109 -97s109 42 109 97c0 53 -41 98 -110 98c-68 0 -108 -45 -108 -98zM223 481c0 -36 24 -63 67 -63s67 27 67 63c0 33 -26 61 -67 61s-67 -28 -67 -61z" />
    <glyph glyph-name="three.taboldstyle" horiz-adv-x="580" 
d="M274 93h-69v120h69c43 0 64 24 64 71c0 27 -22 63 -66 63c-31 0 -54 -12 -69 -36l-113 69c40 63 117 102 204 97c56 -3 103 -22 140 -59c37 -36 55 -78 54 -125c0 -52 -33 -100 -84 -128c35 -13 64 -37 85 -72s30 -70 27 -106c-5 -56 -33 -102 -84 -138
c-51 -37 -109 -53 -174 -48c-91 5 -173 61 -209 137l123 61c7 -15 21 -29 40 -42s38 -20 57 -21c48 -3 90 34 94 70c2 13 9 90 -89 87z" />
    <glyph glyph-name="four.taboldstyle" horiz-adv-x="580" 
d="M322 280l-122 -204h122v204zM546 76v-118h-83v-147h-141v147h-313l306 508h148v-390h83z" />
    <glyph glyph-name="five.taboldstyle" horiz-adv-x="580" 
d="M399 43c0 71 -49 107 -121 107c-51 0 -111 -20 -144 -72l-77 40l54 349h384v-128h-273l-17 -106c25 23 65 34 120 34c61 0 112 -20 153 -59s61 -94 61 -165s-25 -128 -74 -173s-115 -68 -196 -68c-91 0 -181 53 -232 132l118 76c25 -40 73 -68 114 -68
c75 0 130 46 130 101z" />
    <glyph glyph-name="seven.taboldstyle" horiz-adv-x="580" 
d="M59 338v129h494l-289 -655h-159l231 526h-277z" />
    <glyph glyph-name="nine.taboldstyle" horiz-adv-x="580" 
d="M253 45c-52 0 -99 19 -140 58s-61 93 -61 163c0 63 22 114 65 153c44 39 102 58 173 58c63 0 116 -21 160 -63c44 -41 69 -96 75 -165c16 -202 -19 -459 -265 -450c-89 4 -158 35 -202 127l131 56c17 -35 42 -52 76 -52c30 0 55 10 74 30c39 40 49 95 46 159
c-17 -49 -61 -74 -132 -74zM222 318c-33 -33 -33 -86 0 -121c35 -33 88 -33 121 0c35 35 35 88 0 121c-33 35 -86 35 -121 0z" />
    <glyph glyph-name="zero.oldstyle" horiz-adv-x="631" 
d="M315 -8c-69 0 -129 25 -180 74s-76 113 -76 190c0 78 25 141 75 190c51 49 111 74 181 74c71 0 131 -24 181 -73c51 -49 76 -112 76 -191c0 -77 -25 -141 -76 -190c-50 -49 -110 -74 -181 -74zM315 122c33 0 63 12 88 37s38 58 38 97s-13 71 -38 96s-55 37 -88 37
s-62 -12 -87 -37s-37 -57 -37 -96s12 -72 37 -97s54 -37 87 -37z" />
    <glyph glyph-name="one.oldstyle" horiz-adv-x="387" 
d="M41 395l270 122v-517h-140v314l-130 -51v132z" />
    <glyph glyph-name="two.oldstyle" horiz-adv-x="542" 
d="M477 122v-122h-419v80l235 232c21 20 32 36 32 47c0 24 -21 43 -56 43c-43 0 -67 -20 -72 -59l-136 16c13 104 86 171 209 171c61 0 110 -16 149 -49c39 -32 59 -70 59 -114c0 -46 -21 -86 -62 -121l-136 -124h197z" />
    <glyph glyph-name="three.oldstyle" horiz-adv-x="531" 
d="M250 93h-69v120h69c43 0 64 24 64 71c0 27 -22 63 -66 63c-31 0 -54 -12 -69 -36l-113 69c40 63 117 102 204 97c56 -3 103 -22 140 -59c37 -36 55 -78 54 -125c0 -52 -33 -100 -84 -128c35 -13 64 -37 85 -72s30 -70 27 -106c-5 -56 -33 -102 -84 -138
c-51 -37 -109 -53 -174 -48c-91 5 -173 61 -209 137l123 61c7 -15 21 -29 40 -42s38 -20 57 -21c48 -3 90 34 94 70c2 13 9 90 -89 87z" />
    <glyph glyph-name="four.oldstyle" horiz-adv-x="587" 
d="M326 280l-122 -204h122v204zM550 76v-118h-83v-147h-141v147h-313l306 508h148v-390h83z" />
    <glyph glyph-name="five.oldstyle" horiz-adv-x="577" 
d="M398 42c0 71 -49 107 -121 107c-51 0 -111 -20 -144 -72l-77 40l54 349h384v-128h-273l-17 -106c25 23 65 34 120 34c61 0 112 -20 153 -59s61 -94 61 -165s-25 -128 -74 -173s-115 -68 -196 -68c-91 0 -181 53 -232 132l118 76c25 -40 73 -68 114 -68
c75 0 130 46 130 101z" />
    <glyph glyph-name="six.oldstyle" horiz-adv-x="586" 
d="M335 422c52 0 98 -19 139 -58s62 -93 62 -163c0 -63 -22 -114 -66 -153c-43 -39 -101 -58 -172 -58c-63 0 -116 21 -160 62c-44 42 -69 97 -75 166c-16 202 19 459 265 450c89 -4 158 -35 202 -127l-131 -56c-17 35 -42 52 -76 52c-93 -2 -127 -99 -120 -189
c5 16 20 32 43 49s53 25 89 25zM365 148c35 35 35 88 0 121c-33 35 -86 35 -121 0c-33 -33 -33 -86 0 -121c35 -33 88 -33 121 0z" />
    <glyph glyph-name="seven.oldstyle" horiz-adv-x="528" 
d="M33 338v129h494l-289 -655h-159l231 526h-277z" />
    <glyph glyph-name="eight.oldstyle" horiz-adv-x="596" 
d="M96 485c0 51 20 94 59 129c40 36 88 54 143 54s103 -18 143 -54c40 -35 60 -78 60 -129c0 -45 -16 -81 -48 -110c57 -33 94 -94 94 -165c0 -62 -24 -114 -73 -157c-48 -42 -107 -63 -176 -63s-128 21 -177 63c-48 43 -72 95 -72 157c0 71 35 132 94 165
c-31 30 -47 67 -47 110zM189 217c0 -55 50 -97 109 -97s109 42 109 97c0 53 -41 98 -110 98c-68 0 -108 -45 -108 -98zM231 481c0 -36 24 -63 67 -63s67 27 67 63c0 33 -26 61 -67 61s-67 -28 -67 -61z" />
    <glyph glyph-name="nine.oldstyle" horiz-adv-x="566" 
d="M246 45c-52 0 -99 19 -140 58s-61 93 -61 163c0 63 22 114 65 153c44 39 102 58 173 58c63 0 116 -21 160 -63c44 -41 69 -96 75 -165c16 -202 -19 -459 -265 -450c-89 4 -158 35 -202 127l131 56c17 -35 42 -52 76 -52c30 0 55 10 74 30c39 40 49 95 46 159
c-17 -49 -61 -74 -132 -74zM215 318c-33 -33 -33 -86 0 -121c35 -33 88 -33 121 0c35 35 35 88 0 121c-33 35 -86 35 -121 0z" />
    <glyph glyph-name="Lslash.sc" horiz-adv-x="435" 
d="M211 566v-168l75 47v-78l-75 -47v-208h209v-112h-336v240l-59 -36v78l59 37v247h127z" />
    <glyph glyph-name="Zcaron.sc" horiz-adv-x="516" 
d="M110 760h88l63 -70l64 70h88l-93 -142h-118zM47 0v95l254 360h-243v111h406v-94l-255 -360h255v-112h-417z" />
    <glyph glyph-name="exclam.sc" horiz-adv-x="289" 
d="M96 167l-17 399h130l-16 -399h-97zM92 10c-28 28 -28 74 0 101c29 27 75 27 103 0c29 -27 29 -73 0 -101c-28 -27 -74 -27 -103 0z" />
    <glyph glyph-name="ampersand.sc" horiz-adv-x="590" 
d="M355 205v42h-68c-65 0 -100 -20 -106 -61c-4 -45 34 -78 82 -78c31 0 72 21 87 64c3 11 5 22 5 33zM266 344h89v64h112v-64h65v-97h-65v-80c0 -30 5 -49 14 -58c10 -8 31 -12 62 -12v-105c-51 1 -88 5 -112 12c-24 8 -41 26 -51 53c-11 -21 -29 -37 -56 -49
s-53 -18 -78 -18c-56 0 -103 16 -140 47c-37 32 -55 72 -55 121c0 72 29 120 86 143c-43 17 -64 54 -64 112c0 41 16 77 49 110s73 50 118 50c70 0 125 -25 165 -76l-101 -63c-15 15 -30 22 -45 22c-37 0 -55 -24 -55 -52c0 -1 -1 -60 62 -60z" />
    <glyph glyph-name="question.sc" horiz-adv-x="427" 
d="M154 401h-114l-3 -3c0 105 70 173 175 173c104 0 174 -63 174 -162c0 -77 -44 -136 -111 -156c-31 -9 -35 -20 -39 -57l-3 -28h-117l-1 20c0 91 25 138 98 167c45 19 52 28 52 55c0 21 -22 40 -53 40c-32 0 -55 -21 -58 -49zM103 61c0 41 33 71 73 71c41 0 75 -30 75 -71
c0 -40 -34 -71 -75 -71c-40 0 -73 31 -73 71z" />
    <glyph glyph-name="A.sc" 
d="M428 0l-49 132h-189l-50 -132h-133l210 566h134l210 -566h-133zM231 242h107l-55 182z" />
    <glyph glyph-name="B.sc" horiz-adv-x="550" 
d="M475 407c0 -49 -24 -84 -71 -104c65 -20 100 -77 100 -128c0 -49 -17 -91 -50 -125c-33 -33 -77 -50 -132 -50h-244v566h228c103 0 169 -62 169 -159zM204 454v-108h90c29 0 49 22 49 54c0 33 -18 54 -50 54h-89zM313 240h-109v-128h111c35 0 57 30 57 66
c0 32 -23 62 -59 62z" />
    <glyph glyph-name="C.sc" horiz-adv-x="599" 
d="M467 188l102 -71c-51 -79 -139 -127 -240 -127c-81 0 -148 28 -203 84c-55 57 -82 125 -82 205c0 81 27 150 82 207s122 85 203 85c99 0 185 -48 238 -124l-103 -70c-34 50 -79 75 -135 75c-45 0 -83 -17 -113 -50s-45 -74 -45 -123c0 -47 15 -88 45 -121
c31 -33 68 -49 113 -49c56 0 107 30 138 79z" />
    <glyph glyph-name="D.sc" horiz-adv-x="604" 
d="M300 0h-222v566h222c80 0 143 -27 188 -80c46 -53 69 -122 69 -205s-23 -150 -69 -203c-45 -52 -108 -78 -188 -78zM204 451v-336h96c41 0 73 16 96 48s35 71 35 118c0 96 -48 170 -131 170h-96z" />
    <glyph glyph-name="E.sc" horiz-adv-x="499" 
d="M78 0v566h361v-112h-236v-120h207v-110h-207v-112h243v-112h-368z" />
    <glyph glyph-name="F.sc" horiz-adv-x="466" 
d="M78 0v566h357v-112h-231v-120h183v-111h-183v-223h-126z" />
    <glyph glyph-name="G.sc" horiz-adv-x="641" 
d="M549 476l-91 -79h-4c-32 37 -72 56 -120 56c-46 0 -85 -17 -117 -51c-31 -34 -47 -75 -47 -123c0 -47 16 -87 48 -122c32 -34 71 -51 116 -51c31 0 61 8 88 25c28 17 42 38 43 64h-150v103h295c0 -205 -105 -308 -276 -308c-81 0 -150 28 -206 84c-56 57 -84 125 -84 205
c0 81 28 150 84 207s125 85 206 85c85 0 164 -36 215 -95z" />
    <glyph glyph-name="H.sc" horiz-adv-x="600" 
d="M395 566h127v-566h-127v225h-192v-225h-125v566h125v-228h192v228z" />
    <glyph glyph-name="I.sc" horiz-adv-x="281" 
d="M78 566h125v-566h-125v566z" />
    <glyph glyph-name="J.sc" horiz-adv-x="282" 
d="M-69 -177l11 114c20 -7 45 -10 75 -10c41 0 61 30 61 74v565h126v-565c0 -115 -58 -193 -187 -193c-21 0 -49 5 -86 15z" />
    <glyph glyph-name="K.sc" horiz-adv-x="528" 
d="M481 566l-214 -280l265 -286h-164l-163 185v-185h-127v566h127v-175l128 175h148z" />
    <glyph glyph-name="L.sc" horiz-adv-x="428" 
d="M78 0v566h126v-454h209v-112h-335z" />
    <glyph glyph-name="M.sc" horiz-adv-x="772" 
d="M220 566l166 -356l165 356h106l68 -566h-126l-38 326l-126 -262h-96l-127 262l-39 -326h-126l69 566h104z" />
    <glyph glyph-name="N.sc" horiz-adv-x="582" 
d="M504 566v-566h-111l-190 329v-329h-125v566h114l186 -324v324h126z" />
    <glyph glyph-name="O.sc" horiz-adv-x="662" 
d="M44 279c0 81 28 150 83 207s123 85 203 85c81 0 149 -28 204 -85c56 -57 84 -126 84 -207c0 -80 -28 -148 -84 -205c-55 -56 -123 -84 -204 -84c-80 0 -148 28 -203 84c-55 57 -83 125 -83 205zM169 279c0 -45 16 -84 47 -116s69 -48 114 -48s84 16 115 48
c32 32 48 71 48 116c0 46 -16 85 -48 118c-31 33 -70 49 -115 49s-83 -16 -114 -49s-47 -72 -47 -118z" />
    <glyph glyph-name="P.sc" horiz-adv-x="529" 
d="M78 0v566h233c61 0 108 -18 140 -55c33 -37 49 -81 49 -132s-16 -95 -49 -131c-32 -36 -79 -54 -140 -54h-107v-194h-126zM309 454h-105v-150h101c41 0 68 36 68 75c0 37 -25 75 -64 75z" />
    <glyph glyph-name="Q.sc" horiz-adv-x="667" 
d="M504 45l54 -90l-90 -55l-61 99c-23 -6 -48 -9 -73 -9c-81 0 -150 28 -206 84c-56 57 -84 125 -84 205c0 81 28 150 84 207s125 85 206 85s150 -28 206 -85s84 -126 84 -207c0 -93 -45 -179 -120 -234zM295 184l91 54l54 -88c39 36 58 79 58 129c0 48 -16 89 -48 122
c-32 34 -71 51 -116 51c-46 0 -85 -17 -117 -51c-31 -33 -47 -74 -47 -122c0 -80 53 -146 128 -162c12 -3 26 -5 42 -5l-28 44z" />
    <glyph glyph-name="R.sc" horiz-adv-x="550" 
d="M362 199l141 -199h-153l-125 194h-21v-194h-126v566h233c60 0 107 -19 140 -56s50 -80 50 -131c0 -84 -50 -157 -139 -180zM305 454h-101v-150h97c90 -2 88 152 4 150z" />
    <glyph glyph-name="S.sc" horiz-adv-x="500" 
d="M46 169h126c3 -39 31 -66 80 -66c47 0 78 20 79 55c0 28 -13 47 -65 60l-68 20c-97 29 -146 83 -146 163c0 51 19 92 56 123c37 32 84 48 139 48c113 0 193 -69 193 -178h-125c0 37 -25 63 -68 63c-40 0 -70 -23 -70 -52c0 -25 19 -43 58 -55l67 -20
c129 -36 156 -115 156 -172c0 -54 -21 -96 -62 -125s-89 -43 -144 -43c-61 0 -111 17 -149 50s-57 76 -57 129z" />
    <glyph glyph-name="T.sc" horiz-adv-x="471" 
d="M21 452v114h429v-114h-150v-452h-128v452h-151z" />
    <glyph glyph-name="U.sc" horiz-adv-x="584" 
d="M386 201v365h126v-365c0 -63 -21 -114 -64 -153s-94 -58 -155 -58s-113 19 -156 58s-65 90 -65 153v365h128v-365c0 -53 44 -92 93 -92s93 39 93 92z" />
    <glyph glyph-name="V.sc" horiz-adv-x="505" 
d="M24 566h131l97 -355l97 355h132l-173 -566h-111z" />
    <glyph glyph-name="W.sc" horiz-adv-x="759" 
d="M502 224l108 342h136l-193 -566h-98l-76 284l-75 -284h-99l-191 566h136l106 -343l72 264h103z" />
    <glyph glyph-name="X.sc" horiz-adv-x="573" 
d="M539 566l-179 -264l198 -302h-149l-123 198l-121 -198h-149l195 302l-178 264h152l101 -164l103 164h150z" />
    <glyph glyph-name="Y.sc" horiz-adv-x="575" 
d="M351 255v-255h-128v256l-219 310h150l133 -206l133 206h152z" />
    <glyph glyph-name="Z.sc" horiz-adv-x="516" 
d="M47 0v95l254 360h-243v111h406v-94l-255 -360h255v-112h-417z" />
    <glyph glyph-name="Scaron.sc" horiz-adv-x="500" 
d="M100 760h89l62 -71l65 71h87l-92 -142h-118zM46 169h126c3 -39 31 -66 80 -66c47 0 78 20 79 55c0 28 -13 47 -65 60l-68 20c-97 29 -146 83 -146 163c0 51 19 92 56 123c37 32 84 48 139 48c113 0 193 -69 193 -178h-125c0 37 -25 63 -68 63c-40 0 -70 -23 -70 -52
c0 -25 19 -43 58 -55l67 -20c129 -36 156 -115 156 -172c0 -54 -21 -96 -62 -125s-89 -43 -144 -43c-61 0 -111 17 -149 50s-57 76 -57 129z" />
    <glyph glyph-name="OE.sc" horiz-adv-x="916" 
d="M495 512v54h361v-111h-235v-121h205v-110h-205v-112h242v-112h-368v48c-48 -39 -102 -58 -163 -58c-80 0 -148 28 -204 84c-56 57 -84 125 -84 205c0 81 28 150 83 207c56 57 124 85 205 85c65 0 120 -20 163 -59zM170 279c0 -45 16 -84 47 -116s70 -48 115 -48
s83 16 114 48c32 32 48 71 48 116c0 46 -16 85 -48 118c-31 33 -69 49 -114 49s-84 -16 -115 -49s-47 -72 -47 -118z" />
    <glyph glyph-name="Ydieresis.sc" horiz-adv-x="575" 
d="M351 255v-255h-128v256l-219 310h150l133 -206l133 206h152zM154 703c0 33 27 58 62 58s60 -25 60 -58c0 -35 -25 -59 -60 -59s-62 24 -62 59zM298 703c0 33 27 58 62 58s60 -25 60 -58c0 -35 -25 -59 -60 -59s-62 24 -62 59z" />
    <glyph glyph-name="exclamdown.sc" horiz-adv-x="287" 
d="M192 399l16 -399h-130l17 399h97zM91 455c-28 27 -28 73 0 100c29 28 75 28 103 0c29 -27 29 -73 0 -100c-28 -27 -74 -27 -103 0z" />
    <glyph glyph-name="questiondown.sc" horiz-adv-x="430" 
d="M275 160h114l3 3c0 -105 -70 -173 -175 -173c-104 0 -174 63 -174 162c0 77 44 136 111 156c31 9 35 20 39 57l3 28h117l1 -20c0 -91 -25 -138 -98 -167c-45 -19 -52 -28 -52 -55c0 -21 22 -40 53 -40c32 0 55 21 58 49zM326 500c0 -41 -33 -71 -73 -71
c-41 0 -75 30 -75 71c0 40 34 71 75 71c40 0 73 -31 73 -71z" />
    <glyph glyph-name="Agrave.sc" 
d="M350 619h-89l-125 142h121zM428 0l-49 132h-189l-50 -132h-133l210 566h134l210 -566h-133zM231 242h107l-55 182z" />
    <glyph glyph-name="Aacute.sc" 
d="M316 761h120l-125 -142h-89zM428 0l-49 132h-189l-50 -132h-133l210 566h134l210 -566h-133zM231 242h107l-55 182z" />
    <glyph glyph-name="Acircumflex.sc" 
d="M434 622h-88l-63 70l-63 -70h-88l92 143h117zM428 0l-49 132h-189l-50 -132h-133l210 566h134l210 -566h-133zM231 242h107l-55 182z" />
    <glyph glyph-name="Atilde.sc" 
d="M428 0l-49 132h-189l-50 -132h-133l210 566h134l210 -566h-133zM231 242h107l-55 182zM248 673c-5 0 -17 -10 -17 -34h-68c4 76 44 111 85 111c11 0 23 -6 37 -17s25 -16 34 -16c4 0 18 7 18 33h67c-3 -77 -44 -110 -85 -110c-9 0 -21 5 -36 16s-26 17 -35 17z" />
    <glyph glyph-name="Adieresis.sc" 
d="M139 703c0 32 28 58 63 58s60 -25 60 -58c0 -35 -25 -59 -60 -59s-63 24 -63 59zM283 703c0 32 28 58 63 58s61 -25 61 -58c0 -35 -26 -59 -61 -59s-63 24 -63 59zM428 0l-49 132h-189l-50 -132h-133l210 566h134l210 -566h-133zM231 242h107l-55 182z" />
    <glyph glyph-name="Aring.sc" 
d="M182 720c0 59 44 103 101 103s102 -46 102 -103s-45 -101 -102 -101s-101 44 -101 101zM283 678c24 0 44 18 44 42s-20 44 -44 44c-23 0 -42 -20 -42 -44s19 -42 42 -42zM428 0l-49 132h-189l-50 -132h-133l210 566h134l210 -566h-133zM231 242h107l-55 182z" />
    <glyph glyph-name="AE.sc" horiz-adv-x="796" 
d="M374 128h-145l-81 -128h-151l358 566h380v-111h-235v-121h206v-110h-206v-112h243v-112h-369v128zM374 390l-73 -140h73v140z" />
    <glyph glyph-name="Ccedilla.sc" horiz-adv-x="601" 
d="M286 -97c3 -13 17 -19 28 -14c12 5 16 15 11 31l-27 73c-73 8 -134 39 -182 94c-47 55 -71 119 -71 194c0 81 27 150 82 207s122 85 203 85c99 0 185 -48 238 -124l-103 -70c-34 50 -79 75 -135 75c-45 0 -83 -17 -113 -50s-45 -74 -45 -123c0 -47 15 -88 45 -121
c31 -33 68 -49 113 -49c56 0 107 30 138 79l102 -72c-49 -74 -118 -116 -208 -125c5 -11 21 -36 24 -43c5 -11 8 -24 8 -41c0 -48 -41 -87 -90 -87s-88 40 -87 107l67 -3c0 -10 1 -18 2 -23z" />
    <glyph glyph-name="Egrave.sc" horiz-adv-x="499" 
d="M78 0v566h361v-112h-236v-120h207v-110h-207v-112h243v-112h-368zM333 619h-89l-126 142h121z" />
    <glyph glyph-name="Eacute.sc" horiz-adv-x="499" 
d="M276 761h121l-126 -142h-89zM439 566v-112h-236v-120h207v-110h-207v-112h243v-112h-368v566h361z" />
    <glyph glyph-name="Ecircumflex.sc" horiz-adv-x="499" 
d="M78 0v566h361v-112h-236v-120h207v-110h-207v-112h243v-112h-368zM397 622h-88l-63 70l-64 -70h-87l91 143h118z" />
    <glyph glyph-name="Edieresis.sc" horiz-adv-x="499" 
d="M112 703c0 33 28 58 63 58c33 0 60 -25 60 -58c0 -35 -27 -59 -60 -59c-36 0 -63 24 -63 59zM256 703c0 33 28 58 63 58c33 0 60 -25 60 -58c0 -35 -27 -59 -60 -59c-36 0 -63 24 -63 59zM439 566v-112h-236v-120h207v-110h-207v-112h243v-112h-368v566h361z" />
    <glyph glyph-name="Igrave.sc" horiz-adv-x="281" 
d="M205 619h-89l-125 142h120zM78 566h125v-566h-125v566z" />
    <glyph glyph-name="Iacute.sc" horiz-adv-x="281" 
d="M72 634l97 132h125l-130 -132h-92zM78 566h125v-566h-125v566z" />
    <glyph glyph-name="Icircumflex.sc" horiz-adv-x="281" 
d="M293 622h-89l-63 70l-62 -70h-89l93 143h116zM78 566h125v-566h-125v566z" />
    <glyph glyph-name="Idieresis.sc" horiz-adv-x="281" 
d="M78 566h125v-566h-125v566zM5 703c0 33 28 58 63 58c33 0 60 -25 60 -58c0 -35 -27 -59 -60 -59c-36 0 -63 24 -63 59zM149 703c0 33 28 58 63 58c33 0 60 -25 60 -58c0 -35 -27 -59 -60 -59c-36 0 -63 24 -63 59z" />
    <glyph glyph-name="Eth.sc" horiz-adv-x="613" 
d="M310 0h-223v234h-76v79h76v253h223c79 0 142 -27 187 -80c46 -53 69 -122 69 -205c0 -82 -23 -149 -69 -202c-45 -53 -108 -79 -187 -79zM213 451v-138h99v-79h-99v-119h97c41 0 73 16 96 48s34 71 34 118c0 97 -47 170 -130 170h-97z" />
    <glyph glyph-name="Ntilde.sc" horiz-adv-x="582" 
d="M504 566v-566h-111l-190 329v-329h-125v566h114l186 -324v324h126zM255 673c-5 0 -17 -10 -17 -34h-68c4 76 44 111 85 111c10 0 22 -6 37 -17s26 -16 34 -16c4 0 18 7 18 33h67c-3 -77 -44 -110 -85 -110c-9 0 -21 5 -36 16s-26 17 -35 17z" />
    <glyph glyph-name="Ograve.sc" horiz-adv-x="662" 
d="M394 619h-88l-126 142h120zM44 279c0 81 28 150 83 207s123 85 203 85c81 0 149 -28 204 -85c56 -57 84 -126 84 -207c0 -80 -28 -148 -84 -205c-55 -56 -123 -84 -204 -84c-80 0 -148 28 -203 84c-55 57 -83 125 -83 205zM169 279c0 -45 16 -84 47 -116s69 -48 114 -48
s84 16 115 48c32 32 48 71 48 116c0 46 -16 85 -48 118c-31 33 -70 49 -115 49s-83 -16 -114 -49s-47 -72 -47 -118z" />
    <glyph glyph-name="Oacute.sc" horiz-adv-x="662" 
d="M365 761h121l-126 -142h-88zM44 279c0 81 28 150 83 207s123 85 203 85c81 0 149 -28 204 -85c56 -57 84 -126 84 -207c0 -80 -28 -148 -84 -205c-55 -56 -123 -84 -204 -84c-80 0 -148 28 -203 84c-55 57 -83 125 -83 205zM169 279c0 -45 16 -84 47 -116s69 -48 114 -48
s84 16 115 48c32 32 48 71 48 116c0 46 -16 85 -48 118c-31 33 -70 49 -115 49s-83 -16 -114 -49s-47 -72 -47 -118z" />
    <glyph glyph-name="Ocircumflex.sc" horiz-adv-x="662" 
d="M482 622h-88l-64 71l-62 -71h-88l92 143h117zM44 279c0 81 28 150 83 207s123 85 203 85c81 0 149 -28 204 -85c56 -57 84 -126 84 -207c0 -80 -28 -148 -84 -205c-55 -56 -123 -84 -204 -84c-80 0 -148 28 -203 84c-55 57 -83 125 -83 205zM169 279
c0 -45 16 -84 47 -116s69 -48 114 -48s84 16 115 48c32 32 48 71 48 116c0 46 -16 85 -48 118c-31 33 -70 49 -115 49s-83 -16 -114 -49s-47 -72 -47 -118z" />
    <glyph glyph-name="Otilde.sc" horiz-adv-x="662" 
d="M44 279c0 81 28 150 83 207s123 85 203 85c81 0 149 -28 204 -85c56 -57 84 -126 84 -207c0 -80 -28 -148 -84 -205c-55 -56 -123 -84 -204 -84c-80 0 -148 28 -203 84c-55 57 -83 125 -83 205zM169 279c0 -45 16 -84 47 -116s69 -48 114 -48s84 16 115 48
c32 32 48 71 48 116c0 46 -16 85 -48 118c-31 33 -70 49 -115 49s-83 -16 -114 -49s-47 -72 -47 -118zM295 673c-5 0 -17 -10 -17 -34h-68c4 76 44 111 85 111c10 0 22 -6 37 -17s26 -16 34 -16c4 0 18 7 18 33h67c-3 -77 -44 -110 -85 -110c-9 0 -21 5 -36 16
s-26 17 -35 17z" />
    <glyph glyph-name="Odieresis.sc" horiz-adv-x="662" 
d="M197 703c0 33 28 58 63 58c33 0 60 -25 60 -58c0 -35 -27 -59 -60 -59c-36 0 -63 24 -63 59zM341 703c0 33 28 58 63 58s60 -25 60 -58c0 -35 -25 -59 -60 -59c-36 0 -63 24 -63 59zM44 279c0 81 28 150 83 207s123 85 203 85c81 0 149 -28 204 -85
c56 -57 84 -126 84 -207c0 -80 -28 -148 -84 -205c-55 -56 -123 -84 -204 -84c-80 0 -148 28 -203 84c-55 57 -83 125 -83 205zM169 279c0 -45 16 -84 47 -116s69 -48 114 -48s84 16 115 48c32 32 48 71 48 116c0 46 -16 85 -48 118c-31 33 -70 49 -115 49s-83 -16 -114 -49
s-47 -72 -47 -118z" />
    <glyph glyph-name="Oslash.sc" horiz-adv-x="661" 
d="M152 51l-66 -67l-42 42l65 67c-44 55 -66 117 -66 186c0 81 28 150 83 207s123 85 203 85c69 0 129 -22 182 -66l64 67l42 -42l-65 -66c43 -54 65 -116 65 -185c0 -80 -28 -148 -84 -205c-55 -56 -123 -84 -204 -84c-64 0 -123 20 -177 61zM168 279c0 -36 10 -68 29 -96
l226 233c-29 20 -60 30 -94 30c-45 0 -83 -16 -114 -49s-47 -72 -47 -118zM329 115c45 0 84 16 115 48c32 32 48 71 48 116c0 36 -10 67 -29 94l-224 -232c25 -17 55 -26 90 -26z" />
    <glyph glyph-name="Ugrave.sc" horiz-adv-x="584" 
d="M362 619h-88l-125 142h121zM386 201v365h126v-365c0 -63 -21 -114 -64 -153s-94 -58 -155 -58s-113 19 -156 58s-65 90 -65 153v365h128v-365c0 -53 44 -92 93 -92s93 39 93 92z" />
    <glyph glyph-name="Uacute.sc" horiz-adv-x="584" 
d="M315 761h120l-125 -142h-89zM386 201v365h126v-365c0 -63 -21 -114 -64 -153s-94 -58 -155 -58s-113 19 -156 58s-65 90 -65 153v365h128v-365c0 -53 44 -92 93 -92s93 39 93 92z" />
    <glyph glyph-name="Ucircumflex.sc" horiz-adv-x="584" 
d="M443 622h-88l-64 71l-62 -71h-89l93 143h117zM386 201v365h126v-365c0 -63 -21 -114 -64 -153s-94 -58 -155 -58s-113 19 -156 58s-65 90 -65 153v365h128v-365c0 -53 44 -92 93 -92s93 39 93 92z" />
    <glyph glyph-name="Udieresis.sc" horiz-adv-x="584" 
d="M158 703c0 32 28 58 63 58s60 -25 60 -58c0 -35 -25 -59 -60 -59s-63 24 -63 59zM302 703c0 32 28 58 63 58s61 -25 61 -58c0 -35 -26 -59 -61 -59s-63 24 -63 59zM386 201v365h126v-365c0 -63 -21 -114 -64 -153s-94 -58 -155 -58s-113 19 -156 58s-65 90 -65 153v365
h128v-365c0 -53 44 -92 93 -92s93 39 93 92z" />
    <glyph glyph-name="Yacute.sc" horiz-adv-x="575" 
d="M351 255v-255h-128v256l-219 310h150l133 -206l133 206h152zM313 761h121l-126 -142h-88z" />
    <glyph glyph-name="Thorn.sc" horiz-adv-x="492" 
d="M278 103h-75v-103h-125v566h125v-91h75c53 0 97 -17 132 -51c35 -33 53 -78 53 -134c0 -55 -18 -100 -53 -135s-79 -52 -132 -52zM203 368v-159h70c35 0 66 32 66 77c0 49 -30 82 -65 82h-71z" />
    <glyph glyph-name="Amacron.sc" 
d="M168 659v75h232v-75h-232zM428 0l-49 132h-189l-50 -132h-133l210 566h134l210 -566h-133zM231 242h107l-55 182z" />
    <glyph glyph-name="Abreve.sc" 
d="M171 746h75c0 -28 12 -42 37 -42c24 0 36 14 36 42h77c0 -67 -46 -111 -113 -111c-72 0 -112 50 -112 111zM428 0l-49 132h-189l-50 -132h-133l210 566h134l210 -566h-133zM231 242h107l-55 182z" />
    <glyph glyph-name="Cacute.sc" horiz-adv-x="599" 
d="M371 761h121l-126 -142h-89zM569 117c-51 -79 -139 -127 -240 -127c-81 0 -148 28 -203 84c-55 57 -82 125 -82 205c0 81 27 150 82 207s122 85 203 85c99 0 185 -48 238 -124l-103 -70c-34 50 -79 75 -135 75c-45 0 -83 -17 -113 -50s-45 -74 -45 -123
c0 -47 15 -88 45 -121c31 -33 68 -49 113 -49c56 0 107 30 138 79z" />
    <glyph glyph-name="Ccircumflex.sc" horiz-adv-x="599" 
d="M477 622h-88l-63 70l-63 -70h-88l92 143h117zM467 188l102 -71c-51 -79 -139 -127 -240 -127c-81 0 -148 28 -203 84c-55 57 -82 125 -82 205c0 81 27 150 82 207s122 85 203 85c99 0 185 -48 238 -124l-103 -70c-34 50 -79 75 -135 75c-45 0 -83 -17 -113 -50
s-45 -74 -45 -123c0 -47 15 -88 45 -121c31 -33 68 -49 113 -49c56 0 107 30 138 79z" />
    <glyph glyph-name="Cdotaccent.sc" horiz-adv-x="599" 
d="M260 708c0 36 29 63 66 63c36 0 66 -27 66 -63c0 -37 -29 -64 -66 -64c-39 0 -66 27 -66 64zM569 117c-51 -79 -139 -127 -240 -127c-81 0 -148 28 -203 84c-55 57 -82 125 -82 205c0 81 27 150 82 207s122 85 203 85c99 0 185 -48 238 -124l-103 -70
c-34 50 -79 75 -135 75c-45 0 -83 -17 -113 -50s-45 -74 -45 -123c0 -47 15 -88 45 -121c31 -33 68 -49 113 -49c56 0 107 30 138 79z" />
    <glyph glyph-name="Ccaron.sc" horiz-adv-x="599" 
d="M168 760h89l62 -70l63 70h89l-94 -142h-116zM467 188l102 -71c-51 -79 -139 -127 -240 -127c-81 0 -148 28 -203 84c-55 57 -82 125 -82 205c0 81 27 150 82 207s122 85 203 85c99 0 185 -48 238 -124l-103 -70c-34 50 -79 75 -135 75c-45 0 -83 -17 -113 -50
s-45 -74 -45 -123c0 -47 15 -88 45 -121c31 -33 68 -49 113 -49c56 0 107 30 138 79z" />
    <glyph glyph-name="Dcaron.sc" horiz-adv-x="608" 
d="M303 0h-225v570h225c80 0 143 -27 189 -81c46 -53 69 -122 69 -206c0 -83 -23 -151 -69 -204s-109 -79 -189 -79zM303 451h-95v-332h95c81 0 129 72 129 164c0 47 -11 87 -34 119c-23 33 -54 49 -95 49zM143 760h88l63 -70l64 70h89l-94 -142h-118z" />
    <glyph glyph-name="Aogonek.sc" 
d="M561 0h-77l-25 -80c-5 -16 -1 -26 11 -31c11 -5 25 1 28 14l2 23l67 3c1 -67 -38 -107 -87 -107s-90 39 -90 87c0 17 3 30 8 41l13 24l16 29l-48 129h-189l-50 -132h-133l210 566h134zM339 242l-55 181l-53 -181h108z" />
    <glyph glyph-name="Emacron.sc" horiz-adv-x="499" 
d="M78 0v566h361v-112h-236v-120h207v-110h-207v-112h243v-112h-368zM129 659v75h232v-75h-232z" />
    <glyph glyph-name="Ebreve.sc" horiz-adv-x="499" 
d="M133 746h75c0 -28 13 -42 38 -42c23 0 35 14 35 42h77c0 -68 -45 -111 -112 -111c-72 0 -113 50 -113 111zM439 566v-112h-236v-120h207v-110h-207v-112h243v-112h-368v566h361z" />
    <glyph glyph-name="Edotaccent.sc" horiz-adv-x="499" 
d="M187 708c0 36 28 63 67 63c36 0 65 -27 65 -63c0 -37 -29 -64 -65 -64c-39 0 -67 27 -67 64zM439 566v-112h-236v-120h207v-110h-207v-112h243v-112h-368v566h361z" />
    <glyph glyph-name="Ecaron.sc" horiz-adv-x="499" 
d="M95 760h87l64 -70l63 70h88l-93 -142h-118zM78 0v566h361v-112h-236v-120h207v-110h-207v-112h243v-112h-368z" />
    <glyph glyph-name="Gcircumflex.sc" horiz-adv-x="641" 
d="M475 622h-89l-63 70l-62 -70h-89l93 143h116zM549 476l-91 -79c-36 37 -77 56 -124 56c-46 0 -85 -17 -117 -51c-31 -34 -47 -75 -47 -123c0 -47 16 -87 48 -122c32 -34 71 -51 116 -51c31 0 61 8 88 25c28 17 42 38 43 64h-150v103h295c0 -205 -105 -308 -276 -308
c-81 0 -150 28 -206 84c-56 57 -84 125 -84 205c0 81 28 150 84 207s125 85 206 85c85 0 164 -36 215 -95z" />
    <glyph glyph-name="Gbreve.sc" horiz-adv-x="641" 
d="M549 476l-91 -79c-36 37 -77 56 -124 56c-46 0 -85 -17 -117 -51c-31 -34 -47 -75 -47 -123c0 -47 16 -87 48 -122c32 -34 71 -51 116 -51c31 0 61 8 88 25c28 17 42 38 43 64h-150v103h295c0 -205 -105 -308 -276 -308c-81 0 -150 28 -206 84c-56 57 -84 125 -84 205
c0 81 28 150 84 207s125 85 206 85c85 0 164 -36 215 -95zM211 746h75c0 -28 12 -42 37 -42c24 0 36 14 36 42h77c0 -67 -46 -111 -113 -111c-72 0 -112 50 -112 111z" />
    <glyph glyph-name="Eogonek.sc" horiz-adv-x="499" 
d="M353 -50l30 50h-305v566h361v-112h-236v-120h207v-110h-207v-112h243v-110l-32 -82c-5 -16 -1 -26 11 -31c11 -5 25 1 28 14l2 23l67 3c1 -67 -38 -107 -87 -107s-90 39 -90 87c0 17 3 30 8 41z" />
    <glyph glyph-name="Dcroat.sc" horiz-adv-x="613" 
d="M310 0h-223v234h-76v79h76v253h223c79 0 142 -27 187 -80c46 -53 69 -122 69 -205c0 -82 -23 -149 -69 -202c-45 -53 -108 -79 -187 -79zM213 451v-138h99v-79h-99v-119h97c41 0 73 16 96 48s34 71 34 118c0 97 -47 170 -130 170h-97z" />
    <glyph glyph-name="Gdotaccent.sc" horiz-adv-x="641" 
d="M549 476l-91 -79h-4c-32 37 -72 56 -120 56c-46 0 -85 -17 -117 -51c-31 -34 -47 -75 -47 -123c0 -47 16 -87 48 -122c32 -34 71 -51 116 -51c31 0 61 8 88 25c28 17 42 38 43 64h-150v103h295c0 -205 -105 -308 -276 -308c-81 0 -150 28 -206 84c-56 57 -84 125 -84 205
c0 81 28 150 84 207s125 85 206 85c85 0 164 -36 215 -95zM266 708c0 36 29 63 66 63c36 0 66 -27 66 -63c0 -37 -29 -64 -66 -64c-39 0 -66 27 -66 64z" />
    <glyph glyph-name="Hcircumflex.sc" horiz-adv-x="600" 
d="M395 566h127v-566h-127v225h-192v-225h-125v566h125v-228h192v228zM451 622h-88l-63 70l-63 -70h-88l92 143h117z" />
    <glyph glyph-name="Hbar.sc" horiz-adv-x="611" 
d="M528 566v-80h59v-65h-59v-421h-127v225h-192v-225h-126v421h-58v65h58v80h126v-80h192v80h127zM209 421v-83h192v83h-192z" />
    <glyph glyph-name="Itilde.sc" horiz-adv-x="269" 
d="M191 574v-582h-113v582h113zM99 673c-5 0 -17 -10 -17 -34h-68c4 76 44 111 85 111c10 0 22 -6 37 -17s26 -16 34 -16c4 0 18 7 18 33h67c-3 -77 -44 -110 -85 -110c-9 0 -21 5 -36 16s-26 17 -35 17z" />
    <glyph glyph-name="Imacron.sc" horiz-adv-x="281" 
d="M25 659v75h232v-75h-232zM78 566h125v-566h-125v566z" />
    <glyph glyph-name="Iogonek.sc" horiz-adv-x="281" 
d="M49 -50l29 54v562h125v-566h-63l-30 -80c-5 -16 -1 -26 11 -31c11 -5 25 1 28 14l2 23l67 3c1 -67 -38 -107 -87 -107s-90 39 -90 87c0 17 3 30 8 41z" />
    <glyph glyph-name="IJ.sc" horiz-adv-x="563" 
d="M212 -177l11 114c20 -7 45 -10 75 -10c41 0 61 30 61 74v565h126v-565c0 -115 -58 -193 -187 -193c-21 0 -49 5 -86 15zM78 566h125v-566h-125v566z" />
    <glyph glyph-name="Jcircumflex.sc" horiz-adv-x="270" 
d="M287 622h-89l-63 70l-63 -70h-88l92 143h117zM-68 -173l11 101c16 -5 39 -7 69 -7c44 0 66 32 66 80v559h114v-559c0 -111 -56 -187 -180 -187c-17 0 -44 4 -80 13z" />
    <glyph glyph-name="Lacute.sc" horiz-adv-x="428" 
d="M169 761h122l-126 -142h-88zM204 566v-454h209v-112h-335v566h126z" />
    <glyph glyph-name="Lcaron.sc" horiz-adv-x="442" 
d="M326 347l-75 24c29 42 49 86 58 132c4 19 6 41 6 64h100c-8 -101 -46 -184 -89 -220zM204 566v-454h209v-112h-335v566h126z" />
    <glyph glyph-name="Ldot.sc" horiz-adv-x="429" 
d="M78 0v566h126v-454h209v-112h-335zM261 254c0 32 26 57 61 57c33 0 60 -25 60 -57c0 -35 -27 -59 -60 -59c-35 0 -61 24 -61 59z" />
    <glyph glyph-name="Nacute.sc" horiz-adv-x="582" 
d="M330 761h120l-126 -142h-88zM393 0l-190 329v-329h-125v566h114l186 -324v324h126v-566h-111z" />
    <glyph glyph-name="Ncaron.sc" horiz-adv-x="582" 
d="M504 566v-566h-111l-190 329v-329h-125v566h114l186 -324v324h126zM134 760h87l64 -70l63 70h88l-93 -142h-118z" />
    <glyph glyph-name="Omacron.sc" horiz-adv-x="662" 
d="M214 659v75h232v-75h-232zM44 279c0 81 28 150 83 207s123 85 203 85c81 0 149 -28 204 -85c56 -57 84 -126 84 -207c0 -80 -28 -148 -84 -205c-55 -56 -123 -84 -204 -84c-80 0 -148 28 -203 84c-55 57 -83 125 -83 205zM169 279c0 -45 16 -84 47 -116s69 -48 114 -48
s84 16 115 48c32 32 48 71 48 116c0 46 -16 85 -48 118c-31 33 -70 49 -115 49s-83 -16 -114 -49s-47 -72 -47 -118z" />
    <glyph glyph-name="Obreve.sc" horiz-adv-x="662" 
d="M218 746h75c0 -28 12 -42 37 -42c24 0 36 14 36 42h77c0 -68 -45 -111 -113 -111c-72 0 -112 50 -112 111zM44 279c0 81 28 150 83 207s123 85 203 85c81 0 149 -28 204 -85c56 -57 84 -126 84 -207c0 -80 -28 -148 -84 -205c-55 -56 -123 -84 -204 -84
c-80 0 -148 28 -203 84c-55 57 -83 125 -83 205zM169 279c0 -45 16 -84 47 -116s69 -48 114 -48s84 16 115 48c32 32 48 71 48 116c0 46 -16 85 -48 118c-31 33 -70 49 -115 49s-83 -16 -114 -49s-47 -72 -47 -118z" />
    <glyph glyph-name="Ohungarumlaut.sc" horiz-adv-x="662" 
d="M345 618l105 142h100l-112 -142h-93zM225 618l94 142h99l-104 -142h-89zM44 279c0 81 28 150 83 207s123 85 203 85c81 0 149 -28 204 -85c56 -57 84 -126 84 -207c0 -80 -28 -148 -84 -205c-55 -56 -123 -84 -204 -84c-80 0 -148 28 -203 84c-55 57 -83 125 -83 205z
M169 279c0 -45 16 -84 47 -116s69 -48 114 -48s84 16 115 48c32 32 48 71 48 116c0 46 -16 85 -48 118c-31 33 -70 49 -115 49s-83 -16 -114 -49s-47 -72 -47 -118z" />
    <glyph glyph-name="Racute.sc" horiz-adv-x="550" 
d="M291 761h121l-126 -142h-89zM503 0h-153l-125 194h-21v-194h-126v566h233c60 0 107 -19 140 -56s50 -80 50 -131c0 -84 -50 -157 -139 -180zM204 454v-150h97c90 -2 88 152 4 150h-101z" />
    <glyph glyph-name="Rcaron.sc" horiz-adv-x="550" 
d="M119 760h89l62 -70l64 70h89l-93 -142h-118zM362 199l141 -199h-153l-125 194h-21v-194h-126v566h233c60 0 107 -19 140 -56s50 -80 50 -131c0 -84 -50 -157 -139 -180zM305 454h-101v-150h97c90 -2 88 152 4 150z" />
    <glyph glyph-name="Sacute.sc" horiz-adv-x="500" 
d="M286 761h120l-125 -142h-89zM172 169c3 -39 31 -66 80 -66c47 0 78 20 79 55c0 28 -13 47 -65 60l-68 20c-97 29 -146 83 -146 163c0 51 19 92 56 123c37 32 84 48 139 48c113 0 193 -69 193 -178h-125c0 37 -25 63 -68 63c-40 0 -70 -23 -70 -52c0 -25 19 -43 58 -55
l67 -20c129 -36 156 -115 156 -172c0 -54 -21 -96 -62 -125s-89 -43 -144 -43c-61 0 -111 17 -149 50s-57 76 -57 129h126z" />
    <glyph glyph-name="Scircumflex.sc" horiz-adv-x="500" 
d="M403 622h-87l-64 70l-63 -70h-88l92 143h118zM46 169h126c3 -39 31 -66 80 -66c47 0 78 20 79 55c0 28 -13 47 -65 60l-68 20c-97 29 -146 83 -146 163c0 51 19 92 56 123c37 32 84 48 139 48c113 0 193 -69 193 -178h-125c0 37 -25 63 -68 63c-40 0 -70 -23 -70 -52
c0 -25 19 -43 58 -55l67 -20c129 -36 156 -115 156 -172c0 -54 -21 -96 -62 -125s-89 -43 -144 -43c-61 0 -111 17 -149 50s-57 76 -57 129z" />
    <glyph glyph-name="Scedilla.sc" horiz-adv-x="499" 
d="M289 -7c5 -11 21 -36 24 -43c5 -11 8 -24 8 -41c0 -48 -41 -87 -90 -87s-88 40 -87 107l67 -3c0 -10 1 -18 2 -23c3 -13 17 -19 28 -14c12 5 16 15 11 31l-27 72c-108 9 -178 81 -178 178h125c1 -37 31 -67 80 -67c47 0 78 20 79 55c1 27 -14 47 -65 60l-67 19
c-97 29 -146 84 -146 164c0 50 19 91 56 122c37 32 83 48 138 48c56 0 102 -16 138 -48c36 -31 54 -74 54 -129h-124c0 37 -25 62 -69 62c-40 0 -70 -21 -70 -52c0 -25 20 -43 59 -54l66 -21c40 -13 72 -30 97 -51c49 -43 59 -80 58 -120c-1 -96 -74 -154 -167 -165z" />
    <glyph glyph-name="Utilde.sc" horiz-adv-x="584" 
d="M386 201v365h126v-365c0 -63 -21 -114 -64 -153s-94 -58 -155 -58s-113 19 -156 58s-65 90 -65 153v365h128v-365c0 -53 44 -92 93 -92s93 39 93 92zM257 673c-5 0 -17 -10 -17 -34h-68c4 76 44 111 85 111c10 0 22 -6 37 -17s26 -16 34 -16c4 0 18 7 18 33h67
c-3 -77 -44 -110 -85 -110c-9 0 -21 5 -36 16s-26 17 -35 17z" />
    <glyph glyph-name="Umacron.sc" horiz-adv-x="584" 
d="M176 659v75h233v-75h-233zM386 201v365h126v-365c0 -63 -21 -114 -64 -153s-94 -58 -155 -58s-113 19 -156 58s-65 90 -65 153v365h128v-365c0 -53 44 -92 93 -92s93 39 93 92z" />
    <glyph glyph-name="Ubreve.sc" horiz-adv-x="584" 
d="M180 746h75c0 -28 12 -42 36 -42c25 0 37 14 37 42h77c0 -67 -47 -111 -114 -111c-72 0 -111 50 -111 111zM386 201v365h126v-365c0 -63 -21 -114 -64 -153s-94 -58 -155 -58s-113 19 -156 58s-65 90 -65 153v365h128v-365c0 -53 44 -92 93 -92s93 39 93 92z" />
    <glyph glyph-name="Uring.sc" horiz-adv-x="584" 
d="M291 823c57 0 103 -44 103 -103c0 -57 -44 -101 -103 -101c-56 0 -100 44 -100 101s44 103 100 103zM291 678c57 -4 57 88 0 86c-23 0 -41 -20 -41 -44s18 -42 41 -42zM386 201v365h126v-365c0 -63 -21 -114 -64 -153s-94 -58 -155 -58s-113 19 -156 58s-65 90 -65 153
v365h128v-365c0 -53 44 -92 93 -92s93 39 93 92z" />
    <glyph glyph-name="Uhungarumlaut.sc" horiz-adv-x="584" 
d="M386 201v365h126v-365c0 -63 -21 -114 -64 -153s-94 -58 -155 -58s-113 19 -156 58s-65 90 -65 153v365h128v-365c0 -53 44 -92 93 -92s93 39 93 92zM285 618l105 142h100l-112 -142h-93zM165 618l94 142h99l-104 -142h-89z" />
    <glyph glyph-name="Uogonek.sc" horiz-adv-x="584" 
d="M229 -50l23 46c-51 9 -94 32 -129 69c-34 37 -51 83 -51 138v363h128v-363c0 -53 44 -92 93 -92s93 39 93 92v363h126v-363c0 -58 -19 -106 -56 -145c-37 -38 -84 -60 -139 -65l-27 -73c-5 -16 -1 -26 11 -31c11 -5 25 1 28 14l2 23l67 3c1 -67 -38 -107 -87 -107
s-90 39 -90 87c0 17 3 30 8 41z" />
    <glyph glyph-name="Wcircumflex.sc" horiz-adv-x="759" 
d="M532 622h-89l-63 70l-64 -70h-87l92 143h117zM502 224l108 342h136l-193 -566h-98l-76 284l-75 -284h-99l-191 566h136l106 -343l72 264h103z" />
    <glyph glyph-name="Ycircumflex.sc" horiz-adv-x="575" 
d="M438 622h-88l-63 70l-63 -70h-88l92 143h117zM351 255v-255h-128v256l-219 310h150l133 -206l133 206h152z" />
    <glyph glyph-name="Tcaron.sc" horiz-adv-x="490" 
d="M179 452h-159v114h450v-114h-159v-452h-132v452zM95 760h87l64 -70l63 70h88l-93 -142h-118z" />
    <glyph glyph-name="Tbar.sc" horiz-adv-x="471" 
d="M173 244h-78v75h78v132h-151v113h427v-113h-150v-132h77v-75h-77v-244h-126v244z" />
    <glyph glyph-name="Zacute.sc" horiz-adv-x="516" 
d="M47 0v95l254 360h-243v111h406v-94l-255 -360h255v-112h-417zM287 761h121l-127 -142h-88z" />
    <glyph glyph-name="Zdotaccent.sc" horiz-adv-x="516" 
d="M47 0v95l254 360h-243v111h406v-94l-255 -360h255v-112h-417zM203 708c0 36 29 63 66 63s66 -27 66 -63c0 -37 -29 -64 -66 -64s-66 27 -66 64z" />
    <glyph glyph-name="Wgrave.sc" horiz-adv-x="759" 
d="M438 619h-89l-125 142h120zM502 224l108 342h136l-193 -566h-98l-76 284l-75 -284h-99l-191 566h136l106 -343l72 264h103z" />
    <glyph glyph-name="Wacute.sc" horiz-adv-x="759" 
d="M414 761h121l-126 -142h-89zM746 566l-193 -566h-98l-76 284l-75 -284h-99l-191 566h136l106 -343l72 264h103l71 -263l108 342h136z" />
    <glyph glyph-name="Wdieresis.sc" horiz-adv-x="759" 
d="M246 703c0 33 28 58 63 58c33 0 61 -26 61 -58c0 -35 -28 -59 -61 -59c-36 0 -63 24 -63 59zM390 703c0 33 28 58 63 58c33 0 61 -26 61 -58c0 -35 -28 -59 -61 -59c-36 0 -63 24 -63 59zM746 566l-193 -566h-98l-76 284l-75 -284h-99l-191 566h136l106 -343l72 264h103
l71 -263l108 342h136z" />
    <glyph glyph-name="Aringacute.sc" 
d="M321 911h119l-99 -112c31 -21 46 -50 46 -87c0 -56 -47 -101 -104 -101c-34 0 -61 14 -81 43c-13 17 -19 36 -19 58c0 45 32 85 73 100zM243 712c0 -23 18 -42 41 -42c25 0 44 19 44 42c0 25 -19 44 -44 44c-23 0 -41 -19 -41 -44zM428 0l-49 132h-189l-50 -132h-133
l210 566h134l210 -566h-133zM231 242h107l-55 182z" />
    <glyph glyph-name="AEacute.sc" horiz-adv-x="796" 
d="M471 761h121l-127 -142h-87zM148 0h-151l358 566h380v-111h-235v-121h206v-110h-206v-112h243v-112h-369v128h-145zM374 250v140l-73 -140h73z" />
    <glyph glyph-name="Oslashacute.sc" horiz-adv-x="661" 
d="M379 761h121l-127 -142h-87zM86 -16l-42 42l65 67c-44 55 -66 117 -66 186c0 81 28 150 83 207s123 85 203 85c69 0 129 -22 182 -66l64 67l42 -42l-65 -66c43 -54 65 -116 65 -185c0 -80 -28 -148 -84 -205c-55 -56 -123 -84 -204 -84c-64 0 -123 20 -177 61zM168 279
c0 -36 10 -68 29 -96l226 233c-29 20 -60 30 -94 30c-45 0 -83 -16 -114 -49s-47 -72 -47 -118zM329 115c45 0 84 16 115 48c32 32 48 71 48 116c0 36 -10 67 -29 94l-224 -232c25 -17 55 -26 90 -26z" />
    <glyph glyph-name="Ibreve.sc" horiz-adv-x="281" 
d="M78 566h125v-566h-125v566zM25 746h75c0 -28 12 -42 37 -42c24 0 36 14 36 42h77c0 -67 -46 -111 -113 -111c-72 0 -112 50 -112 111z" />
    <glyph glyph-name="Eng.sc" horiz-adv-x="583" 
d="M379 15l-175 314v-329h-126v566h115l185 -333v333h127v-552c0 -116 -58 -197 -185 -197c-19 0 -48 5 -87 15l13 122c25 -8 51 -12 76 -12c36 1 54 34 57 73z" />
    <glyph glyph-name="Ygrave.sc" horiz-adv-x="575" 
d="M354 619h-89l-125 142h121zM351 255v-255h-128v256l-219 310h150l133 -206l133 206h152z" />
    <glyph glyph-name="Gcommaaccent.sc" horiz-adv-x="641" 
d="M549 476l-91 -79c-36 37 -77 56 -124 56c-46 0 -85 -17 -117 -51c-31 -34 -47 -75 -47 -123c0 -47 16 -87 48 -122c32 -34 71 -51 116 -51c31 0 61 8 88 25c28 17 42 38 43 64h-150v103h295c0 -205 -105 -308 -276 -308c-81 0 -150 28 -206 84c-56 57 -84 125 -84 205
c0 81 28 150 84 207s125 85 206 85c85 0 164 -36 215 -95zM310 -222l-51 28c29 39 34 76 34 155h90c0 -80 -24 -141 -73 -183z" />
    <glyph glyph-name="Kcommaaccent.sc" horiz-adv-x="528" 
d="M481 566l-214 -280l265 -286h-164l-163 185v-185h-127v566h127v-175l128 175h148zM260 -222l-51 28c29 39 34 76 34 155h90c0 -80 -24 -141 -73 -183z" />
    <glyph glyph-name="Lcommaaccent.sc" horiz-adv-x="428" 
d="M78 0v566h126v-454h209v-112h-335zM209 -222l-51 28c29 39 34 76 34 155h90c0 -80 -24 -141 -73 -183z" />
    <glyph glyph-name="Ncommaaccent.sc" horiz-adv-x="582" 
d="M504 566v-566h-111l-190 324v-324h-125v566h114l186 -319v319h126zM271 -222l-51 28c29 39 34 76 34 155h90c0 -80 -24 -141 -73 -183z" />
    <glyph glyph-name="Rcommaaccent.sc" horiz-adv-x="550" 
d="M362 199l141 -199h-153l-125 194h-21v-194h-126v566h233c60 0 107 -19 140 -56s50 -80 50 -131c0 -84 -50 -157 -139 -180zM305 454h-101v-150h97c90 -2 88 152 4 150zM260 -222l-51 28c29 39 34 76 34 155h90c0 -80 -24 -141 -73 -183z" />
    <glyph glyph-name="Tcommaaccent.sc" horiz-adv-x="471" 
d="M21 452v114h429v-114h-150v-452h-128v452h-151zM205 -222l-51 28c29 39 34 76 34 155h90c0 -80 -24 -141 -73 -183z" />
    <glyph glyph-name="Scommaaccent.sc" horiz-adv-x="500" 
d="M46 169h126c3 -39 31 -66 80 -66c47 0 78 20 79 55c0 28 -13 47 -65 60l-68 20c-97 29 -146 83 -146 163c0 51 19 92 56 123c37 32 84 48 139 48c113 0 193 -69 193 -178h-125c0 37 -25 63 -68 63c-40 0 -70 -23 -70 -52c0 -25 19 -43 58 -55l67 -20
c129 -36 156 -115 156 -172c0 -54 -21 -96 -62 -125s-89 -43 -144 -43c-61 0 -111 17 -149 50s-57 76 -57 129zM226 -222l-51 28c29 39 34 76 34 155h90c0 -80 -24 -141 -73 -183z" />
    <glyph glyph-name="Idotaccent.sc" horiz-adv-x="281" 
d="M78 566h125v-566h-125v566zM87 648c-28 28 -28 74 0 101c29 27 75 27 103 0c29 -27 29 -73 0 -101c-28 -27 -74 -27 -103 0z" />
    <glyph glyph-name="zero.numr" horiz-adv-x="351" 
d="M34 465c0 131 47 197 142 197c94 0 141 -66 141 -197s-47 -196 -141 -196c-95 0 -142 65 -142 196zM114 465c0 -79 21 -118 62 -118s61 39 61 118s-20 119 -61 119s-62 -40 -62 -119z" />
    <glyph glyph-name="one.numr" horiz-adv-x="216" 
d="M86 275v273l-65 -27v70l145 69v-385h-80z" />
    <glyph glyph-name="two.numr" horiz-adv-x="318" 
d="M30 275v43l156 185c13 15 20 30 20 44c0 21 -19 38 -48 38s-50 -21 -54 -53l-74 13c12 72 61 117 133 117c34 0 63 -11 87 -33c25 -21 37 -49 37 -82c0 -34 -13 -66 -40 -96l-88 -100h118v-76h-247z" />
    <glyph glyph-name="three.numr" horiz-adv-x="317" 
d="M104 566l-64 40c23 36 67 59 118 56c65 -4 115 -51 112 -106c0 -32 -16 -57 -49 -75c41 -15 69 -62 65 -103c-3 -33 -19 -60 -48 -81s-63 -30 -101 -27c-52 4 -100 36 -121 80l70 35c12 -21 31 -34 57 -37c28 -1 52 19 55 40c0 15 -1 24 -3 29c-7 16 -24 24 -49 23h-40
v69h40c25 0 38 14 38 42c0 17 -15 37 -39 37c-17 0 -31 -7 -41 -22z" />
    <glyph glyph-name="four.numr" horiz-adv-x="345" 
d="M320 360h-48v-85h-81v85h-182l179 295h84v-227h48v-68zM191 547l-72 -119h72v119z" />
    <glyph glyph-name="five.numr" horiz-adv-x="341" 
d="M58 368l34 21c17 -27 39 -40 66 -40c44 0 76 27 76 60c0 40 -29 62 -70 62c-38 0 -66 -14 -84 -41l-44 23l31 202h222v-74h-158l-11 -63c15 13 39 20 70 20c72 0 124 -48 124 -129c0 -83 -61 -140 -156 -140c-52 0 -105 32 -134 77c1 0 12 7 34 22z" />
    <glyph glyph-name="six.numr" horiz-adv-x="339" 
d="M146 432c-19 -20 -19 -52 0 -72c20 -19 52 -19 72 0c20 20 20 52 0 72s-52 20 -72 0zM312 589l-75 -32c-9 20 -24 30 -44 30c-52 0 -73 -50 -70 -110c7 19 39 43 76 43c61 0 117 -47 117 -128c0 -73 -57 -123 -138 -123c-73 0 -128 52 -135 132c-5 53 -3 98 6 136
c19 86 68 128 147 125c56 -3 95 -27 116 -73z" />
    <glyph glyph-name="seven.numr" horiz-adv-x="314" 
d="M23 655h286l-169 -380h-91l135 306h-161v74z" />
    <glyph glyph-name="eight.numr" horiz-adv-x="346" 
d="M144 579c-13 -13 -13 -36 0 -51c15 -15 44 -15 57 0c15 15 15 38 0 51c-13 15 -42 15 -57 0zM109 402c0 -32 29 -58 64 -58s64 26 64 58c0 29 -27 56 -58 56h-13c-32 0 -57 -27 -57 -56zM56 556c0 29 11 54 34 75s51 31 83 31s59 -10 82 -31s35 -46 35 -75
c0 -27 -9 -48 -28 -63c37 -22 55 -53 55 -93c0 -36 -14 -67 -43 -93c-28 -25 -62 -38 -101 -38s-73 13 -102 38c-28 26 -42 57 -42 93c0 40 18 71 55 93c-19 17 -28 38 -28 63z" />
    <glyph glyph-name="nine.numr" horiz-adv-x="339" 
d="M199 499c20 20 20 52 0 72c-19 20 -51 20 -71 0s-20 -52 0 -72c20 -19 52 -19 71 0zM34 343l75 32c9 -21 24 -31 44 -31c52 0 73 51 70 111c-7 -19 -37 -43 -76 -43c-61 0 -117 47 -117 128c0 73 55 122 138 122c73 0 129 -52 136 -132c5 -65 0 -121 -20 -176
c-20 -53 -66 -88 -134 -85c-55 3 -94 27 -116 74z" />
    <glyph glyph-name="zero.dnom" horiz-adv-x="351" 
d="M34 190c0 131 47 197 142 197c94 0 141 -66 141 -197s-47 -196 -141 -196c-95 0 -142 65 -142 196zM114 190c0 -79 21 -118 62 -118s61 39 61 118s-20 119 -61 119s-62 -40 -62 -119z" />
    <glyph glyph-name="one.dnom" horiz-adv-x="216" 
d="M86 0v273l-65 -27v70l145 69v-385h-80z" />
    <glyph glyph-name="two.dnom" horiz-adv-x="318" 
d="M30 0v43l156 185c13 15 20 30 20 44c0 21 -19 38 -48 38s-50 -21 -54 -53l-74 13c12 72 61 117 133 117c34 0 63 -11 87 -33c25 -21 37 -49 37 -82c0 -34 -13 -66 -40 -96l-88 -100h118v-76h-247z" />
    <glyph glyph-name="three.dnom" horiz-adv-x="318" 
d="M105 291l-64 40c23 36 67 59 118 56c65 -4 115 -51 112 -106c0 -32 -16 -57 -49 -75c41 -15 69 -62 65 -103c-3 -33 -19 -60 -48 -81s-63 -30 -101 -27c-52 4 -100 36 -121 80l70 35c12 -21 31 -34 57 -37c28 -1 52 19 55 40c0 15 -1 24 -3 29c-7 16 -24 24 -49 23h-40
v69h40c25 0 38 14 38 42c0 17 -15 37 -39 37c-17 0 -31 -7 -41 -22z" />
    <glyph glyph-name="four.dnom" horiz-adv-x="344" 
d="M320 85h-48v-85h-81v85h-182l179 295h84v-227h48v-68zM191 272l-72 -119h72v119z" />
    <glyph glyph-name="five.dnom" horiz-adv-x="340" 
d="M91 114c17 -27 39 -40 66 -40c44 0 76 27 76 60c0 40 -29 62 -70 62c-38 0 -66 -14 -84 -41l-44 23l31 202h222v-74h-158l-11 -63c15 13 39 20 70 20c72 0 124 -48 124 -129c0 -83 -61 -140 -156 -140c-52 0 -105 32 -134 77c1 0 12 7 34 21c22 15 33 22 34 22z" />
    <glyph glyph-name="six.dnom" horiz-adv-x="339" 
d="M146 157c-19 -20 -19 -52 0 -72c20 -19 52 -19 72 0c20 20 20 52 0 72s-52 20 -72 0zM312 314l-75 -32c-9 20 -24 30 -44 30c-52 0 -73 -50 -70 -110c7 19 39 43 76 43c61 0 117 -47 117 -128c0 -73 -57 -123 -138 -123c-73 0 -128 52 -135 132c-5 53 -3 98 6 136
c19 86 68 128 147 125c56 -3 95 -27 116 -73z" />
    <glyph glyph-name="seven.dnom" horiz-adv-x="315" 
d="M23 380h286l-169 -380h-91l135 306h-161v74z" />
    <glyph glyph-name="eight.dnom" horiz-adv-x="346" 
d="M144 304c-13 -13 -13 -36 0 -51c15 -15 44 -15 57 0c15 15 15 38 0 51c-13 15 -42 15 -57 0zM109 127c0 -32 29 -58 64 -58s64 26 64 58c0 29 -27 56 -58 56h-13c-32 0 -57 -27 -57 -56zM56 281c0 29 11 54 34 75s51 31 83 31s59 -10 82 -31s35 -46 35 -75
c0 -27 -9 -48 -28 -63c37 -22 55 -53 55 -93c0 -36 -14 -67 -43 -93c-28 -25 -62 -38 -101 -38s-73 13 -102 38c-28 26 -42 57 -42 93c0 40 18 71 55 93c-19 17 -28 38 -28 63z" />
    <glyph glyph-name="nine.dnom" horiz-adv-x="340" 
d="M199 224c20 20 20 52 0 72c-19 20 -51 20 -71 0s-20 -52 0 -72c20 -19 52 -19 71 0zM34 68l75 32c9 -21 24 -31 44 -31c52 0 73 51 70 111c-7 -19 -37 -43 -76 -43c-61 0 -117 47 -117 128c0 73 55 122 138 122c73 0 129 -52 136 -132c5 -65 0 -121 -20 -176
c-20 -53 -66 -88 -134 -85c-55 3 -94 27 -116 74z" />
    <glyph glyph-name="l.alt1" horiz-adv-x="316" 
d="M260 126h51v-126h-75c-127 0 -177 72 -177 203v518h140v-521c-1 -49 19 -74 61 -74z" />
    <glyph glyph-name="a.alt1" horiz-adv-x="539" 
d="M232 95c44 0 94 18 110 69c-19 18 -49 27 -90 27c-55 0 -79 -21 -79 -49c0 -27 22 -47 59 -47zM132 311l-74 78c42 59 110 88 205 88c63 0 115 -17 156 -50s62 -83 62 -150v-277h-138v47c-33 -38 -78 -57 -135 -57c-107 0 -177 62 -177 151c0 81 63 137 200 137
c47 0 84 -8 112 -25c0 69 -32 104 -96 104c-46 0 -84 -15 -115 -46z" />
    <glyph glyph-name="y.alt1" horiz-adv-x="509" 
d="M152 -30l30 70l-176 427h147l103 -263l103 263h148l-230 -550c-24 -55 -50 -93 -77 -116s-66 -34 -115 -34c-21 0 -43 4 -66 12v121c27 -5 45 -7 54 -7c23 0 38 6 50 23c13 16 17 25 29 54z" />
    <glyph glyph-name="lslash.alt1" horiz-adv-x="345" 
d="M287 126h51v-126h-75c-127 0 -177 72 -177 203v75l-77 -48v95l77 48v348h140v-261l95 60v-95l-95 -60v-165c-1 -49 19 -74 61 -74z" />
    <glyph glyph-name="lacute.alt1" horiz-adv-x="316" 
d="M60 771l110 168h138l-148 -168h-100zM311 0h-75c-127 0 -177 72 -177 203v518h140v-521c-1 -49 19 -74 61 -74h51v-126z" />
    <glyph glyph-name="lcommaaccent.alt1" horiz-adv-x="316" 
d="M260 126h51v-126h-75c-127 0 -177 72 -177 203v518h140v-521c-1 -49 19 -74 61 -74zM182 -287l-68 35c22 31 37 60 46 88s13 64 12 108h117c-8 -101 -44 -178 -107 -231z" />
    <glyph glyph-name="lcaron.alt1" horiz-adv-x="321" 
d="M313 460l-84 29c50 71 75 148 74 232h117c-9 -121 -56 -220 -107 -261zM311 0h-75c-127 0 -177 72 -177 203v518h140v-521c-1 -49 19 -74 61 -74h51v-126z" />
    <glyph glyph-name="aacute.alt1" horiz-adv-x="539" 
d="M232 95c44 0 94 18 110 69c-19 18 -49 27 -90 27c-55 0 -79 -21 -79 -49c0 -27 22 -47 59 -47zM132 311l-74 78c42 59 110 88 205 88c63 0 115 -17 156 -50s62 -83 62 -150v-277h-138v47c-33 -38 -78 -57 -135 -57c-107 0 -177 62 -177 151c0 81 63 137 200 137
c47 0 84 -8 112 -25c0 69 -32 104 -96 104c-46 0 -84 -15 -115 -46zM187 539l110 168h138l-148 -168h-100z" />
    <glyph glyph-name="agrave.alt1" horiz-adv-x="539" 
d="M232 95c44 0 94 18 110 69c-19 18 -49 27 -90 27c-55 0 -79 -21 -79 -49c0 -27 22 -47 59 -47zM132 311l-74 78c42 59 110 88 205 88c63 0 115 -17 156 -50s62 -83 62 -150v-277h-138v47c-33 -38 -78 -57 -135 -57c-107 0 -177 62 -177 151c0 81 63 137 200 137
c47 0 84 -8 112 -25c0 69 -32 104 -96 104c-46 0 -84 -15 -115 -46zM218 539l-148 168h138l110 -168h-100z" />
    <glyph glyph-name="acircumflex.alt1" horiz-adv-x="539" 
d="M232 95c44 0 94 18 110 69c-19 18 -49 27 -90 27c-55 0 -79 -21 -79 -49c0 -27 22 -47 59 -47zM132 311l-74 78c42 59 110 88 205 88c63 0 115 -17 156 -50s62 -83 62 -150v-277h-138v47c-33 -38 -78 -57 -135 -57c-107 0 -177 62 -177 151c0 81 63 137 200 137
c47 0 84 -8 112 -25c0 69 -32 104 -96 104c-46 0 -84 -15 -115 -46zM83 543l109 168h138l110 -168h-100l-79 89l-78 -89h-100z" />
    <glyph glyph-name="adieresis.alt1" horiz-adv-x="539" 
d="M232 95c44 0 94 18 110 69c-19 18 -49 27 -90 27c-55 0 -79 -21 -79 -49c0 -27 22 -47 59 -47zM132 311l-74 78c42 59 110 88 205 88c63 0 115 -17 156 -50s62 -83 62 -150v-277h-138v47c-33 -38 -78 -57 -135 -57c-107 0 -177 62 -177 151c0 81 63 137 200 137
c47 0 84 -8 112 -25c0 69 -32 104 -96 104c-46 0 -84 -15 -115 -46zM103 638c0 37 33 68 73 68c39 0 71 -31 71 -68c0 -39 -32 -69 -71 -69c-40 0 -73 30 -73 69zM280 638c0 37 33 68 73 68c39 0 71 -31 71 -68c0 -39 -32 -69 -71 -69c-40 0 -73 30 -73 69z" />
    <glyph glyph-name="atilde.alt1" horiz-adv-x="539" 
d="M232 95c44 0 94 18 110 69c-19 18 -49 27 -90 27c-55 0 -79 -21 -79 -49c0 -27 22 -47 59 -47zM132 311l-74 78c42 59 110 88 205 88c63 0 115 -17 156 -50s62 -83 62 -150v-277h-138v47c-33 -38 -78 -57 -135 -57c-107 0 -177 62 -177 151c0 81 63 137 200 137
c47 0 84 -8 112 -25c0 69 -32 104 -96 104c-46 0 -84 -15 -115 -46zM207 606c-11 0 -25 -15 -26 -43h-75c4 89 52 130 101 130c15 0 32 -7 50 -21c18 -13 30 -20 37 -20c11 0 25 13 26 41h75c-4 -88 -52 -128 -101 -128c-15 0 -31 7 -50 20c-19 14 -31 21 -37 21z" />
    <glyph glyph-name="aring.alt1" horiz-adv-x="539" 
d="M232 95c44 0 94 18 110 69c-19 18 -49 27 -90 27c-55 0 -79 -21 -79 -49c0 -27 22 -47 59 -47zM132 311l-74 78c42 59 110 88 205 88c63 0 115 -17 156 -50s62 -83 62 -150v-277h-138v47c-33 -38 -78 -57 -135 -57c-107 0 -177 62 -177 151c0 81 63 137 200 137
c47 0 84 -8 112 -25c0 69 -32 104 -96 104c-46 0 -84 -15 -115 -46zM141 659c0 35 12 64 35 87c23 24 52 36 85 36c34 0 63 -12 86 -36c24 -23 36 -52 36 -87c0 -33 -12 -62 -36 -85c-23 -23 -52 -35 -86 -35c-33 0 -62 12 -85 35s-35 52 -35 85zM206 659
c0 -31 24 -55 55 -55c32 0 57 24 57 55c0 33 -25 58 -57 58c-31 0 -55 -25 -55 -58z" />
    <glyph glyph-name="amacron.alt1" horiz-adv-x="539" 
d="M232 95c44 0 94 18 110 69c-19 18 -49 27 -90 27c-55 0 -79 -21 -79 -49c0 -27 22 -47 59 -47zM132 311l-74 78c42 59 110 88 205 88c63 0 115 -17 156 -50s62 -83 62 -150v-277h-138v47c-33 -38 -78 -57 -135 -57c-107 0 -177 62 -177 151c0 81 63 137 200 137
c47 0 84 -8 112 -25c0 69 -32 104 -96 104c-46 0 -84 -15 -115 -46zM405 587h-278v85h278v-85z" />
    <glyph glyph-name="abreve.alt1" horiz-adv-x="538" 
d="M231 95c44 0 94 18 110 69c-19 18 -49 27 -90 27c-55 0 -79 -21 -79 -49c0 -27 22 -47 59 -47zM131 311l-74 78c42 59 110 88 205 88c63 0 115 -17 156 -50s62 -83 62 -150v-277h-138v47c-33 -38 -78 -57 -135 -57c-107 0 -177 62 -177 151c0 81 63 137 200 137
c47 0 84 -8 112 -25c0 69 -32 104 -96 104c-46 0 -84 -15 -115 -46zM132 689h85c0 -35 16 -53 49 -53c32 0 48 18 48 53h87c0 -79 -55 -131 -135 -131c-87 0 -134 59 -134 131z" />
    <glyph glyph-name="aogonek.alt1" horiz-adv-x="539" 
d="M132 311l-74 78c42 59 110 88 205 88c63 0 115 -17 156 -50s62 -83 62 -150v-277h-68l-37 -101c-7 -21 -2 -35 15 -42c19 -5 32 2 39 19l1 26l77 4c1 -25 -2 -45 -8 -59c-17 -40 -55 -65 -95 -65c-29 0 -55 10 -76 31c-21 20 -31 44 -31 72c0 20 3 36 10 49l35 66v47
c-33 -38 -78 -57 -135 -57c-107 0 -177 62 -177 151c0 81 63 137 200 137c47 0 84 -8 112 -25c0 69 -32 104 -96 104c-46 0 -84 -15 -115 -46zM232 95c44 0 94 18 110 69c-19 18 -49 27 -90 27c-55 0 -79 -21 -79 -49c0 -27 22 -47 59 -47z" />
    <glyph glyph-name="yacute.alt1" horiz-adv-x="509" 
d="M195 539l110 168h138l-148 -168h-100zM182 40l-176 427h147l103 -263l103 263h148l-230 -550c-24 -55 -50 -93 -77 -116s-66 -34 -115 -34c-21 0 -43 4 -66 12v121c27 -5 45 -7 54 -7c23 0 38 6 50 23c13 16 17 25 29 54z" />
    <glyph glyph-name="ydieresis.alt1" horiz-adv-x="509" 
d="M100 638c0 37 33 68 73 68c39 0 71 -31 71 -68c0 -39 -32 -69 -71 -69c-40 0 -73 30 -73 69zM277 638c0 37 33 68 73 68c39 0 71 -31 71 -68c0 -39 -32 -69 -71 -69c-40 0 -73 30 -73 69zM182 40l-176 427h147l103 -263l103 263h148l-230 -550c-24 -55 -50 -93 -77 -116
s-66 -34 -115 -34c-21 0 -43 4 -66 12v121c27 -5 45 -7 54 -7c23 0 38 6 50 23c13 16 17 25 29 54z" />
    <glyph glyph-name="ae.alt1" horiz-adv-x="869" 
d="M142 310l-85 79c42 59 110 88 205 88c73 0 128 -20 167 -61c46 41 102 61 168 61c68 0 125 -22 170 -67c46 -45 69 -103 69 -175c0 -13 -1 -27 -2 -43h-342c7 -53 50 -82 115 -82c45 0 89 19 108 54l102 -67c-41 -73 -128 -107 -220 -107c-93 0 -155 25 -184 75
c-33 -50 -102 -75 -206 -75c-107 0 -177 62 -177 151c0 83 66 143 211 143c37 0 71 -9 101 -27c0 57 -30 100 -89 100c-48 0 -85 -16 -111 -47zM494 282h202c-7 52 -50 73 -98 73c-59 0 -94 -24 -104 -73zM231 106c26 0 98 5 110 63c-28 17 -61 25 -100 25
c-46 0 -69 -16 -69 -47c0 -21 22 -41 59 -41z" />
    <glyph glyph-name="aeacute.alt1" horiz-adv-x="868" 
d="M142 310l-85 79c42 59 110 88 205 88c73 0 128 -20 167 -61c46 41 102 61 168 61c68 0 125 -22 170 -67c46 -45 69 -103 69 -175c0 -13 -1 -27 -2 -43h-342c7 -53 50 -82 115 -82c45 0 89 19 108 54l102 -67c-41 -73 -128 -107 -220 -107c-93 0 -155 25 -184 75
c-33 -50 -102 -75 -206 -75c-107 0 -177 62 -177 151c0 83 66 143 211 143c37 0 71 -9 101 -27c0 57 -30 100 -89 100c-48 0 -85 -16 -111 -47zM494 282h202c-7 52 -50 73 -98 73c-59 0 -94 -24 -104 -73zM231 106c26 0 98 5 110 63c-28 17 -61 25 -100 25
c-46 0 -69 -16 -69 -47c0 -21 22 -41 59 -41zM382 539l110 168h138l-148 -168h-100z" />
    <glyph glyph-name="ycircumflex.alt1" horiz-adv-x="509" 
d="M152 -30l30 70l-176 427h147l103 -263l103 263h148l-230 -550c-24 -55 -50 -93 -77 -116s-66 -34 -115 -34c-21 0 -43 4 -66 12v121c27 -5 45 -7 54 -7c23 0 38 6 50 23c13 16 17 25 29 54zM79 543l109 168h138l110 -168h-100l-79 89l-78 -89h-100z" />
    <glyph glyph-name="ldot.alt1" horiz-adv-x="404" 
d="M260 126h51v-126h-75c-127 0 -177 72 -177 203v518h140v-521c-1 -49 19 -74 61 -74zM241 307c0 41 34 74 77 74s77 -33 77 -74c0 -44 -33 -75 -77 -75s-77 31 -77 75z" />
    <glyph glyph-name="t.alt1" horiz-adv-x="391" 
d="M107 193v164h-85v110h85v98l140 45v-143h96v-110h-96v-167c-1 -43 19 -64 61 -64h41v-126h-65c-128 0 -177 64 -177 193z" />
    <glyph glyph-name="tcaron.alt1" horiz-adv-x="391" 
d="M107 193v164h-85v110h85v98l140 45v-143h96v-110h-96v-167c-1 -43 19 -64 61 -64h41v-126h-65c-128 0 -177 64 -177 193zM356 522l-68 35c22 31 37 60 46 88s13 64 12 108h117c-8 -101 -44 -178 -107 -231z" />
    <glyph glyph-name="tbar.alt1" horiz-adv-x="392" 
d="M316 270v-77h-68v-3c0 -43 20 -64 61 -64h41v-126h-65c-128 0 -177 64 -177 193h-53v77h53v87h-85v110h85v98l140 45v-143h96v-110h-96v-87h68z" />
    <glyph glyph-name="tcommaaccent.alt1" horiz-adv-x="391" 
d="M107 193v164h-85v110h85v98l140 45v-143h96v-110h-96v-167c-1 -43 19 -64 61 -64h41v-126h-65c-128 0 -177 64 -177 193zM216 -287l-68 35c22 31 37 60 46 88s13 64 12 108h117c-8 -101 -44 -178 -107 -231z" />
    <glyph glyph-name="T.sc.alt1" horiz-adv-x="471" 
d="M21 452v114h429v-114h-150v-452h-128v452h-151z" />
    <glyph glyph-name="Tcaron.sc.alt1" horiz-adv-x="490" 
d="M179 452h-159v114h450v-114h-159v-452h-132v452zM95 760h87l64 -70l63 70h88l-93 -142h-118z" />
    <glyph glyph-name="Tbar.sc.alt1" horiz-adv-x="471" 
d="M173 244h-78v75h78v132h-151v113h427v-113h-150v-132h77v-75h-77v-244h-126v244z" />
    <glyph glyph-name="Tcommaaccent.sc.alt1" horiz-adv-x="471" 
d="M21 452v114h429v-114h-150v-452h-128v452h-151zM205 -222l-51 28c29 39 34 76 34 155h90c0 -80 -24 -141 -73 -183z" />
    <glyph glyph-name="aringacute.alt1" horiz-adv-x="539" 
d="M242 777l81 123h138l-120 -136c39 -24 58 -59 58 -105c0 -33 -12 -62 -36 -85c-23 -23 -52 -35 -86 -35c-33 0 -62 12 -85 35s-35 52 -35 85c0 55 36 103 85 118zM222 659c0 -31 24 -55 55 -55c32 0 57 24 57 55c0 33 -25 58 -57 58c-31 0 -55 -25 -55 -58zM232 95
c44 0 94 18 110 69c-19 18 -49 27 -90 27c-55 0 -79 -21 -79 -49c0 -27 22 -47 59 -47zM132 311l-74 78c42 59 110 88 205 88c63 0 115 -17 156 -50s62 -83 62 -150v-277h-138v47c-33 -38 -78 -57 -135 -57c-107 0 -177 62 -177 151c0 81 63 137 200 137c47 0 84 -8 112 -25
c0 69 -32 104 -96 104c-46 0 -84 -15 -115 -46z" />
    </font>
</defs>
</svg>
